<?xml version="1.0" standalone="no"?>
<!DOCTYPE svg PUBLIC "-//W3C//DTD SVG 1.1//EN" "http://www.w3.org/Graphics/SVG/1.1/DTD/svg11.dtd" >
<svg xmlns="http://www.w3.org/2000/svg">
<metadata></metadata>
<defs>
<font id="foglihtenno07regular" horiz-adv-x="1080" >
<font-face units-per-em="1000" ascent="773" descent="-227" />
<missing-glyph horiz-adv-x="266" />
<glyph unicode="As" horiz-adv-x="1130" d="M838 -8q-38 0 -74.5 8.5t-77.5 29.5t-77 63t-61 102h-396l-54 -124q-5 -12 -5 -23q0 -17 13 -28t35 -11h49v-9h-182v9h16q28 0 55 62l281 648h77v-12q0 -36 9 -58l182 -446q39 -95 89.5 -144t118.5 -49q84 0 135 40t51 106q0 18 -8.5 34t-20.5 27t-34 22t-39 17.5 t-45 16.5q-34 11 -54 19t-47.5 22.5t-42.5 30t-26.5 39t-11.5 51.5q0 73 54 117.5t143 44.5q74 0 133 -44q11 -8 16 -23l7 2q-2 8 -4 32l-3 53h10l11 -236l-18 -1l-2 42q-3 65 -41.5 111t-108.5 46q-61 0 -94 -31.5t-33 -90.5q0 -17 8.5 -31.5t19.5 -24.5t32.5 -20.5t38 -17 t44.5 -16.5q34 -11 55 -19.5t50.5 -24.5t45.5 -32.5t28 -42t12 -56.5q0 -81 -71.5 -130.5t-187.5 -49.5zM160 213h381l-170 417q-8 18 -8 40h-9q0 -12 -12 -40z" />
<glyph unicode="R&#x7a;" horiz-adv-x="1147" d="M18 0v9h35q36 0 44.5 8.5t8.5 44.5v595q0 36 -8.5 44.5t-44.5 8.5h-35v9h261q120 0 193 -61t73 -161q0 -88 -68.5 -147.5t-163.5 -68.5l-20 -1v-6q49 -5 135 -95q35 -37 58 -60t68.5 -60t84.5 -58.5t92.5 -38.5t106.5 -17q54 0 121 30t117 94q-48 -47 -123 -47 q-32 0 -67 9t-57 19t-59 28.5t-52 25.5l-19 9l248 394q14 23 34 39.5t38 21.5v3h-203q-77 0 -109 -22.5t-36 -93.5l-1 -20l-7 1l11 212l7 -1l-3 -67q9 9 26 9h409v-9q-10 0 -33 -20.5t-46 -57.5l-257 -407q87 -25 146 -25q161 0 209 105l10 -4q-20 -63 -55.5 -111t-75 -75 t-85.5 -44t-81.5 -22.5t-68.5 -5.5q-44 0 -88.5 10.5t-80.5 26t-74 42t-64 47.5t-58 53.5t-48 50t-41 46.5q-37 43 -61.5 64.5t-43.5 21.5h-12v17h46q86 0 146.5 57.5t60.5 147.5q0 92 -51.5 148t-135.5 56h-104v-1q17 -17 17 -52v-586q0 -36 9 -44.5t45 -8.5h58v-9h-278z " />
<glyph unicode="Ab" horiz-adv-x="1417" d="M160 213h381l-170 417q-8 18 -8 40h-9q0 -12 -12 -40zM1299 313q0 120 -55.5 193t-149.5 73q-109 0 -184.5 -83t-75.5 -201v-179h-8v34q0 37 -14.5 59.5t-37.5 22.5h-18v499q0 30 -30 30h-47v9h57q37 0 63.5 12.5t26.5 40.5v4h8v-85v-338q30 86 99 139.5t157 53.5 q135 0 215.5 -83t80.5 -219q0 -155 -120 -250t-317 -95q-81 0 -158 25.5t-143.5 82.5t-99.5 137h-396l-54 -124q-5 -12 -5 -23q0 -17 13 -28t35 -11h49v-9h-182v9h16q28 0 55 62l281 648h77v-12q0 -36 9 -58l182 -446q95 -231 327 -231q155 0 249.5 94t94.5 247z" />
<glyph unicode="Ro" horiz-adv-x="1230" d="M1196 88q-71 -61 -169.5 -98.5t-205.5 -37.5q-123 0 -243.5 53t-218.5 166l-21 25q-24 28 -36.5 41.5t-30.5 25.5t-34 12h-12v17h46q84 0 135.5 56.5t51.5 148.5q0 84 -55 144t-132 60h-104v-1q17 -17 17 -52v-586q0 -36 9 -44.5t45 -8.5h58v-9h-278v9h35q36 0 44.5 8.5 t8.5 44.5v595q0 36 -8.5 44.5t-44.5 8.5h-35v9h261q120 0 193 -61t73 -161q0 -86 -60 -146t-152 -70l-20 -1v-6q52 -6 109 -68q107 -120 222.5 -172t225.5 -52q57 0 112.5 13t97 33t68 36.5t43.5 30.5zM915 122q-114 0 -195 69.5t-81 168.5q0 107 76 172t200 65 q113 0 193.5 -69.5t80.5 -167.5q0 -107 -75.5 -172.5t-198.5 -65.5zM918 140q76 0 130 59t54 142q0 107 -52.5 172.5t-138.5 65.5q-77 0 -131 -59t-54 -142q0 -107 53 -172.5t139 -65.5z" />
<glyph unicode="Ru" horiz-adv-x="1124" d="M596 589h245v-9h-44q-36 0 -44.5 -8.5t-8.5 -44.5v-269q0 -58 31 -88t90 -30q43 0 75 12t49 26.5t41 42.5v288q0 39 -11.5 55t-45.5 16h-37v9h175v-9h-16q-21 0 -34 -17t-13 -44v-305q-26 -31 -44.5 -47t-55 -30.5t-83.5 -14.5q-90 0 -144.5 47.5t-54.5 124.5v233 q0 36 -9 44.5t-45 8.5h-16v9zM18 0v9h35q36 0 44.5 8.5t8.5 44.5v595q0 36 -8.5 44.5t-44.5 8.5h-35v9h261q120 0 193 -61t73 -161q0 -86 -60 -146t-152 -70l-20 -1v-6q65 -7 108 -68q5 -8 18 -24t51.5 -53.5t81 -67t106 -53t127.5 -23.5q147 0 276 110l22 19l5 -7l-22 -19 q-156 -135 -327 -135q-211 0 -400 218l-21 25q-24 28 -36.5 41.5t-30.5 25.5t-34 12h-12v17h46q84 0 135.5 56.5t51.5 148.5q0 84 -55 144t-132 60h-104v-1q17 -17 17 -52v-586q0 -36 9 -44.5t45 -8.5h58v-9h-278z" />
<glyph unicode="Li" horiz-adv-x="740" d="M18 0v9h35q35 0 44 11.5t9 48.5v589q0 36 -8.5 44t-44.5 8h-35v9h235v-9h-15q-36 0 -45 -8t-9 -44v-587q0 -30 -22 -52v-1h346q80 0 121.5 24t46.5 91l7 93q-21 -30 -54.5 -47t-72.5 -17q-80 0 -129 39t-49 103v217q0 30 -30 30h-42v9h52q37 0 63.5 12.5t26.5 40.5v4h8 v-85v-254q0 -44 27.5 -71t72.5 -27q56 0 95.5 37t39.5 89q0 48 -35 81.5t-85 33.5q-19 0 -32 12.5t-13 30.5h20q67 0 115 -46.5t48 -111.5l-25 -357l-10 1l4 59h-1q-9 -9 -27 -9h-632zM416 800q20 0 32 -11.5t12 -32.5q0 -20 -11.5 -32.5t-32.5 -12.5q-20 0 -32.5 12 t-12.5 33q0 20 12 32t33 12z" />
<glyph unicode="Ko" horiz-adv-x="1230" d="M915 122q-114 0 -195 69.5t-81 168.5q0 107 76 172t200 65q113 0 193.5 -69.5t80.5 -167.5q0 -107 -75.5 -172.5t-198.5 -65.5zM918 140q76 0 130 59t54 142q0 107 -52.5 172.5t-138.5 65.5q-77 0 -131 -59t-54 -142q0 -107 53 -172.5t139 -65.5zM1196 88 q-61 -53 -157 -94.5t-197 -41.5q-51 0 -97.5 11t-82.5 25.5t-73 42t-61 49.5t-54.5 59t-46.5 58.5t-43 60.5q-24 35 -37.5 53t-35 43t-37 37.5t-36.5 22t-42 9.5h-12v-352q0 -42 9 -52t45 -10h35v-9h-255v9h35q36 0 44.5 10t8.5 52v586q0 36 -8.5 44.5t-44.5 8.5h-35v9h229 v-9h-9q-36 0 -45 -8.5t-9 -42.5v-227q54 0 65 14l158 199q18 22 18 38q0 27 -52 27h-9v9h226v-9h-17q-38 0 -78 -16.5t-69 -52.5l-159 -201l1 -4q34 -8 65 -26t59 -47.5t49 -55.5t49 -67q32 -45 55 -75t61.5 -68t75 -60t88 -38t108.5 -16q54 0 108 13.5t95 33.5t67.5 36 t42.5 29z" />
<glyph unicode="Ku" horiz-adv-x="1146" d="M1040 221v288q0 39 -11.5 55t-45.5 16h-37v9h185v-9h-16q-34 0 -45.5 -16t-11.5 -55v-295q-42 -49 -82.5 -70.5t-100.5 -21.5q-90 0 -144.5 47.5t-54.5 124.5v233q0 36 -9 44.5t-45 8.5h-31v9h260v-9h-44q-36 0 -44.5 -8.5t-8.5 -44.5v-269q0 -58 31 -88t90 -30 q55 0 91 18t74 63zM106 71v586q0 36 -8.5 44.5t-44.5 8.5h-35v9h229v-9h-9q-36 0 -45 -8.5t-9 -44.5v-225q54 0 65 14l158 199q18 22 18 38q0 27 -52 27h-9v9h216v-9h-7q-38 0 -78 -16.5t-69 -52.5l-159 -201l1 -4q33 -8 60.5 -25.5t50.5 -46.5t39 -55.5t36 -67.5 q17 -33 28 -54t30.5 -51t37 -49t43.5 -40.5t54 -34t65 -21t79 -8.5q159 0 290 112l22 19l5 -7l-22 -19q-157 -136 -334 -136q-39 0 -74.5 6.5t-63.5 16t-55 26.5t-46.5 32t-40 39.5t-33.5 42t-30 46t-25.5 45.5t-23.5 46q-18 36 -28 54.5t-27 45t-31.5 39t-34.5 22.5t-43 10 h-12v-352q0 -41 9 -51.5t45 -10.5h35v-9h-255v9h35q36 0 44.5 10t8.5 52z" />
<glyph unicode="Ra" horiz-adv-x="1144" d="M987 384v64q0 64 -29 98t-84 34q-72 0 -114.5 -38.5t-45.5 -98.5l-3 -22h-18l11 196h10l-3 -53q-2 -24 -4 -32l7 -2q5 15 16 23q59 44 143 44q95 0 144.5 -41.5t49.5 -120.5v-284q0 -31 5.5 -41t27.5 -10q3 0 9.5 0.5t10.5 0.5l17 1l1 -9q-62 -6 -111 -22v8 q0 25 -9.5 82.5t-9.5 72.5h-10q-40 -162 -168 -162q-85 0 -137 39.5t-52 104.5q0 76 73.5 122t194.5 46h78zM987 366h-73q-84 0 -135 -41.5t-51 -108.5q0 -53 31.5 -85t82.5 -32q58 0 101.5 53.5t43.5 153.5v60zM18 0v9h35q36 0 44.5 8.5t8.5 44.5v595q0 36 -8.5 44.5 t-44.5 8.5h-35v9h261q120 0 193 -61t73 -161q0 -88 -68.5 -147.5t-163.5 -68.5l-20 -1v-6q27 -3 57 -25.5t78 -68.5l17 -17q31 -30 49.5 -47t53.5 -47.5t65 -48.5t68 -37.5t78.5 -28.5t82.5 -9q131 0 261 41l28 9l2 -9l-27 -9q-202 -64 -330 -64q-43 0 -85.5 10t-76.5 24 t-71.5 39t-62.5 45t-57.5 51.5t-48 48.5t-41.5 46q-7 8 -11 12q-28 31 -42 45.5t-32 27.5t-31 13h-12v17h46q86 0 146.5 57.5t60.5 147.5q0 92 -51.5 148t-135.5 56h-104v-1q17 -17 17 -52v-586q0 -36 9 -44.5t45 -8.5h58v-9h-278z" />
<glyph unicode="Rs" horiz-adv-x="1082" d="M18 0v9h35q36 0 44.5 8.5t8.5 44.5v595q0 36 -8.5 44.5t-44.5 8.5h-35v9h261q120 0 193 -58.5t73 -153.5q0 -89 -59.5 -143t-152.5 -63l-20 -1v-6q33 -4 70 -30.5t94 -79.5q5 -5 15 -14q34 -32 52.5 -49t53.5 -44t61.5 -41t62.5 -25t70 -11q81 0 131.5 44.5t50.5 111.5 q0 19 -8.5 34.5t-20.5 26.5t-34 22t-39 17.5t-45 16.5q-34 11 -54 19t-47.5 23t-42.5 30t-26.5 38.5t-11.5 51.5q0 73 54 117.5t143 44.5q74 0 133 -44q11 -8 16 -23l7 2q-2 8 -4 32l-3 53h10l11 -236l-18 -1l-2 42q-3 65 -41.5 111t-108.5 46q-61 0 -94 -31.5t-33 -90.5 q0 -17 8 -31.5t19.5 -24.5t33 -20.5t38 -17t43.5 -15.5q35 -12 56 -20.5t50 -24.5t45.5 -32.5t28.5 -42t12 -56.5q0 -82 -75.5 -136t-195.5 -54q-47 0 -92.5 9.5t-81 22t-74 35.5t-63 40t-57 47t-47 44t-41.5 42q-37 38 -58 55.5t-37 17.5h-7v17h51q91 0 139 50t48 145 t-48 144.5t-139 49.5h-104v-1q17 -17 17 -52v-586q0 -36 9 -44.5t45 -8.5h58v-9h-278z" />
<glyph unicode="Mi" horiz-adv-x="1189" d="M9 0v9h16q34 0 48 16t14 55v577q0 31 -8.5 42t-40.5 11h-40v9h149l284 -573q15 -30 15 -43h5q0 14 14 43l279 573h149v-9h-30q-36 0 -45.5 -15t-9.5 -56v-500q0 -86 50.5 -138.5t133.5 -52.5q49 0 83.5 31.5t34.5 76.5q0 40 -25 66t-67 29h-91v9h35q36 0 44.5 8t8.5 44 v309q0 30 -30 30h-47v9h57q37 0 63.5 12.5t26.5 40.5v4h8v-85v-320q0 -36 9 -44t45 -8h35v-9h-125q29 -12 45.5 -37t16.5 -58q0 -57 -44.5 -97t-107.5 -40q-107 0 -172 72.5t-65 190.5v410q0 33 1 44h-7q-2 -6 -17 -41l-289 -599l-3 -7h-2l-3 7l-290 588q-13 29 -13 42h-4 q1 -9 1 -34v-522q0 -33 14 -47t48 -14h36v-9h-193zM1048 800q20 0 32 -11.5t12 -32.5q0 -20 -11.5 -32.5t-32.5 -12.5q-20 0 -32.5 12t-12.5 33q0 20 12 32t33 12z" />
<glyph unicode="Mn" horiz-adv-x="1546" d="M9 0v9h16q34 0 48 16t14 55v577q0 31 -8.5 42t-40.5 11h-40v9h149l284 -573q15 -30 15 -43h5q0 14 14 43l279 573h149v-9h-30q-36 0 -45.5 -15t-9.5 -56v-500q0 -86 50.5 -138.5t133.5 -52.5q49 0 83.5 31.5t34.5 76.5q0 40 -25 66t-67 29h-91v9h35q36 0 44.5 8.5 t8.5 44.5v289q0 14 -9 23t-24 9h-4l-59 -5l-1 6l77 16q32 6 53 25t21 48v4h8v-131q0 -87 -2 -105h7q3 27 16 65q22 64 71.5 102t111.5 38q80 0 124 -41t44 -110v-384q0 -36 8.5 -44.5t44.5 -8.5h36v-9h-255v9h97v2q-9 9 -9 26v392q0 151 -98 151q-78 0 -129 -68t-51 -176 v-123q0 -36 9 -44.5t45 -8.5h35v-9h-125q29 -12 45.5 -37t16.5 -58q0 -57 -44.5 -97t-107.5 -40q-107 0 -172 73.5t-65 193.5v406q0 33 1 44h-7q-2 -6 -17 -41l-289 -599l-3 -7h-2l-3 7l-290 588q-13 29 -13 42h-4q1 -9 1 -34v-522q0 -33 14 -47t48 -14h36v-9h-193z" />
<glyph unicode="li" horiz-adv-x="517" d="M160 742v-558q0 -79 44 -127.5t116 -48.5q49 0 83.5 31.5t34.5 76.5q0 40 -25 66t-67 29h-81v9h25q36 0 44.5 8t8.5 44v249q0 30 -30 30h-47v9h57q37 0 63.5 12.5t26.5 40.5v4h8v-85v-260q0 -36 9 -44t45 -8h35v-9h-125q29 -12 45.5 -37t16.5 -58q0 -57 -44.5 -97 t-107.5 -40q-96 0 -154.5 70t-58.5 184v498q0 30 -30 30h-47v9h57q37 0 63.5 12.5t26.5 40.5v4h8v-85zM381 800q20 0 32 -11.5t12 -32.5q0 -20 -11.5 -32.5t-32.5 -12.5q-20 0 -32.5 12t-12.5 33q0 20 12 32t33 12z" />
<glyph unicode="lk" horiz-adv-x="855" d="M82 233v498q0 30 -30 30h-47v9h57q37 0 63.5 12.5t26.5 40.5v4h8v-85v-558q0 -79 46.5 -127.5t123.5 -48.5q49 0 83.5 31.5t34.5 76.5q0 40 -25 66t-67 29h-81v9h25q36 0 44.5 8t8.5 44v459q0 30 -30 30h-47v9h57q37 0 63.5 12.5t26.5 40.5v4h8v-85v-420q54 0 65 14 l158 179q18 20 18 38q0 27 -52 27h-9v9h221v-9h-12q-84 0 -145 -69l-160 -181v-4q45 -10 77.5 -26.5t50.5 -33t29.5 -41.5t15.5 -43.5t8 -46.5q8 -63 27 -92.5t61 -29.5q23 0 49 20l12 10l6 -7l-12 -10q-41 -37 -82 -37q-67 0 -97 40.5t-45 125.5q-5 29 -9.5 47t-16.5 41.5 t-29 37t-46.5 23t-70.5 9.5h-12v-41q0 -33 14 -84q12 -45 12 -72q0 -57 -44.5 -97t-107.5 -40q-100 0 -161.5 70t-61.5 184z" />
<glyph unicode="ln" horiz-adv-x="884" d="M82 243v488q0 30 -30 30h-47v9h57q37 0 63.5 12.5t26.5 40.5v4h8v-85v-548q0 -84 47 -135t123 -51q49 0 83.5 31.5t34.5 76.5q0 40 -25 66t-67 29h-91v9h35q36 0 44.5 8t8.5 44v230q0 14 -9 23t-24 9h-4l-59 -5l-1 6l77 16q32 6 53 25t21 48v4h8v-131q0 -87 -2 -105h7 q3 27 16 65q22 64 71.5 102t111.5 38q80 0 124 -41t44 -110v-384q0 -36 8.5 -44.5t44.5 -8.5h36v-9h-255v9h97v2q-9 9 -9 26v392q0 151 -98 151q-78 0 -129 -68t-51 -176v-64q0 -33 14 -84q12 -45 12 -72q0 -57 -44.5 -97t-107.5 -40q-100 0 -161.5 72.5t-61.5 191.5z" />
<glyph unicode="lm" horiz-adv-x="1139" d="M82 243v488q0 30 -30 30h-47v9h57q37 0 63.5 12.5t26.5 40.5v4h8v-85v-548q0 -84 47 -135t123 -51q49 0 83.5 31.5t34.5 76.5q0 40 -25 66t-67 29h-91v9h35q36 0 44.5 8t8.5 44v230q0 14 -9 23t-24 9h-4l-59 -5l-1 6l77 16q70 14 70 73v4h8v-131q0 -72 -2 -92h9 q6 42 16 69q47 123 158 123q73 0 103 -35t30 -97v-60h4q1 22 10.5 52.5t14.5 40.5q52 99 148 99q67 0 108 -35t41 -98v-402q0 -36 9 -44.5t45 -8.5h26v-9h-225v9h76v2q-9 9 -9 26v418q0 59 -22 92t-58 33q-68 0 -110 -63.5t-42 -167.5v-287q0 -36 9 -44.5t45 -8.5h26v-9 h-216v9h67v2q-9 9 -9 26v418q0 59 -22 92t-58 33q-68 0 -110 -63.5t-42 -167.5v-77q0 -33 14 -84q12 -45 12 -72q0 -57 -44.5 -97t-107.5 -40q-100 0 -161.5 72.5t-61.5 191.5z" />
<glyph unicode="ko" horiz-adv-x="1231" d="M915 122q-114 0 -195 69.5t-81 168.5q0 107 76 172t200 65q113 0 193.5 -69.5t80.5 -167.5q0 -107 -75.5 -172.5t-198.5 -65.5zM918 140q76 0 130 59t54 142q0 107 -52.5 172.5t-138.5 65.5q-77 0 -131 -59t-54 -142q0 -107 53 -172.5t139 -65.5zM18 0v9h35q36 0 44.5 8 t8.5 44v670q0 30 -30 30h-47v9h57q37 0 63.5 12.5t26.5 40.5v4h8v-85v-420q70 0 82 15l141 178q18 22 18 38q0 27 -52 27h-9v9h226v-9h-17q-38 0 -78 -16t-69 -53l-143 -181l1 -4q28 -4 70.5 -35.5t72.5 -64.5q112 -124 226.5 -184t216.5 -60q57 0 112.5 13t97 33t68 36.5 t43.5 30.5l5 -7q-70 -61 -169 -98t-206 -37q-118 0 -240.5 61t-221.5 177l-21 25q-33 39 -72 68t-70 29h-12v-252q0 -36 9 -44t45 -8h35v-9h-255z" />
<glyph unicode="mu" horiz-adv-x="1411" d="M1307 221v288q0 39 -11.5 55t-45.5 16h-37v9h185v-9h-16q-34 0 -45.5 -16t-11.5 -55v-295q-42 -49 -82.5 -70.5t-100.5 -21.5q-90 0 -144.5 47.5t-54.5 124.5v233q0 36 -9 44.5t-45 8.5h-26v9h255v-9h-44q-36 0 -44.5 -8.5t-8.5 -44.5v-269q0 -58 31 -88t90 -30 q55 0 91 18t74 63zM18 0v9h35q36 0 44.5 8.5t8.5 44.5v440q0 14 -9 23t-24 9h-4l-59 -5l-1 6l77 16q32 6 51 25t19 48v4h8v-131q0 -72 -2 -92h9q6 42 16 69q47 123 158 123q73 0 103 -35t30 -97v-60h4q1 22 10.5 52.5t14.5 40.5q26 49 61 74t87 25q67 0 108 -35t41 -98v-206 q0 -146 75.5 -223t218.5 -77q78 0 148.5 36t103.5 104l8 -6q-35 -71 -105 -107.5t-156 -36.5q-167 0 -269 85.5t-102 224.5v197q0 59 -22 92t-58 33q-68 0 -110 -63.5t-42 -167.5v-287q0 -36 9 -44.5t45 -8.5h26v-9h-216v9h67v2q-9 9 -9 26v418q0 59 -22 92t-58 33 q-68 0 -110 -63.5t-42 -167.5v-287q0 -36 9 -44.5t45 -8.5h35v-9h-255z" />
<glyph unicode="mi" horiz-adv-x="1181" d="M949 -21q-100 0 -161.5 72.5t-61.5 191.5v212q0 59 -22 92t-58 33q-68 0 -110 -63.5t-42 -167.5v-287q0 -36 9 -44.5t45 -8.5h26v-9h-216v9h67v2q-9 9 -9 26v418q0 59 -22 92t-58 33q-68 0 -110 -63.5t-42 -167.5v-287q0 -36 9 -44.5t45 -8.5h35v-9h-255v9h35 q36 0 44.5 8.5t8.5 44.5v440q0 14 -9 23t-24 9h-4l-59 -5l-1 6l77 16q70 14 70 73v4h8v-131q0 -72 -2 -92h9q6 42 16 69q47 123 158 123q73 0 103 -35t30 -97v-60h4q1 22 10.5 52.5t14.5 40.5q52 99 148 99q67 0 108 -35t41 -98v-270q0 -84 47 -135t123 -51q49 0 83.5 31.5 t34.5 76.5q0 40 -25 66t-67 29h-81v9h35q36 0 44.5 8t8.5 44v249q0 30 -30 30h-47v9h57q37 0 63.5 12.5t26.5 40.5v4h8v-85v-260q0 -36 9 -44t45 -8h35v-9h-135q29 -12 45.5 -37t16.5 -58q0 -57 -44.5 -97t-107.5 -40zM1051 820q20 0 32 -11.5t12 -32.5q0 -20 -11.5 -32.5 t-32.5 -12.5q-20 0 -32.5 12t-12.5 33q0 20 12 32t33 12z" />
<glyph unicode="ks" horiz-adv-x="1077" d="M13 0v9h35q36 0 44.5 8t8.5 44v670q0 30 -30 30h-47v9h57q37 0 63.5 12.5t26.5 40.5v4h8v-85v-420q54 0 65 14l158 179q18 20 18 38q0 27 -52 27h-9v9h226v-9h-17q-84 0 -145 -69l-160 -181v-4q49 -6 105 -40.5t104 -81.5q7 -8 36.5 -37t42.5 -41.5t41 -37.5t47.5 -37 t46 -27t52.5 -21t52 -6q80 0 129.5 46t49.5 113q0 19 -8.5 34.5t-20.5 26.5t-34 22t-39 17.5t-46 16.5q-33 11 -53 19t-47.5 23t-42.5 30t-26.5 38.5t-11.5 51.5q0 73 54 117.5t143 44.5q74 0 133 -44q11 -8 16 -23l7 2q-2 8 -4 32l-3 53h10l11 -236l-18 -1l-2 42 q-3 65 -41.5 111t-108.5 46q-61 0 -94 -31.5t-33 -90.5q0 -17 8 -31.5t19.5 -24.5t33 -20.5t38 -17t43.5 -15.5q35 -12 56 -20.5t50 -24.5t45.5 -32.5t28.5 -42t12 -56.5q0 -83 -74 -138t-194 -55q-44 0 -87.5 9.5t-77.5 22.5t-71 36.5t-61.5 41.5t-55.5 48t-46 46t-41 44 q-9 10 -14 15q-65 71 -100 71h-43v-252q0 -36 9 -44t45 -8h35v-9h-255z" />
<glyph unicode="ki" horiz-adv-x="922" d="M13 0v9h35q36 0 44.5 8t8.5 44v670q0 30 -30 30h-47v9h57q37 0 63.5 12.5t26.5 40.5v4h8v-85v-440q54 0 65 14l158 199q18 22 18 38q0 27 -52 27h-9v9h226v-9h-17q-38 0 -78 -16.5t-69 -52.5l-159 -201l1 -4q49 -6 104 -42t99 -85q17 -19 41.5 -53t44 -58t46 -49.5 t61 -38.5t76.5 -13q45 0 76.5 28.5t31.5 69t-25 66.5t-67 29h-91v9h35q36 0 44.5 8t8.5 44v300q0 30 -30 30h-47v9h57q37 0 63.5 12.5t26.5 40.5v4h8v-85v-311q0 -36 9 -44t45 -8h35v-9h-125q29 -12 45.5 -37t16.5 -58q0 -53 -41.5 -90t-100.5 -37q-54 0 -101.5 15 t-80.5 37.5t-65 55.5t-52.5 61t-46 62.5t-42.5 52.5q-65 71 -100 71h-43v-232q0 -36 9 -44t45 -8h35v-9h-255zM786 820q20 0 32 -11.5t12 -32.5q0 -20 -11.5 -32.5t-32.5 -12.5q-20 0 -32.5 12t-12.5 33q0 20 12 32t33 12z" />
<glyph unicode="nu" horiz-adv-x="1147" d="M1043 221v288q0 39 -11.5 55t-45.5 16h-37v9h185v-9h-16q-34 0 -45.5 -16t-11.5 -55v-295q-42 -49 -82.5 -70.5t-100.5 -21.5q-90 0 -144.5 47.5t-54.5 124.5v233q0 36 -9 44.5t-45 8.5h-26v9h255v-9h-44q-36 0 -44.5 -8.5t-8.5 -44.5v-269q0 -58 31 -88t90 -30 q55 0 91 18t74 63zM18 0v9h35q36 0 44.5 8.5t8.5 44.5v440q0 14 -9 23t-24 9h-4l-59 -5l-1 6l77 16q32 6 53 25t21 48v4h8v-131q0 -87 -2 -105h7q3 27 16 65q22 64 71.5 102t111.5 38q80 0 124 -41t44 -110v-188q0 -146 75.5 -223t218.5 -77q78 0 148.5 36t103.5 104l8 -6 q-35 -71 -105 -107.5t-156 -36.5q-167 0 -269 85.5t-102 224.5v171q0 151 -98 151q-78 0 -129 -68t-51 -176v-274q0 -36 9 -44.5t45 -8.5h35v-9h-255z" />
<glyph unicode="ni" horiz-adv-x="917" d="M821 532v-260q0 -36 9 -44t45 -8h35v-9h-135q29 -12 45.5 -37t16.5 -58q0 -57 -44.5 -97t-107.5 -40q-100 0 -161.5 72.5t-61.5 191.5v186q0 75 -23.5 113t-74.5 38q-78 0 -129 -68t-51 -176v-274q0 -36 9 -44.5t45 -8.5h35v-9h-255v9h35q36 0 44.5 8.5t8.5 44.5v440 q0 14 -9 23t-24 9h-4l-59 -5l-1 6l77 16q32 7 53 25.5t21 47.5v4h8v-131q0 -87 -2 -105h7q3 27 16 65q22 64 71.5 102t111.5 38q80 0 124 -41t44 -110v-252q0 -84 46.5 -135t123.5 -51q49 0 83.5 31.5t34.5 76.5q0 40 -25 66t-67 29h-81v9h35q36 0 44.5 8t8.5 44v249 q0 30 -30 30h-47v9h57q37 0 63.5 12.5t26.5 40.5v4h8v-85zM781 820q20 0 32 -11.5t12 -32.5q0 -20 -11.5 -32.5t-32.5 -12.5q-20 0 -32.5 12t-12.5 33q0 20 12 32t33 12z" />
<glyph unicode="nk" horiz-adv-x="1250" d="M18 0v9h35q36 0 44.5 8.5t8.5 44.5v440q0 13 -9 22.5t-24 9.5h-4l-59 -5l-1 6l77 16q32 6 53 25t21 48v4h8v-131q0 -87 -2 -105h7q3 27 16 65q22 64 71.5 102t111.5 38q80 0 124 -41t44 -110v-252q0 -84 49.5 -135t130.5 -51q49 0 83.5 31.5t34.5 76.5q0 40 -25 66 t-67 29h-91v9h35q36 0 44.5 8t8.5 44v459q0 30 -30 30h-47v9h57q37 0 63.5 12.5t26.5 40.5v4h8v-85v-420q54 0 65 14l158 179q18 20 18 38q0 27 -52 27h-9v9h221v-9h-12q-84 0 -145 -69l-160 -181v-4q45 -10 77.5 -26.5t50.5 -33t29.5 -41.5t15.5 -43.5t8 -46.5 q8 -63 27 -92.5t61 -29.5q23 0 49 20l12 10l6 -7l-12 -10q-41 -37 -82 -37q-67 0 -97 40.5t-45 125.5q-5 29 -9.5 47t-16.5 41.5t-29 37t-46.5 23t-70.5 9.5h-12v-41q0 -33 14 -84q12 -45 12 -72q0 -57 -44.5 -97t-107.5 -40q-105 0 -169 72.5t-64 191.5v186q0 75 -23.5 113 t-74.5 38q-78 0 -129 -68t-51 -176v-274q0 -36 9 -44.5t45 -8.5h35v-9h-255z" />
<glyph unicode="eb" horiz-adv-x="1347" d="M41 298q0 135 83.5 217t220.5 82q119 0 192 -65.5t73 -172.5v-5q0 -12 -9 -20.5t-22 -8.5h-453v-3q0 -111 70 -196t198.5 -131.5t296.5 -46.5q157 0 277 48t185.5 135.5t65.5 201.5q0 111 -51 178.5t-134 67.5q-108 0 -179 -82.5t-71 -201.5v-113h-18q-23 0 -37.5 -28 t-14.5 -74v-34h-8v61v624q0 30 -30 30h-47v9h57q37 0 63.5 12.5t26.5 40.5v4h8v-85v-334q29 85 94.5 137t151.5 52q124 0 200 -77.5t76 -204.5q0 -173 -170 -279t-449 -106q-291 0 -468.5 101t-177.5 267zM127 343q66 1 195 3.5t197 3.5q8 0 8 9q0 99 -51 159.5t-135 60.5 q-92 0 -150.5 -64.5t-63.5 -171.5z" />
<glyph unicode="cb" horiz-adv-x="1297" d="M714 404q30 86 99 139.5t157 53.5q135 0 215.5 -83t80.5 -219q0 -164 -163.5 -264.5t-431.5 -100.5q-288 0 -464 109.5t-176 288.5q0 121 84 195t222 74q91 0 166 -64q7 -7 11 -20l7 2q-2 10 -3 29l-2 73h9l9 -289l-18 -1l-3 93q-2 63 -57.5 111.5t-127.5 48.5 q-101 0 -154.5 -63.5t-53.5 -184.5q0 -173 151.5 -278.5t399.5 -105.5q229 0 368.5 100.5t139.5 264.5q0 120 -55.5 193t-149.5 73q-109 0 -184.5 -83t-75.5 -201v-73h-18q-11 0 -19.5 -5t-16 -19t-12 -44t-4.5 -74v-34h-8v61v624q0 30 -30 30h-47v9h57q37 0 63.5 12.5 t26.5 40.5v4h8v-85v-338z" />
<glyph unicode="ns" horiz-adv-x="1081" d="M18 0v9h35q36 0 44.5 8.5t8.5 44.5v440q0 14 -9 23t-24 9h-4l-59 -5l-1 6l77 16q32 6 53 25t21 48v4h8v-131q0 -87 -2 -105h7q3 27 16 65q22 64 71.5 102t111.5 38q80 0 124 -41t44 -110v-235q0 -99 60.5 -164t162.5 -65t156 42t54 122q0 22 -9 40.5t-22 31t-36 24.5 t-41 19t-47 17q-33 11 -52.5 19t-45.5 22t-40.5 29t-25 37.5t-10.5 49.5q0 73 54 117.5t143 44.5q74 0 133 -44q11 -8 16 -23l7 2q-2 8 -4 32l-3 53h10l11 -236l-18 -1l-2 42q-3 65 -41.5 111t-108.5 46q-61 0 -94 -31.5t-33 -90.5q0 -17 8 -31.5t19 -24t32 -20.5t36.5 -17 t43.5 -16q25 -9 40 -15t38.5 -16.5t37.5 -20t31 -24t26 -30t15.5 -36t6.5 -44.5q0 -89 -78.5 -143.5t-206.5 -54.5q-58 0 -111 19.5t-89.5 50.5t-61.5 62t-39 62v271q0 151 -98 151q-78 0 -129 -68t-51 -176v-274q0 -36 9 -44.5t45 -8.5h35v-9h-255z" />
<glyph unicode="mn" horiz-adv-x="1538" d="M18 0v9h35q36 0 44.5 8.5t8.5 44.5v440q0 14 -9 23t-24 9h-4l-59 -5l-1 6l77 16q70 14 70 73v4h8v-131q0 -72 -2 -92h9q6 42 16 69q47 123 158 123q73 0 103 -35t30 -97v-60h4q1 22 10.5 52.5t14.5 40.5q52 99 148 99q67 0 108 -35t41 -98v-260q0 -81 53 -138.5 t127 -57.5q49 0 83.5 31.5t34.5 76.5q0 40 -25 66t-67 29h-91v9h35q36 0 44.5 8.5t8.5 44.5v229q0 14 -9 23t-24 9h-4l-59 -5l-1 6l77 16q32 6 53 25t21 48v4h8v-131q0 -87 -2 -105h7q3 27 16 65q22 64 71.5 102t111.5 38q80 0 124 -41t44 -110v-384q0 -36 8.5 -44.5 t44.5 -8.5h36v-9h-255v9h97v2q-9 9 -9 26v392q0 151 -98 151q-78 0 -129 -68t-51 -176v-63q0 -36 9 -44.5t45 -8.5h35v-9h-125q29 -12 45.5 -37t16.5 -58q0 -57 -44.5 -97t-107.5 -40q-96 0 -164.5 80.5t-68.5 193.5v202q0 59 -22 92t-58 33q-68 0 -110 -63.5t-42 -167.5 v-287q0 -36 9 -44.5t45 -8.5h26v-9h-216v9h67v2q-9 9 -9 26v418q0 59 -22 92t-58 33q-68 0 -110 -63.5t-42 -167.5v-287q0 -36 9 -44.5t45 -8.5h35v-9h-255z" />
<glyph unicode="sy" horiz-adv-x="1019" d="M28 245l18 1l2 -41q4 -87 56 -141t124 -54q68 0 109 40t41 106q0 19 -8.5 34.5t-20.5 26.5t-34 22.5t-38.5 18t-45.5 17.5q-34 12 -53.5 20t-47.5 23.5t-43 31t-26.5 39t-11.5 51.5q0 71 64 114t169 43q43 0 80.5 -4.5t82 -19t81.5 -38.5t74 -65.5t66 -97.5l95 -185 q14 -27 14 -40h7l145 371q7 19 7 31q0 31 -49 31h-46v9h172v-8h-6q-23 0 -32.5 -11t-21.5 -43q-3 -6 -4 -9l-226 -573q-23 -59 -59.5 -91t-75.5 -32q-51 0 -51 80q33 -8 56 -8q52 0 79.5 20.5t43.5 60.5l18 45q5 12 5 26q0 17 -7 30l-132 256q-68 133 -145 190t-171 57 q-73 0 -118 -32t-45 -85q0 -17 8.5 -31.5t19.5 -25t32.5 -21t37.5 -17t44 -16.5q35 -13 55.5 -21.5t50.5 -25t46 -33.5t28 -42.5t12 -56.5q0 -81 -61.5 -130.5t-161.5 -49.5q-80 0 -158 54q-18 13 -25 33l-4 -1q3 -13 4 -43l3 -63h-9z" />
<glyph unicode="hi" horiz-adv-x="912" d="M13 0v9h35q36 0 44.5 8.5t8.5 44.5v669q0 30 -30 30h-47v9h57q37 0 63.5 12.5t26.5 40.5v4h8v-175q0 -98 -18 -260h7q3 27 16 65q22 64 71.5 102t111.5 38q80 0 124 -40.5t44 -110.5v-252q0 -84 46.5 -135t123.5 -51q49 0 83.5 31.5t34.5 76.5q0 40 -25 66t-67 29h-81v9 h35q36 0 44.5 8t8.5 44v249q0 30 -30 30h-47v9h57q37 0 63.5 12.5t26.5 40.5v4h8v-85v-260q0 -36 9 -44t45 -8h35v-9h-135q29 -12 45.5 -37t16.5 -58q0 -57 -44.5 -97t-107.5 -40q-100 0 -161.5 72.5t-61.5 191.5v186q0 76 -23 113.5t-75 37.5q-78 0 -129 -68t-51 -176v-274 q0 -36 9 -44.5t45 -8.5h35v-9h-255zM776 820q20 0 32 -11.5t12 -32.5q0 -20 -11.5 -32.5t-32.5 -12.5q-20 0 -32.5 12t-12.5 33q0 20 12 32t33 12z" />
<glyph unicode="ui" horiz-adv-x="903" d="M89 143v378q0 30 -30 30h-47v9h57q37 0 64.5 12.5t27.5 40.5v4h8v-85v-380q0 -68 26.5 -105t71.5 -37q81 0 130 70t49 185v262q0 36 -9 44.5t-45 8.5h-17v9l155 4v-8q-4 -24 -4 -53v-318q0 -87 45.5 -143t119.5 -56q55 0 94 29.5t39 71.5q0 40 -25 66t-67 29h-91v9h35 q36 0 44.5 8t8.5 44v249q0 30 -30 30h-47v9h57q37 0 63.5 12.5t26.5 40.5v4h8v-85v-260q0 -36 9 -44t45 -8h35v-9h-125q29 -12 45.5 -37t16.5 -58q0 -52 -44.5 -88.5t-107.5 -36.5q-96 0 -155.5 72t-59.5 184h-4l-5 -51q-15 -103 -69.5 -153.5t-129.5 -50.5 q-76 0 -122.5 39.5t-46.5 111.5zM767 820q20 0 32 -11.5t12 -32.5q0 -20 -11.5 -32.5t-32.5 -12.5q-20 0 -32.5 12t-12.5 33q0 20 12 32t33 12z" />
<glyph unicode="uk" horiz-adv-x="1256" d="M375 589l155 4v-8q-4 -24 -4 -53v-318q0 -87 48.5 -149t116.5 -62q55 0 94 33t39 80q0 40 -25 66t-67 29h-91v9h35q36 0 44.5 8t8.5 44v459q0 30 -30 30h-47v9h57q37 0 63.5 12.5t26.5 40.5v4h8v-85v-420q74 0 85 14l158 179q18 20 18 38q0 27 -52 27h-9v9h221v-9h-12 q-84 0 -145 -69l-160 -181v-4q45 -10 77.5 -26.5t50.5 -33t29.5 -41.5t15.5 -43.5t8 -46.5q8 -63 27 -92.5t61 -29.5q26 0 41.5 17.5t15.5 46.5q0 38 -24.5 59t-62.5 26q0 15 39 15q23 -14 40 -41t17 -59q0 -40 -25.5 -64t-67.5 -24q-67 0 -97 40.5t-45 125.5q-5 29 -9.5 47 t-16.5 41.5t-29 37t-46.5 23t-70.5 9.5h-32v-41q0 -33 14 -84q12 -45 12 -72q0 -57 -44.5 -97t-107.5 -40q-89 0 -152 78.5t-63 189.5h-5l-4 -51q-15 -103 -69.5 -153.5t-129.5 -50.5q-76 0 -122.5 39.5t-46.5 111.5v378q0 30 -30 30h-47v9h57q37 0 64.5 12.5t27.5 40.5v4h8 v-85v-380q0 -68 26.5 -105t71.5 -37q81 0 130 70t49 185v262q0 36 -9 44.5t-45 8.5h-17v9z" />
<glyph unicode="un" horiz-adv-x="1260" d="M833 116q0 -57 -44.5 -97t-107.5 -40q-89 0 -152 78.5t-63 189.5h-5l-4 -51q-15 -103 -69.5 -153.5t-129.5 -50.5q-76 0 -122.5 39.5t-46.5 111.5v378q0 30 -30 30h-47v9h57q37 0 64.5 12.5t27.5 40.5v4h8v-85v-380q0 -68 26.5 -105t71.5 -37q81 0 130 70t49 185v262 q0 36 -9 44.5t-45 8.5h-17v9l155 4v-8q-4 -24 -4 -53v-318q0 -87 48.5 -149t116.5 -62q55 0 94 33t39 80q0 40 -25 66t-67 29h-91v9h35q36 0 44.5 8.5t8.5 44.5v229q0 14 -9 23t-24 9h-4l-59 -5l-1 6l77 16q32 6 53 25t21 48v4h8v-131q0 -87 -2 -105h7q3 27 16 65 q22 64 71.5 102t111.5 38q80 0 124 -41t44 -110v-384q0 -36 8.5 -44.5t44.5 -8.5h36v-9h-255v9h97v2q-9 9 -9 26v392q0 151 -98 151q-78 0 -129 -68t-51 -176v-63q0 -36 9 -44.5t45 -8.5h35v-9h-125q29 -12 45.5 -37t16.5 -58z" />
<glyph unicode="cy" horiz-adv-x="1107" d="M360 579q-108 0 -174 -73t-66 -193q0 -136 64 -219.5t169 -83.5q73 0 135 37t87 100l17 -7q-28 -72 -93.5 -110t-147.5 -38q-144 0 -232 84t-88 221q0 135 90.5 217.5t238.5 82.5q44 0 82 -4.5t84 -19t84.5 -38t76.5 -65.5t67 -98l95 -185q14 -27 14 -40h7l145 371 q7 19 7 31q0 31 -49 31h-46v9h172v-8h-6q-23 0 -33 -12.5t-25 -50.5l-226 -573q-23 -59 -59.5 -91t-75.5 -32q-51 0 -51 80q33 -8 56 -8q52 0 79.5 20.5t43.5 60.5l18 45q5 12 5 26q0 17 -7 30l-132 256q-68 132 -149 189.5t-177 57.5z" />
<glyph unicode="ksy" horiz-adv-x="1589" d="M842 579q-61 0 -94 -31.5t-33 -90.5q0 -17 8 -31.5t19.5 -24.5t33 -20.5t38 -17t43.5 -15.5q35 -12 56 -20.5t50 -24.5t45.5 -32.5t28.5 -42t12 -56.5q0 -83 -74 -138t-194 -55q-44 0 -87.5 9.5t-77.5 22.5t-71 36.5t-61.5 41.5t-55.5 48t-46 46t-41 44q-9 10 -14 15 q-65 71 -100 71h-43v-252q0 -36 9 -44t45 -8h35v-9h-255v9h35q36 0 44.5 8t8.5 44v670q0 30 -30 30h-47v9h57q37 0 63.5 12.5t26.5 40.5v4h8v-85v-420q54 0 65 14l158 179q18 20 18 38q0 27 -52 27h-9v9h226v-9h-17q-84 0 -145 -69l-160 -181v-4q49 -6 105 -40.5t104 -81.5 q7 -8 36.5 -37t42.5 -41.5t41 -37.5t47.5 -37t46 -27t52.5 -21t52 -6q80 0 129.5 46t49.5 113q0 19 -8.5 34.5t-20.5 26.5t-34 22t-39 17.5t-46 16.5q-33 11 -53 19t-47.5 23t-42.5 30t-26.5 38.5t-11.5 51.5q0 73 54 117.5t143 44.5q44 0 82 -4.5t84 -19t84.5 -38 t76.5 -65.5t67 -98l95 -185q14 -27 14 -40v-2l7 2l145 371q7 19 7 31q0 31 -49 31h-46v9h172v-8h-6q-23 0 -33 -12.5t-25 -50.5l-226 -573q-23 -59 -59.5 -91t-75.5 -32q-51 0 -51 80q33 -8 56 -8q52 0 79.5 20.5t43.5 60.5l18 45q5 12 5 26q0 17 -7 30l-132 256 q-68 132 -149 189.5t-177 57.5z" />
<glyph unicode="kn" horiz-adv-x="1274" d="M18 0v9h35q36 0 44.5 8t8.5 44v670q0 30 -30 30h-47v9h57q37 0 63.5 12.5t26.5 40.5v4h8v-85v-440q54 0 65 14l158 199q18 22 18 38q0 27 -52 27h-9v9h226v-9h-17q-38 0 -78 -16.5t-69 -52.5l-159 -201l1 -4q49 -6 104 -42t99 -85q18 -20 41 -53.5t41 -58t43 -49 t58.5 -38t75.5 -13.5q45 0 76.5 28.5t31.5 69t-25 66.5t-67 29h-91v9h35q36 0 44.5 8t8.5 44v281q0 14 -9 23t-24 9h-4l-59 -5l-1 6l77 16q32 6 53 25t21 48v4h8v-131q0 -87 -2 -105h7q3 27 16 65q22 64 71.5 102t111.5 38q80 0 124 -41t44 -110v-384q0 -36 8.5 -44.5 t44.5 -8.5h36v-9h-255v9h97v2q-9 9 -9 26v392q0 76 -23.5 113.5t-74.5 37.5q-78 0 -129 -68t-51 -176v-115q0 -33 14 -84q12 -45 12 -72q0 -53 -41.5 -90t-100.5 -37q-54 0 -101 15t-79 37.5t-62.5 55.5t-50 61.5t-44 62.5t-41.5 52q-65 71 -100 71h-43v-232q0 -36 9 -44 t45 -8h35v-9h-255z" />
<glyph unicode="ht" horiz-adv-x="1109" d="M1074 306q0 -135 -95 -231t-229 -96q-132 0 -212.5 73t-80.5 192v185q0 151 -98 151q-78 0 -129 -68t-51 -176v-274q0 -36 9 -44.5t45 -8.5h35v-9h-255v9h35q36 0 44.5 8.5t8.5 44.5v669q0 30 -30 30h-47v9h57q37 0 63.5 12.5t26.5 40.5v4h8v-175q0 -98 -18 -260h7 q3 27 16 65q22 64 71.5 102t111.5 38q80 0 124 -41t44 -110v-201q-9 -21 -9 -40q0 -89 65.5 -143t173.5 -54q107 0 189 66.5t104 167.5q-19 -36 -56 -58t-81 -22q-80 0 -129 39t-49 103v248h-131v27h75q41 0 71.5 32.5t41.5 63.5t11 47v117h10v-217q0 -36 -13 -42v-1h262 v-27h-249v-274q0 -44 27.5 -71t72.5 -27q56 0 95.5 37t39.5 89q0 48 -35 81.5t-85 33.5q-19 0 -32 12.5t-13 30.5h20q67 0 115 -46.5t48 -111.5z" />
<glyph unicode="nt" horiz-adv-x="1114" d="M1079 306q0 -89 -43.5 -164t-118 -119t-162.5 -44q-132 0 -212.5 73t-80.5 192v185q0 76 -23 113.5t-75 37.5q-78 0 -129 -68t-51 -176v-274q0 -36 9 -44.5t45 -8.5h35v-9h-255v9h35q36 0 44.5 8.5t8.5 44.5v440q0 14 -9 23t-24 9h-4l-59 -5l-1 6l77 16q32 6 53 25t21 48 v4h8v-131q0 -87 -2 -105h7q3 27 16 65q22 64 71.5 102t111.5 38q80 0 124 -41t44 -110v-201q-9 -21 -9 -40q0 -89 65.5 -143t173.5 -54q107 0 189 66.5t104 167.5q-19 -36 -56 -58t-81 -22q-80 0 -129 39t-49 103v248h-131v27h75q41 0 71.5 32.5t41.5 63.5t11 47v117h10 v-217q0 -36 -13 -42v-1h262v-27h-249v-274q0 -44 27.5 -71t72.5 -27q56 0 95.5 37t39.5 89q0 48 -35 81.5t-85 33.5q-19 0 -32 12.5t-13 30.5h20q67 0 115 -46.5t48 -111.5z" />
<glyph unicode="mt" horiz-adv-x="1378" d="M1343 306q0 -89 -43.5 -164t-118 -119t-162.5 -44q-132 0 -212.5 73t-80.5 192v211q0 59 -22 92t-58 33q-68 0 -110 -63.5t-42 -167.5v-287q0 -36 9 -44.5t45 -8.5h26v-9h-216v9h67v2q-9 9 -9 26v418q0 59 -22 92t-58 33q-68 0 -110 -63.5t-42 -167.5v-287q0 -36 9 -44.5 t45 -8.5h35v-9h-255v9h35q36 0 44.5 8.5t8.5 44.5v440q0 14 -9 23t-24 9h-4l-59 -5l-1 6l77 16q32 6 51 25t19 48v4h8v-131q0 -72 -2 -92h9q6 42 16 69q47 123 158 123q73 0 103 -35t30 -97v-60h4q1 22 10.5 52.5t14.5 40.5q26 49 61 74t87 25q67 0 108 -35t41 -98v-219 q-9 -21 -9 -40q0 -89 65.5 -143t173.5 -54q107 0 189 66.5t104 167.5q-19 -36 -56 -58t-81 -22q-80 0 -129 39t-49 103v248h-131v27h75q41 0 71.5 32.5t41.5 63.5t11 47v117h10v-217q0 -36 -13 -42v-1h262v-27h-249v-274q0 -44 27.5 -71t72.5 -27q56 0 95.5 37t39.5 89 q0 48 -35 81.5t-85 33.5q-19 0 -32 12.5t-13 30.5h20q67 0 115 -46.5t48 -111.5z" />
<glyph unicode="lt" horiz-adv-x="734" d="M82 244v487q0 30 -30 30h-47v9h57q37 0 63.5 12.5t26.5 40.5v4h8v-85v-497q-9 -21 -9 -40q0 -89 65.5 -143t173.5 -54q107 0 189 66.5t104 167.5q-19 -36 -56 -58t-81 -22q-80 0 -129 39t-49 103v248h-131v27h75q41 0 71.5 32.5t41.5 63.5t11 47v117h10v-217 q0 -36 -13 -42v-1h262v-27h-249v-274q0 -44 27.5 -71t72.5 -27q56 0 95.5 37t39.5 89q0 48 -35 81.5t-85 33.5q-19 0 -32 12.5t-13 30.5h20q67 0 115 -46.5t48 -111.5q0 -135 -95 -231t-229 -96q-132 0 -212.5 73t-80.5 192z" />
<glyph unicode="kt" horiz-adv-x="1145" d="M18 0v9h35q36 0 44.5 8t8.5 44v670q0 30 -30 30h-47v9h57q37 0 63.5 12.5t26.5 40.5v4h8v-85v-420q54 0 65 14l158 179q18 20 18 38q0 27 -52 27h-9v9h226v-9h-17q-84 0 -145 -69l-160 -181v-4q49 -6 105 -40.5t104 -81.5q8 -8 32 -32.5t36 -35.5l36 -33t40 -33.5 t40 -27.5t44 -24t44 -14t47 -6q120 0 200 61.5t100 165.5q-19 -37 -56.5 -60t-82.5 -23q-80 0 -129 39t-49 103v268h-131v27h75q32 0 57.5 19t39 45t20.5 47.5t7 31.5v117h10v-217q0 -36 -13 -42v-1h262v-27h-249v-294q0 -44 27.5 -71t72.5 -27q56 0 95.5 37t39.5 89 q0 48 -35 81.5t-85 33.5q-19 0 -32 12.5t-13 30.5h20q67 0 115 -46.5t48 -111.5q0 -138 -89 -222.5t-235 -84.5q-46 0 -90 9.5t-79 23t-72.5 37t-62 41.5t-55.5 48t-46 46t-41 44q-9 10 -13 14q-65 71 -100 71h-43v-252q0 -36 9 -44t45 -8h35v-9h-255z" />
<glyph unicode="it" horiz-adv-x="747" d="M95 244v277q0 30 -30 30h-45v9h55q37 0 63.5 12.5t26.5 40.5v4h8v-85v-287q-9 -21 -9 -40q0 -89 65.5 -143t173.5 -54q107 0 189 66.5t104 167.5q-19 -36 -56 -58t-81 -22q-80 0 -129 39t-49 103v248h-131v27h75q41 0 71.5 32.5t41.5 63.5t11 47v117h10v-217 q0 -36 -13 -42v-1h262v-27h-249v-274q0 -44 27.5 -71t72.5 -27q56 0 95.5 37t39.5 89q0 48 -35 81.5t-85 33.5q-19 0 -32 12.5t-13 30.5h20q67 0 115 -46.5t48 -111.5q0 -135 -95 -231t-229 -96q-132 0 -212.5 73t-80.5 192zM134 800q20 0 32 -11.5t12 -32.5 q0 -20 -11.5 -32.5t-32.5 -12.5q-20 0 -32.5 12t-12.5 33q0 20 12 32t33 12z" />
<glyph unicode="il" horiz-adv-x="697" d="M341 304v427q0 30 -30 30h-47v9h57q37 0 63.5 12.5t26.5 40.5v4h8v-85v-464q0 -44 27.5 -71t72.5 -27q56 0 95.5 37t39.5 89q0 48 -35 81.5t-85 33.5q-19 0 -32 12.5t-13 30.5h20q67 0 115 -46.5t48 -111.5q0 -89 -43.5 -164t-118 -119t-162.5 -44q-105 0 -179 69 t-74 166v307q0 30 -30 30h-45v9h55q37 0 63.5 12.5t26.5 40.5v4h8v-85v-317q-9 -21 -9 -40q0 -69 58 -118t141 -49q107 0 189 66.5t104 167.5q-19 -36 -56 -58t-81 -22q-80 0 -129 39t-49 103zM134 800q20 0 32 -11.5t12 -32.5q0 -20 -11.5 -32.5t-32.5 -12.5 q-20 0 -32.5 12t-12.5 33q0 20 12 32t33 12z" />
<glyph unicode="ll" horiz-adv-x="682" d="M326 304v427q0 30 -30 30h-47v9h57q37 0 63.5 12.5t26.5 40.5v4h8v-85v-464q0 -44 27.5 -71t72.5 -27q56 0 95.5 37t39.5 89q0 48 -35 81.5t-85 33.5q-19 0 -32 12.5t-13 30.5h20q67 0 115 -46.5t48 -111.5q0 -89 -43.5 -164t-118 -119t-162.5 -44q-105 0 -179 69 t-74 166v517q0 30 -30 30h-45v9h55q37 0 63.5 12.5t26.5 40.5v4h8v-85v-527q-9 -21 -9 -40q0 -69 58 -118t141 -49q107 0 189 66.5t104 167.5q-19 -36 -56 -58t-81 -22q-80 0 -129 39t-49 103z" />
<glyph unicode="tt" horiz-adv-x="793" d="M141 244v308h-131v27h75q41 0 71.5 32.5t41.5 63.5t11 47v117h10v-217q0 -36 -13 -42v-1h165q41 0 71.5 32.5t41.5 63.5t11 47v117h10v-217q0 -36 -13 -42v-1h262v-27h-249v-274q0 -44 27.5 -71t72.5 -27q56 0 95.5 37t39.5 89q0 48 -35 81.5t-85 33.5q-19 0 -32 12.5 t-13 30.5h20q67 0 115 -46.5t48 -111.5q0 -135 -95 -231t-229 -96q-132 0 -212.5 73t-80.5 192zM219 552v-307q-9 -21 -9 -40q0 -89 65.5 -143t173.5 -54q107 0 189 66.5t104 167.5q-19 -36 -56 -58t-81 -22q-80 0 -129 39t-49 103v248h-208z" />
<glyph unicode="et" horiz-adv-x="1127" d="M41 297q0 124 89 212t215 88q120 0 192.5 -65.5t72.5 -172.5v-5q0 -12 -8.5 -20.5t-21.5 -8.5h-1l-274 3q-31 0 -53 -20.5t-22 -49.5v-56q-18 0 -30.5 13t-12.5 31q0 43 34.5 73.5t83.5 30.5h214q8 0 8 9q0 99 -51 159.5t-135 60.5q-96 0 -155.5 -73t-59.5 -193 q0 -159 131.5 -255.5t346.5 -96.5q164 0 292.5 63.5t170.5 161.5q-21 -29 -55 -46.5t-73 -17.5q-80 0 -129 39t-49 103v288h-131v27h75q41 0 71.5 32.5t41.5 63.5t11 47v117h10v-217q0 -36 -13 -42v-1h262v-27h-249v-314q0 -44 27.5 -71t72.5 -27q56 0 95.5 37t39.5 89 q0 48 -35 81.5t-85 33.5q-19 0 -32 12.5t-13 30.5h20q67 0 115 -46.5t48 -111.5q0 -91 -67.5 -169t-183.5 -123t-252 -45q-163 0 -287.5 45.5t-192.5 129.5t-68 193z" />
<glyph unicode="Hi" horiz-adv-x="929" d="M18 0v9h35q35 0 44 12t9 50v577q0 38 -9 50t-44 12h-35v9h246v-9h-26q-35 0 -44.5 -12t-9.5 -50v-261h274v261q0 38 -9.5 50t-44.5 12h-26v9h247v-9h-36q-35 0 -44 -12t-9 -50v-499q0 -90 51.5 -145.5t134.5 -55.5q49 0 83.5 31.5t34.5 76.5q0 40 -25 66t-67 29h-91v9h35 q36 0 44.5 8t8.5 44v309q0 30 -30 30h-47v9h57q37 0 63.5 12.5t26.5 40.5v4h8v-85v-320q0 -36 9 -44t45 -8h35v-9h-125q29 -12 45.5 -37t16.5 -58q0 -57 -44.5 -97t-107.5 -40q-108 0 -173.5 75t-65.5 198v177h-274v-298q0 -38 9.5 -50t44.5 -12h26v-9h-246zM783 820 q20 0 32 -11.5t12 -32.5q0 -20 -11.5 -32.5t-32.5 -12.5q-20 0 -32.5 12t-12.5 33q0 20 12 32t33 12z" />
<glyph unicode="ct" horiz-adv-x="1127" d="M839 552v-314q0 -44 27.5 -71t72.5 -27q56 0 95.5 37t39.5 89q0 48 -35 81.5t-85 33.5q-19 0 -32 12.5t-13 30.5h20q67 0 115 -46.5t48 -111.5q0 -91 -67.5 -169t-183.5 -123t-252 -45q-163 0 -287.5 46t-192.5 129.5t-68 192.5q0 81 42.5 150.5t116 109.5t160.5 40 q108 0 183 -64q7 -7 11 -20l7 2q-2 10 -3 29l-2 73h9l9 -289l-18 -1l-3 93q-4 66 -64.5 113t-136.5 47q-100 0 -161 -73.5t-61 -193.5q0 -159 129.5 -255.5t344.5 -96.5q164 0 292.5 63.5t170.5 161.5q-21 -29 -55 -46.5t-73 -17.5q-80 0 -129 39t-49 103v288h-131v27h75 q41 0 71.5 32.5t41.5 63.5t11 47v117h10v-217q0 -36 -13 -42v-1h262v-27h-249z" />
<glyph unicode="ls" horiz-adv-x="742" d="M82 233v498q0 30 -30 30h-47v9h57q37 0 63.5 12.5t26.5 40.5v4h8v-85v-558q0 -84 66.5 -135.5t175.5 -51.5q104 0 168 43.5t64 115.5q0 19 -8.5 34.5t-20.5 26.5t-34 22t-39 17.5t-45 16.5q-34 11 -54 19t-47.5 22.5t-42.5 30t-26.5 39t-11.5 51.5q0 73 54 117.5 t143 44.5q74 0 133 -44q11 -8 16 -23l7 2q-2 8 -4 32l-3 53h10l11 -236l-18 -1l-2 42q-3 65 -41.5 111t-108.5 46q-61 0 -94 -31.5t-33 -90.5q0 -17 8 -31.5t19.5 -24.5t32.5 -20.5t37.5 -17t43.5 -15.5q36 -12 57 -20.5t50 -24.5t45.5 -32.5t28.5 -42t12 -56.5 q0 -87 -84.5 -140t-223.5 -53q-144 0 -231.5 70t-87.5 184z" />
<glyph unicode="is" horiz-adv-x="755" d="M95 233v288q0 30 -30 30h-45v9h55q37 0 63.5 12.5t26.5 40.5v4h8v-85v-348q0 -84 66.5 -135.5t175.5 -51.5q104 0 168 43.5t64 115.5q0 18 -8.5 34t-20.5 27t-34 22t-39 17.5t-45 16.5q-34 11 -54 19t-47.5 22.5t-42.5 30t-26.5 39t-11.5 51.5q0 73 54 117.5t143 44.5 q74 0 133 -44q11 -8 16 -23l7 2q-2 8 -4 32l-3 53h10l11 -236l-18 -1l-2 42q-3 65 -41.5 111t-108.5 46q-61 0 -94 -31.5t-33 -90.5q0 -17 8.5 -31.5t19.5 -24.5t32.5 -20.5t38 -17t44.5 -16.5q34 -12 55.5 -20t50.5 -24t45 -32.5t28 -42t12 -56.5q0 -87 -84.5 -140 t-223.5 -53q-144 0 -231.5 70t-87.5 184zM133 820q20 0 32 -11.5t12 -32.5q0 -20 -11.5 -32.5t-32.5 -12.5q-20 0 -32.5 12t-12.5 33q0 20 12 32t33 12z" />
<glyph unicode="Ts" horiz-adv-x="911" d="M102 0v9h76q36 0 44.5 8.5t8.5 44.5v637q-23 2 -41 2h-19q-75 0 -103 -22.5t-32 -92.5l-3 -41l-18 1l15 232l11 -1l-5 -58h152q49 0 193.5 -3.5t212.5 -3.5q93 0 150 40t57 105h11q0 -86 -64.5 -138.5t-169.5 -52.5q-29 0 -67 2.5t-63 5.5t-74.5 9.5t-64.5 8.5v-630 q0 -36 8.5 -44.5t44.5 -8.5h34v-9h-294zM825 532l-8 129l11 1l17 -281l-18 -1l-3 42q-5 67 -40.5 112t-104.5 45q-55 0 -88.5 -28t-33.5 -74q0 -24 10.5 -43.5t33 -35.5t42 -26.5t53.5 -25.5q33 -15 53 -25t47.5 -28.5t43 -37.5t27 -47t11.5 -61q0 -70 -60.5 -112.5 t-158.5 -42.5q-83 0 -143 49.5t-60 118.5v35q18 0 34 -14.5t16 -32.5q0 -58 44.5 -98t108.5 -40q65 0 104.5 33.5t39.5 87.5q0 27 -11 49t-35 39.5t-45 29t-56 26.5q-31 14 -50 23.5t-44.5 26.5t-39.5 34t-24.5 42t-10.5 54q0 64 53 103t139 39q41 0 69.5 -11.5t56.5 -32.5 q8 -6 14 -23z" />
<glyph unicode="At" horiz-adv-x="1167" d="M160 213h381l-170 417q-8 18 -8 40h-9q0 -12 -12 -40zM879 552v-314q0 -44 27.5 -71t72.5 -27q56 0 95.5 37t39.5 89q0 48 -35 81.5t-85 33.5q-19 0 -32 12.5t-13 30.5h20q67 0 115 -46.5t48 -111.5q0 -119 -83 -203t-201 -84q-101 0 -180 54.5t-119 151.5l-4 10h-393 l-54 -124q-5 -12 -5 -23q0 -17 13 -28t35 -11h49v-9h-182v9h16q28 0 55 62l281 648h77v-12q0 -36 9 -58l186 -456q35 -85 93.5 -135t137.5 -50q89 0 158.5 53.5t92.5 136.5q-20 -35 -56 -55.5t-79 -20.5q-80 0 -129 39t-49 103v288h-131v27h75q41 0 71.5 32.5t41.5 63.5 t11 47v117h10v-217q0 -36 -13 -42v-1h262v-27h-249z" />
<glyph unicode="cs" horiz-adv-x="1068" d="M641 -23q144 0 231.5 49t87.5 130q0 19 -8.5 34.5t-20.5 26.5t-34 22t-39 17.5t-45 16.5q-34 11 -54 19t-47.5 23t-42.5 30t-26.5 38.5t-11.5 51.5q0 73 54 117.5t143 44.5q74 0 133 -44q11 -8 16 -23l7 2q-2 8 -4 32l-3 53h10l11 -236l-18 -1l-2 42q-3 65 -41.5 111 t-108.5 46q-61 0 -94 -31.5t-33 -90.5q0 -17 8 -31.5t19.5 -24.5t32.5 -20.5t37.5 -17t44.5 -15.5q35 -12 56 -20.5t50 -24.5t45.5 -32.5t28.5 -42t12 -56.5q0 -96 -112 -154.5t-296 -58.5q-266 0 -428 101.5t-162 267.5q0 121 84 195t222 74q91 0 166 -64q7 -7 11 -20l7 2 q-2 10 -3 29l-2 73h9l9 -289l-18 -1l-3 93q-2 63 -57.5 111.5t-127.5 48.5q-101 0 -154.5 -63.5t-53.5 -184.5q0 -105 64 -186t181 -125t270 -44z" />
<glyph unicode="ak" horiz-adv-x="1256" d="M35 151q0 82 57 132.5t151 50.5q61 0 104.5 -33.5t43.5 -80.5q0 -19 -12.5 -32t-30.5 -13v47q0 39 -31 66.5t-74 27.5q-58 0 -93 -44.5t-35 -117.5q0 -61 39 -98t102 -37q81 0 138 60.5t57 146.5v202q0 68 -49 109.5t-129 41.5q-72 0 -112 -37.5t-43 -98.5l-3 -62h-18 l11 236h10l-3 -53q-2 -24 -4 -32l7 -2q5 15 16 23q59 44 138 44q116 0 186.5 -50t70.5 -132v-241q0 -71 48.5 -121t116.5 -50q54 0 88.5 32.5t34.5 80.5q0 40 -25 66t-67 29h-91v9h35q36 0 44.5 8t8.5 44v459q0 30 -30 30h-47v9h57q37 0 63.5 12.5t26.5 40.5v4h8v-85v-420 q81 0 92 14l158 179q18 20 18 38q0 27 -52 27h-9v9h221v-9h-12q-84 0 -145 -69l-160 -181v-4q45 -10 77.5 -26.5t50.5 -33t29.5 -41.5t15.5 -43.5t8 -46.5q8 -63 27 -92.5t61 -29.5q26 0 41.5 17.5t15.5 46.5q0 38 -24.5 59t-62.5 26q0 15 39 15q23 -14 40 -41t17 -59 q0 -40 -25.5 -64t-67.5 -24q-67 0 -97 40.5t-45 125.5q-5 29 -9.5 47t-16.5 41.5t-29 37t-46.5 23t-70.5 9.5h-39v-41q0 -33 14 -84q12 -45 12 -72q0 -58 -40 -97.5t-102 -39.5q-88 0 -150 58t-62 140h-5l-5 -23q-14 -56 -54 -94.5t-82 -53t-82 -14.5q-94 0 -151.5 43.5 t-57.5 115.5z" />
<glyph unicode="akt" horiz-adv-x="1761" d="M35 151q0 82 57 132.5t151 50.5q61 0 104.5 -33.5t43.5 -80.5q0 -19 -12.5 -32t-30.5 -13v47q0 39 -31 66.5t-74 27.5q-58 0 -93 -44.5t-35 -117.5q0 -61 39 -98t102 -37q81 0 138 60.5t57 146.5v202q0 68 -49 109.5t-129 41.5q-72 0 -112 -37.5t-43 -98.5l-3 -62h-18 l11 236h10l-3 -53q-2 -24 -4 -32l7 -2q5 15 16 23q59 44 138 44q116 0 186.5 -50t70.5 -132v-241q0 -71 48.5 -121t116.5 -50q54 0 88.5 32.5t34.5 80.5q0 40 -25 66t-67 29h-91v9h35q36 0 44.5 8t8.5 44v459q0 30 -30 30h-47v9h57q37 0 63.5 12.5t26.5 40.5v4h8v-85v-420 q54 0 65 14l158 179q18 20 18 38q0 27 -52 27h-9v9h226v-9h-17q-84 0 -145 -69l-160 -181v-4q49 -6 105 -40.5t104 -81.5l32 -32t36 -35.5t36 -33.5t40 -33.5t40 -27.5t44 -24t44 -14t47 -6q120 0 200 61.5t100 165.5q-19 -37 -56.5 -60t-82.5 -23q-80 0 -129 39t-49 103 v278h-131v27h75q41 0 71.5 32.5t41.5 63.5t11 47v117h10v-217q0 -36 -13 -42v-1h262v-27h-249v-304q0 -44 27.5 -71t72.5 -27q56 0 95.5 37t39.5 89q0 48 -35 81.5t-85 33.5q-19 0 -32 12.5t-13 30.5h20q67 0 115 -46.5t48 -111.5q0 -138 -89 -222.5t-235 -84.5 q-46 0 -90 9.5t-79 23t-72.5 37t-62 41.5t-55.5 48t-46 46t-41 44q-9 10 -13 14q-65 71 -100 71h-43v-41q0 -33 14 -84q12 -45 12 -72q0 -58 -40 -97.5t-102 -39.5q-88 0 -150 58t-62 140h-5l-5 -23q-14 -56 -54 -94.5t-82 -53t-82 -14.5q-94 0 -151.5 43.5t-57.5 115.5z " />
<glyph unicode="at" horiz-adv-x="1098" d="M529 415v-200q0 -93 60.5 -150t159.5 -57q102 0 183 51.5t109 132.5q-20 -32 -55 -51t-76 -19q-80 0 -129 39t-49 103v288h-121v27h65q41 0 71.5 32.5t41.5 63.5t11 47v117h10v-217q0 -36 -13 -42v-1h262v-27h-249v-314q0 -44 27.5 -71t72.5 -27q56 0 95.5 37t39.5 89 q0 48 -35 81.5t-85 33.5q-19 0 -32 12.5t-13 30.5h20q67 0 115 -46.5t48 -111.5q0 -78 -44 -144t-119 -104.5t-164 -38.5q-115 0 -187 62t-76 163h-4l-7 -50q-11 -43 -36.5 -75.5t-57.5 -50.5t-63.5 -27t-60.5 -9q-94 0 -151.5 43.5t-57.5 115.5q0 82 57 132.5t151 50.5 q61 0 104.5 -33.5t43.5 -80.5q0 -19 -12.5 -32t-30.5 -13v47q0 39 -31 66.5t-74 27.5q-58 0 -93 -44.5t-35 -117.5q0 -61 39 -98t102 -37q81 0 138 60.5t57 146.5v202q0 68 -49 109.5t-129 41.5q-72 0 -112 -37.5t-43 -98.5l-3 -62h-18l11 236h10l-3 -53q-2 -24 -4 -32l7 -2 q5 15 16 23q59 44 138 44q116 0 186.5 -50t70.5 -132z" />
<glyph unicode="Re" horiz-adv-x="1226" d="M935 388q-27 0 -46 -17.5t-19 -41.5v-57q-18 0 -30.5 13t-12.5 32q0 38 31.5 65.5t76.5 27.5h146q8 0 8 9q0 72 -43.5 116t-114.5 44q-89 0 -143.5 -56.5t-54.5 -149.5q0 -96 61.5 -164.5t147.5 -68.5q148 0 225 101l13 -12q-40 -52 -101 -79.5t-137 -27.5 q-120 0 -205.5 69t-85.5 166q0 99 83.5 169.5t200.5 70.5q106 0 170.5 -49t64.5 -129v-5q0 -12 -9 -20.5t-22 -8.5zM1196 88q-70 -61 -169 -98t-206 -37q-123 0 -243.5 53t-218.5 165l-21 25q-24 28 -36.5 41.5t-30.5 25.5t-34 12h-12v17h46q84 0 135.5 56.5t51.5 148.5 q0 84 -55 144t-132 60h-104v-1q17 -17 17 -52v-586q0 -36 9 -44.5t45 -8.5h58v-9h-278v9h35q36 0 44.5 8.5t8.5 44.5v595q0 36 -8.5 44.5t-44.5 8.5h-35v9h261q120 0 193 -61t73 -161q0 -86 -60 -146t-152 -70l-20 -1v-6q51 -5 108 -68q109 -120 224.5 -172t224.5 -52 q57 0 112.5 13t97 33t68 36.5t43.5 30.5z" />
<glyph unicode="Th" horiz-adv-x="1126" d="M102 0v9h76q36 0 44.5 8.5t8.5 44.5v639h-60q-75 0 -103 -22.5t-32 -92.5l-3 -41l-18 1l15 232l11 -1l-5 -58h132q196 0 424 19q22 1 43 5v33q0 23 -17 35t-43 12q-9 0 -15.5 6.5t-6.5 15.5h10q34 0 57 -18.5t23 -50.5v-31q72 15 115 53t43 92h11q0 -72 -45.5 -120 t-123.5 -63v-85q0 -113 -18 -230h7q3 27 16 65q22 64 71.5 102t111.5 38q80 0 124 -41t44 -110v-326q-9 -21 -9 -40q0 -28 17.5 -45t46.5 -17q26 0 42 16t16 43q0 38 -24.5 59t-62.5 26q0 15 39 15q23 -14 40 -41t17 -59q0 -39 -30 -63.5t-72 -24.5q-44 0 -71 37.5t-27 92.5 v310q0 76 -23.5 113.5t-74.5 37.5q-78 0 -129 -68t-51 -176v-274q0 -36 9 -44.5t45 -8.5h35v-9h-255v9h35q36 0 44.5 8.5t8.5 44.5v594q31 0 47.5 11.5t20.5 37.5q-26 -4 -55 -4h-269v-639q0 -36 8.5 -44.5t44.5 -8.5h34v-9h-294z" />
<glyph unicode="he" horiz-adv-x="1229" d="M960 388q-27 0 -46 -17.5t-19 -41.5v-57q-18 0 -30.5 13t-12.5 32q0 38 31.5 65.5t76.5 27.5h146q8 0 8 9q0 72 -43.5 116t-114.5 44q-89 0 -143.5 -56.5t-54.5 -149.5q0 -96 61.5 -164.5t147.5 -68.5q148 0 225 101l13 -12q-40 -52 -101 -79.5t-137 -27.5 q-120 0 -205.5 69t-85.5 166q0 99 83.5 169.5t200.5 70.5q106 0 170.5 -49t64.5 -129v-5q0 -12 -9 -20.5t-22 -8.5zM18 0v9h35q36 0 44.5 8.5t8.5 44.5v669q0 30 -30 30h-47v9h57q37 0 63.5 12.5t26.5 40.5v4h8v-175q0 -98 -18 -260h7q3 27 16 65q22 64 71.5 102t111.5 38 q80 0 124 -41t44 -110v-206q0 -116 95 -187t250 -71q57 0 112.5 13t97 33t68 36.5t43.5 30.5l5 -7q-70 -61 -169 -98t-206 -37q-168 0 -271 85.5t-103 224.5v166q0 76 -23.5 113.5t-74.5 37.5q-78 0 -129 -68t-51 -176v-274q0 -36 9 -44.5t45 -8.5h35v-9h-255z" />
<glyph unicode="The" horiz-adv-x="1688" d="M1419 388q-27 0 -46 -17.5t-19 -41.5v-57q-18 0 -30.5 13t-12.5 32q0 38 31.5 65.5t76.5 27.5h146q8 0 8 9q0 72 -43.5 116t-114.5 44q-89 0 -143.5 -56.5t-54.5 -149.5q0 -96 61.5 -164.5t147.5 -68.5q148 0 225 101l13 -12q-40 -52 -101 -79.5t-137 -27.5 q-120 0 -205.5 69t-85.5 166q0 99 83.5 169.5t200.5 70.5q106 0 170.5 -49t64.5 -129v-5q0 -12 -9 -20.5t-22 -8.5zM102 0v9h76q36 0 44.5 8.5t8.5 44.5v639h-60q-75 0 -103 -22.5t-32 -92.5l-3 -41l-18 1l15 232l11 -1l-5 -58h132q196 0 424 19q22 1 43 5v33q0 23 -17 35.5 t-43 12.5q-9 0 -15.5 6t-6.5 15h10q34 0 57 -18.5t23 -50.5v-31q72 15 115 53t43 92h11q0 -72 -45.5 -120t-123.5 -63v-85q0 -113 -18 -230h7q3 27 16 65q22 64 71.5 102t111.5 38q80 0 124 -41t44 -110v-206q0 -116 95 -187t250 -71q57 0 112.5 13t97 33t68 36.5t43.5 30.5 l5 -7q-70 -61 -169 -98t-206 -37q-168 0 -271 85.5t-103 224.5v166q0 76 -23.5 113.5t-74.5 37.5q-78 0 -129 -68t-51 -176v-274q0 -36 9 -44.5t45 -8.5h35v-9h-255v9h35q36 0 44.5 8.5t8.5 44.5v594q31 0 47.5 11.5t20.5 37.5q-26 -4 -55 -4h-269v-639q0 -36 8.5 -44.5 t44.5 -8.5h34v-9h-294z" />
<glyph unicode="Ke" horiz-adv-x="1230" d="M666 357q0 99 83.5 169.5t200.5 70.5q106 0 170.5 -49t64.5 -129v-5q0 -12 -9 -20.5t-22 -8.5l-204 3q-27 0 -46 -17.5t-19 -42.5v-56q-18 0 -30.5 13t-12.5 31q0 39 31.5 66.5t76.5 27.5h146q8 0 8 9q0 72 -43.5 116t-114.5 44q-89 0 -143.5 -56.5t-54.5 -149.5 q0 -95 61.5 -162.5t147.5 -67.5q82 0 150.5 44.5t68.5 98.5h18q0 -61 -74 -112.5t-163 -51.5q-120 0 -205.5 69t-85.5 166zM18 0v9h35q36 0 44.5 10t8.5 52v586q0 36 -8.5 44.5t-44.5 8.5h-35v9h229v-9h-9q-36 0 -45 -8t-9 -43v-227q54 0 65 14l158 199q18 22 18 38 q0 27 -52 27h-9v9h226v-9h-17q-38 0 -78 -16.5t-69 -52.5l-159 -201l1 -4q34 -8 64 -25.5t58.5 -48t47 -54.5t48.5 -67q24 -34 38.5 -54t40.5 -50.5t46.5 -49t51.5 -41t61.5 -34.5t70.5 -20.5t83 -8.5q54 0 108 13.5t95 33.5t67.5 36t42.5 29l5 -7q-61 -53 -157 -94.5 t-197 -41.5q-51 0 -97.5 11t-82.5 25.5t-73 42t-61 49.5t-54.5 59t-46.5 58.5t-43 60.5q-24 35 -37.5 53t-35 43t-37 37.5t-36.5 22t-42 9.5h-12v-352q0 -42 9 -52t45 -10h35v-9h-255z" />
<glyph unicode="ep" horiz-adv-x="1415" d="M41 297q0 124 89 212t215 88q120 0 192.5 -65.5t72.5 -172.5v-5q0 -12 -9 -20.5t-22 -8.5l-274 3q-31 0 -53 -20.5t-22 -48.5v-57q-18 0 -30.5 13t-12.5 32q0 42 34.5 72.5t83.5 30.5h214q8 0 8 9q0 99 -51 159.5t-135 60.5q-96 0 -155.5 -73t-59.5 -193 q0 -132 62.5 -213t163.5 -81q48 0 90.5 9t75.5 22.5t64 37t53 45.5t45 54.5t38.5 58t35.5 61.5v195q0 14 -9 23t-24 9h-4l-59 -5l-1 6l77 16q32 6 53 25t21 48v4h8v-131q0 -32 -5 -77h6q25 41 49.5 70t57.5 55t75.5 39t93.5 13q126 0 203.5 -83t77.5 -219q0 -125 -87.5 -214 t-211.5 -89q-82 0 -140 52t-58 126q0 70 53.5 119t129.5 49h20q0 -18 -13 -30.5t-32 -12.5q-63 0 -101.5 -34.5t-38.5 -90.5q0 -66 52.5 -113t127.5 -47q95 0 153.5 83.5t58.5 219.5q0 106 -55.5 181t-134.5 75q-62 0 -113.5 -23t-84.5 -57t-67 -86v-501q0 -36 9 -44.5 t45 -8.5h35v-9h-255v9h35q36 0 44.5 8.5t8.5 44.5v369q-29 -50 -52 -84t-60 -74t-76.5 -64t-96 -40.5t-122.5 -16.5q-138 0 -222 84t-84 221z" />
<glyph unicode="&#x7a;a" horiz-adv-x="1035" d="M875 384v64q0 64 -29 98t-84 34q-72 0 -114.5 -38.5t-45.5 -98.5l-3 -22h-18l11 196h10l-3 -53q-2 -24 -4 -32l7 -2q5 15 16 23q59 44 143 44q95 0 144.5 -41.5t49.5 -120.5v-284q0 -31 5.5 -41t27.5 -10q3 0 9.5 0.5t10.5 0.5l17 1l1 -9q-62 -6 -111 -22v8 q0 25 -9.5 82.5t-9.5 72.5h-10q-40 -162 -168 -162q-85 0 -137 39.5t-52 104.5q0 76 73.5 122t194.5 46h78zM875 366h-73q-84 0 -135 -41.5t-51 -108.5q0 -53 31.5 -85t82.5 -32q58 0 101.5 53.5t43.5 153.5v60zM0 0v9q24 0 72 78l259 420q13 23 33.5 40t38.5 22v3h-193 q-76 0 -108.5 -23t-36.5 -94l-1 -20l-7 1l11 212l7 -1l-3 -67q9 9 26 9h389v-9q-21 0 -69 -78l-259 -418q-33 -52 -48 -63v-3h38q74 0 281.5 -39.5t307.5 -39.5q186 0 262 84l6 -6q-142 -157 -327 -157q-78 0 -179 35t-194 70t-153 35h-153z" />
<glyph unicode="&#x7a;o" horiz-adv-x="1120" d="M805 102q-124 0 -200 68t-76 180q0 102 81 174.5t195 72.5q123 0 198.5 -68t75.5 -179q0 -103 -80.5 -175.5t-193.5 -72.5zM808 120q83 0 133.5 58t50.5 153q0 103 -56 175.5t-135 72.5q-83 0 -134 -58t-51 -153q0 -103 56.5 -175.5t135.5 -72.5zM0 0v9q24 0 72 78 l259 420q13 23 33.5 40t38.5 22v3h-193q-76 0 -108.5 -23t-36.5 -94l-1 -20l-7 1l11 212l7 -1l-3 -67q9 9 26 9h389v-9q-21 0 -69 -78l-259 -418q-33 -52 -48 -63v-3h38q73 0 310.5 -34.5t338.5 -34.5q186 0 262 84l6 -6q-142 -157 -327 -157q-78 0 -194 32.5t-224 65 t-168 32.5h-153z" />
<glyph unicode="&#x7a;e" horiz-adv-x="1100" d="M819 388q-27 0 -46 -17.5t-19 -42.5v-56q-18 0 -30.5 13t-12.5 31q0 39 31.5 66.5t76.5 27.5h146q8 0 8 9q0 72 -43.5 116t-114.5 44q-89 0 -143.5 -59.5t-54.5 -156.5q0 -101 61.5 -172t147.5 -71q73 0 131 26.5t95 74.5l12 -12q-85 -107 -238 -107q-120 0 -205.5 72 t-85.5 173q0 103 83.5 176.5t200.5 73.5q106 0 170.5 -49t64.5 -129v-5q0 -12 -9 -20.5t-22 -8.5zM0 0v9q24 0 72 78l259 420q13 23 33.5 40t38.5 22v3h-193q-76 0 -108.5 -23t-36.5 -94l-1 -20l-7 1l11 212l7 -1l-3 -67q9 9 26 9h389v-9q-21 0 -69 -78l-259 -418 q-33 -52 -48 -63v-3h38q73 0 310.5 -34.5t338.5 -34.5q186 0 262 84l6 -6q-142 -157 -327 -157q-78 0 -194 32.5t-224 65t-168 32.5h-153z" />
<glyph unicode="&#x7a;i" horiz-adv-x="975" d="M0 0v9q24 0 72 78l259 420q12 23 32.5 40t39.5 22v3h-193q-77 0 -109 -23t-36 -94l-2 -20l-6 1l11 212l7 -1l-3 -67q9 9 26 9h389v-9q-21 0 -69 -78l-259 -418q-33 -52 -48 -63v-3h37q55 0 223.5 -24.5t243.5 -24.5q126 0 211.5 57.5t107.5 155.5q-19 -36 -56 -58 t-81 -22q-82 0 -132.5 40.5t-50.5 106.5v272q0 30 -30 30h-47v9h57q37 0 63.5 12.5t26.5 40.5v4h8v-85v-309q0 -46 29 -74.5t76 -28.5q56 0 95.5 37t39.5 89q0 48 -35 81.5t-85 33.5q-19 0 -32 12.5t-13 30.5h20q67 0 115 -46.5t48 -111.5q0 -156 -103 -251t-271 -95 q-59 0 -142 25t-160.5 50t-122.5 25h-151zM652 800q20 0 32 -11.5t12 -32.5q0 -20 -11.5 -32.5t-32.5 -12.5q-20 0 -32.5 12t-12.5 33q0 20 12 32t33 12z" />
<glyph unicode="&#x7a;u" horiz-adv-x="1076" d="M548 589h245v-9h-44q-36 0 -44.5 -8.5t-8.5 -44.5v-289q0 -58 31 -88t90 -30q43 0 75 12t49 26.5t41 42.5v308q0 39 -11.5 55t-45.5 16h-37v9h175v-9h-16q-21 0 -34 -17t-13 -44v-325q-26 -31 -44.5 -47t-55 -30.5t-83.5 -14.5q-90 0 -144.5 47.5t-54.5 124.5v253 q0 36 -9 44.5t-45 8.5h-16v9zM0 0v9q24 0 72 78l259 420q13 23 33.5 40t38.5 22v3h-193q-76 0 -108.5 -23t-36.5 -94l-1 -20l-7 1l11 212l7 -1l-3 -67q9 9 26 9h389v-9q-21 0 -69 -78l-259 -418q-33 -52 -48 -63v-3h33q75 0 304 -34.5t320 -34.5q186 0 262 84l6 -6 q-142 -157 -327 -157q-71 0 -181 32.5t-215 65t-165 32.5h-148z" />
<glyph unicode="&#x7a;n" horiz-adv-x="1174" d="M0 0v9q24 0 72 78l259 420q12 23 32.5 40t39.5 22v3h-193q-77 0 -109 -23t-36 -94l-2 -20l-6 1l11 212l7 -1l-3 -67q9 9 26 9h389v-9q-21 0 -69 -78l-259 -418q-33 -52 -48 -63v-3h37q55 0 223.5 -24.5t243.5 -24.5q139 0 196 84l5 -6q-107 -157 -245 -157q-47 0 -109 17 t-112 38t-106.5 38t-92.5 17h-151zM525 100v9h35q36 0 44.5 8.5t8.5 44.5v340q0 14 -9 23t-24 9h-4l-59 -5l-1 6l77 16q32 6 53 25t21 48v4h8v-131q0 -87 -2 -105h7q3 27 16 65q22 64 71.5 102t111.5 38q80 0 124 -41t44 -110v-326q-9 -21 -9 -40q0 -28 17.5 -45t46.5 -17 q26 0 42 16t16 43q0 38 -24.5 59t-62.5 26q0 15 39 15q23 -14 40 -41t17 -59q0 -40 -25.5 -64t-66.5 -24q-45 0 -76.5 38t-31.5 92v310q0 151 -98 151q-78 0 -129 -68t-51 -176v-174q0 -36 9 -44.5t45 -8.5h35v-9h-255z" />
<glyph unicode="Zo" d="M0 0v9q13 0 33.5 20t38.5 58l262 550q11 23 31.5 39.5t39.5 21.5v3h-195q-77 0 -109 -22.5t-36 -93.5l-1 -20l-7 1l11 212l7 -1l-3 -67q9 9 26 9h389v-9q-11 0 -30.5 -19.5t-38.5 -58.5l-262 -548q-21 -43 -48 -63v-3h36q74 0 306.5 -34.5t329.5 -34.5q181 0 257 84l6 -6 q-142 -157 -322 -157q-76 0 -188.5 32.5t-218.5 65t-166 32.5h-148zM765 102q-124 0 -200 68t-76 180q0 102 81 174.5t195 72.5q123 0 198.5 -68t75.5 -179q0 -103 -80.5 -175.5t-193.5 -72.5zM768 120q83 0 133.5 58t50.5 153q0 103 -56 175.5t-135 72.5q-83 0 -134 -58 t-51 -153q0 -103 56.5 -175.5t135.5 -72.5z" />
<glyph unicode="Za" horiz-adv-x="995" d="M835 398v50q0 64 -29 98t-84 34q-72 0 -113.5 -38t-46.5 -99l-1 -12h-20l11 186h10l-3 -53q-2 -24 -4 -32l7 -2q5 15 16 23q59 44 143 44q95 0 144.5 -41.5t49.5 -120.5v-254q0 -31 5.5 -41t27.5 -10l20 1l17 1l1 -9q-62 -6 -111 -22v8q0 29 -11 90q-7 44 -8 65h-10 q-40 -162 -168 -162q-85 0 -137 38t-52 100q0 71 73.5 114.5t194.5 43.5h78zM835 380h-73q-84 0 -135 -38.5t-51 -101.5q0 -50 31.5 -80.5t82.5 -30.5q58 0 101.5 53.5t43.5 153.5v44zM0 0v9q13 0 33.5 20t38.5 58l262 550q11 23 31.5 39.5t39.5 21.5v3h-195 q-77 0 -109 -22.5t-36 -93.5l-1 -20l-7 1l11 212l7 -1l-3 -67q9 9 26 9h389v-9q-11 0 -30.5 -19.5t-38.5 -58.5l-262 -548q-21 -43 -48 -63v-3h36q74 0 275 -34.5t298 -34.5q176 0 252 84l6 -6q-77 -85 -154 -121t-163 -36q-60 0 -138.5 20.5t-141 44.5t-134 44.5 t-119.5 20.5h-125z" />
<glyph unicode="Ze" horiz-adv-x="1078" d="M785 388q-27 0 -46 -17.5t-19 -42.5v-56q-18 0 -30.5 13t-12.5 31q0 39 31.5 66.5t76.5 27.5h146q8 0 8 9q0 72 -43.5 116t-114.5 44q-89 0 -143.5 -59.5t-54.5 -156.5q0 -101 61.5 -172t147.5 -71q73 0 131 26.5t95 74.5l12 -12q-85 -107 -238 -107q-120 0 -205.5 72 t-85.5 173q0 103 83.5 176.5t200.5 73.5q106 0 170.5 -49t64.5 -129v-5q0 -12 -9 -20.5t-22 -8.5zM0 0v9q13 0 33.5 20t38.5 58l262 550q11 23 31.5 39.5t39.5 21.5v3h-195q-77 0 -109 -22.5t-36 -93.5l-1 -20l-7 1l11 212l7 -1l-3 -67q9 9 26 9h389v-9q-11 0 -30.5 -19.5 t-38.5 -58.5l-262 -548q-21 -43 -48 -63v-3h36q74 0 306.5 -34.5t329.5 -34.5q181 0 257 84l6 -6q-142 -157 -322 -157q-76 0 -188.5 32.5t-218.5 65t-166 32.5h-148z" />
<glyph unicode="Zu" horiz-adv-x="1012" d="M484 589h245v-9h-44q-36 0 -44.5 -8.5t-8.5 -44.5v-289q0 -58 31 -88t90 -30q43 0 75 12t49 26.5t41 42.5v308q0 39 -11.5 55t-45.5 16h-37v9h175v-9h-16q-21 0 -34 -17t-13 -44v-325q-26 -31 -44.5 -47t-55 -30.5t-83.5 -14.5q-90 0 -144.5 47.5t-54.5 124.5v253 q0 36 -9 44.5t-45 8.5h-16v9zM0 0v9q13 0 33.5 20t38.5 58l262 550q11 23 32 40t40 22v3h-196q-76 0 -108.5 -23t-36.5 -94l-1 -20l-7 1l11 212l7 -1l-3 -67q9 9 26 9h389v-9q-11 0 -30.5 -19.5t-38.5 -58.5l-262 -548q-21 -43 -48 -63v-3h36q74 0 290 -34.5t313 -34.5 q176 0 252 84l6 -6q-142 -157 -317 -157q-76 0 -186 32.5t-213.5 65t-163.5 32.5h-125z" />
<glyph unicode="&#x7a;&#x7a;" horiz-adv-x="971" d="M0 0v9q24 0 72 78l259 420q12 22 32.5 39t39.5 22v3h-193q-77 0 -109 -22.5t-36 -93.5l-2 -20l-6 1l11 212l7 -1l-3 -67q9 9 26 9h389v-9q-21 0 -69 -78l-259 -418q-33 -52 -48 -63v-3h37q55 0 283.5 -24.5t303.5 -24.5q139 0 196 84l5 -6q-107 -157 -245 -157 q-59 0 -171 27.5t-218 55t-151 27.5h-151zM492 111v9q41 0 89 78l190 309q14 22 34 39t38 22v3h-143q-77 0 -109 -22.5t-36 -93.5l-1 -20l-7 1l11 212l7 -1l-3 -67q9 9 26 9h339v-9q-21 0 -69 -78l-190 -307q-32 -51 -49 -63v-3h164q75 0 106 21.5t35 87.5l2 37l10 -1 l-9 -153q-10 -10 -24 -10h-411z" />
<glyph unicode="Le" horiz-adv-x="930" d="M371 357q0 99 83.5 169.5t200.5 70.5q106 0 170.5 -49t64.5 -129v-5q0 -12 -9 -20.5t-22 -8.5l-204 3q-27 0 -46 -17.5t-19 -42.5v-56q-18 0 -30.5 13t-12.5 31q0 39 31.5 66.5t76.5 27.5h146q8 0 8 9q0 72 -43.5 116t-114.5 44q-89 0 -143.5 -56.5t-54.5 -149.5 q0 -96 61.5 -164.5t147.5 -68.5q73 0 131 26.5t95 74.5l12 -12q-85 -107 -238 -107q-120 0 -205.5 69t-85.5 166zM18 40v9h35q35 0 44 11.5t9 48.5v549q0 36 -8.5 44t-44.5 8h-35v9h255v-9h-35q-36 0 -45 -8t-9 -44v-547q0 -30 -22 -52v-1h54q55 0 223 -31t243 -31 q140 0 197 84l4 -6q-106 -156 -245 -156q-47 0 -108.5 19t-111.5 42t-106.5 42t-92.5 19h-201z" />
<glyph unicode="Lo" horiz-adv-x="960" d="M645 122q-124 0 -200 65.5t-76 172.5q0 98 81 167.5t195 69.5q123 0 198.5 -65t75.5 -172q0 -99 -80.5 -168.5t-193.5 -69.5zM648 140q83 0 133.5 55.5t50.5 145.5q0 99 -56 168.5t-135 69.5q-83 0 -134 -55.5t-51 -145.5q0 -99 56.5 -168.5t135.5 -69.5zM18 40v9h35 q35 0 44 11.5t9 48.5v549q0 36 -8.5 44t-44.5 8h-35v9h255v-9h-35q-36 0 -45 -8t-9 -44v-547q0 -30 -22 -52v-1h54q55 0 223 -31t243 -31q140 0 197 84l4 -6q-106 -156 -245 -156q-47 0 -108.5 19t-111.5 42t-106.5 42t-92.5 19h-201z" />
<glyph unicode="i&#x142;" horiz-adv-x="707" d="M95 214v307q0 30 -30 30h-45v9h55q37 0 63.5 12.5t26.5 40.5v4h8v-85v-317q-9 -21 -9 -40q0 -69 58 -118t141 -49q107 0 189 66.5t104 167.5q-19 -36 -56 -58t-81 -22q-80 0 -129 39t-49 103v135l-74 -55l-17 21l91 68v258q0 30 -30 30h-47v9h57q37 0 63.5 12.5 t26.5 40.5v4h8v-85v-211l186 139l16 -21l-202 -151v-220q0 -44 27.5 -71t72.5 -27q56 0 95.5 37t39.5 89q0 48 -35 81.5t-85 33.5q-19 0 -32 12.5t-13 30.5h20q67 0 115 -46.5t48 -111.5q0 -89 -43.5 -164t-118 -119t-162.5 -44q-105 0 -179 69t-74 166zM134 800 q20 0 32 -11.5t12 -32.5q0 -20 -11.5 -32.5t-32.5 -12.5q-20 0 -32.5 12t-12.5 33q0 20 12 32t33 12z" />
<glyph unicode="&#x142;&#x142;" horiz-adv-x="743" d="M131 214v116l-97 -73l-17 21l114 85v368q0 30 -30 30h-45v9h55q37 0 63.5 12.5t26.5 40.5v4h8v-85v-321l168 126v184q0 30 -30 30h-47v9h57q37 0 63.5 12.5t26.5 40.5v4h8v-85v-137l145 108l16 -21l-161 -120v-294q0 -44 27.5 -71t72.5 -27q56 0 95.5 37t39.5 89 q0 48 -35 81.5t-85 33.5q-19 0 -32 12.5t-13 30.5h20q67 0 115 -46.5t48 -111.5q0 -135 -95 -231t-229 -96q-105 0 -179 69t-74 166zM377 304v209l-168 -125v-173q-9 -21 -9 -40q0 -69 58 -118t141 -49q107 0 189 66.5t104 167.5q-19 -36 -56 -58t-81 -22q-80 0 -129 39 t-49 103z" />
<glyph unicode="e&#x142;" horiz-adv-x="1127" d="M41 297q0 124 89 212t215 88q120 0 192.5 -65.5t72.5 -172.5v-5q0 -12 -8.5 -20.5t-21.5 -8.5h-1l-274 3q-31 0 -53 -20.5t-22 -49.5v-56q-18 0 -30.5 13t-12.5 31q0 43 34.5 73.5t83.5 30.5h214q8 0 8 9q0 99 -51 159.5t-135 60.5q-96 0 -155.5 -73t-59.5 -193 q0 -159 131.5 -255.5t346.5 -96.5q164 0 292.5 63.5t170.5 161.5q-21 -29 -55 -46.5t-73 -17.5q-80 0 -129 39t-49 103v175l-74 -55l-17 21l91 68v258q0 30 -30 30h-47v9h57q37 0 63.5 12.5t26.5 40.5v4h8v-85v-211l186 139l16 -21l-202 -151v-260q0 -44 27.5 -71t72.5 -27 q56 0 95.5 37t39.5 89q0 48 -35 81.5t-85 33.5q-19 0 -32 12.5t-13 30.5h20q67 0 115 -46.5t48 -111.5q0 -91 -67.5 -169t-183.5 -123t-252 -45q-163 0 -287.5 45.5t-192.5 129.5t-68 193z" />
<glyph unicode="Ak" horiz-adv-x="1381" d="M1278 -11q-67 0 -97 40.5t-45 125.5q-5 29 -9.5 47t-16.5 41.5t-29 37t-46.5 23t-70.5 9.5h-39v-41q0 -33 14 -84q12 -45 12 -72q0 -58 -36.5 -93.5t-96.5 -35.5q-36 0 -70.5 9.5t-71.5 31t-70 64.5t-58 103h-396l-54 -124q-5 -12 -5 -23q0 -17 13 -28t35 -11h49v-9h-182 v9h16q17 0 29.5 15.5t25.5 46.5l281 648h77v-12q0 -36 9 -58l182 -446q41 -101 84 -149.5t108 -48.5q55 0 88.5 30.5t33.5 80.5q0 40 -25 66t-67 29h-91v9h35q36 0 44.5 8t8.5 44v459q0 30 -30 30h-47v9h57q37 0 63.5 12.5t26.5 40.5v4h8v-85v-420q81 0 92 14l158 179 q18 20 18 38q0 27 -52 27h-9v9h221v-9h-12q-84 0 -145 -69l-160 -181v-4q45 -10 77.5 -26.5t50.5 -33t29.5 -41.5t15.5 -43.5t8 -46.5q8 -63 27 -92.5t61 -29.5q26 0 41.5 17.5t15.5 46.5q0 38 -24.5 59t-62.5 26q0 15 39 15q23 -14 40 -41t17 -59q0 -40 -25.5 -64 t-67.5 -24zM160 213h381l-170 417q-8 18 -8 40h-9q0 -12 -12 -40z" />
<glyph unicode="Akt" horiz-adv-x="1886" d="M160 213h381l-170 417q-8 18 -8 40h-9q0 -12 -12 -40zM8 0v9h16q17 0 29.5 15.5t25.5 46.5l281 648h77v-12q0 -36 9 -58l182 -446q41 -101 84 -149.5t108 -48.5q55 0 88.5 30.5t33.5 80.5q0 40 -25 66t-67 29h-91v9h35q36 0 44.5 8t8.5 44v459q0 30 -30 30h-47v9h57 q37 0 63.5 12.5t26.5 40.5v4h8v-85v-420q54 0 65 14l158 179q18 20 18 38q0 27 -52 27h-9v9h226v-9h-17q-84 0 -145 -69l-160 -181v-4q49 -6 105 -40.5t104 -81.5l32 -32t36 -35.5t36 -33.5t40 -33.5t40 -27.5t44 -24t44 -14t47 -6q120 0 200 61.5t100 165.5 q-19 -37 -56.5 -60t-82.5 -23q-80 0 -129 39t-49 103v278h-131v27h75q41 0 71.5 32.5t41.5 63.5t11 47v117h10v-217q0 -36 -13 -42v-1h262v-27h-249v-304q0 -44 27.5 -71t72.5 -27q56 0 95.5 37t39.5 89q0 48 -35 81.5t-85 33.5q-19 0 -32 12.5t-13 30.5h20q67 0 115 -46.5 t48 -111.5q0 -138 -89 -222.5t-235 -84.5q-46 0 -90 9.5t-79 23t-72.5 37t-62 41.5t-55.5 48t-46 46t-41 44q-9 10 -13 14q-65 71 -100 71h-43v-41q0 -33 14 -84q12 -45 12 -72q0 -58 -36.5 -93.5t-96.5 -35.5q-36 0 -70.5 9.5t-71.5 31t-70 64.5t-58 103h-396l-54 -124 q-5 -12 -5 -23q0 -17 13 -28t35 -11h49v-9h-182z" />
<glyph unicode="lit" horiz-adv-x="1127" d="M1092 136q0 -60 -45 -102t-108 -42q-80 0 -129 39t-49 103v418h-211v27h155q41 0 71.5 32.5t41.5 63.5t11 47v117h10v-217q0 -36 -13 -42v-1h262v-27h-249v-444q0 -44 27.5 -71t72.5 -27q56 0 95.5 37t39.5 89q0 48 -35 81.5t-85 33.5q-19 0 -32 12.5t-13 30.5h20 q67 0 115 -46.5t48 -111.5zM328 304v217q0 30 -30 30h-43v9h53q37 0 63.5 12.5t26.5 40.5v4h8v-85v-254q0 -44 27.5 -71t72.5 -27q56 0 95.5 37t39.5 89q0 29 -22 49.5t-54 20.5q-14 0 -23.5 9.5t-9.5 23.5h15q46 0 79 -30.5t33 -72.5q0 -89 -43.5 -164t-118 -119 t-162.5 -44q-105 0 -179 69t-74 166v517q0 30 -30 30h-47v9h57q37 0 63.5 12.5t26.5 40.5v4h8v-85v-527q-9 -21 -9 -40q0 -69 58 -118t141 -49q107 0 189 66.5t104 167.5q-19 -36 -56 -58t-81 -22q-80 0 -129 39t-49 103zM367 820q20 0 32 -11.5t12 -32.5q0 -20 -11.5 -32.5 t-32.5 -12.5q-20 0 -32.5 12t-12.5 33q0 20 12 32t33 12z" />
<glyph unicode="An" horiz-adv-x="1373" d="M8 0v9h16q17 0 29.5 15.5t25.5 46.5l281 648h77v-12q0 -36 9 -58l182 -446q41 -101 84 -149.5t108 -48.5q52 0 84.5 30.5t32.5 80.5q0 40 -25 66t-67 29h-91v9h35q36 0 44.5 8t8.5 44v230q0 14 -9 23t-24 9h-4l-59 -5l-1 6l77 16q32 6 53 25t21 48v4h8v-131 q0 -87 -2 -105h7q3 27 16 65q22 64 71.5 102t111.5 38q80 0 124 -41t44 -110v-384q0 -36 8.5 -44.5t44.5 -8.5h36v-9h-255v9h97v2q-9 9 -9 26v392q0 76 -23.5 113.5t-74.5 37.5q-78 0 -129 -68t-51 -176v-64q0 -33 14 -84q12 -45 12 -72q0 -58 -35.5 -93.5t-92.5 -35.5 q-36 0 -70.5 9.5t-71.5 31t-70 64.5t-58 103h-396l-54 -124q-5 -12 -5 -23q0 -17 13 -28t35 -11h49v-9h-182zM160 213h381l-170 417q-8 18 -8 40h-9q0 -12 -12 -40z" />
<glyph unicode="Am" horiz-adv-x="1628" d="M8 0v9h16q17 0 29.5 15.5t25.5 46.5l281 648h77v-12q0 -36 9 -58l182 -446q41 -101 84 -149.5t108 -48.5q52 0 84.5 30.5t32.5 80.5q0 40 -25 66t-67 29h-91v9h35q36 0 44.5 8t8.5 44v230q0 14 -9 23t-24 9h-4l-59 -5l-1 6l77 16q70 14 70 73v4h8v-131q0 -72 -2 -92h9 q6 42 16 69q47 123 158 123q73 0 103 -35t30 -97v-60h4q1 22 10.5 52.5t14.5 40.5q26 49 61 74t87 25q67 0 108 -35t41 -98v-402q0 -36 9 -44.5t45 -8.5h26v-9h-225v9h76v2q-9 9 -9 26v418q0 59 -22 92t-58 33q-68 0 -110 -63.5t-42 -167.5v-287q0 -36 9 -44.5t45 -8.5h26 v-9h-216v9h67v2q-9 9 -9 26v418q0 59 -22 92t-58 33q-68 0 -110 -63.5t-42 -167.5v-77q0 -33 14 -84q12 -45 12 -72q0 -58 -35.5 -93.5t-92.5 -35.5q-36 0 -70.5 9.5t-71.5 31t-70 64.5t-58 103h-396l-54 -124q-5 -12 -5 -23q0 -17 13 -28t35 -11h49v-9h-182zM160 213h381 l-170 417q-8 18 -8 40h-9q0 -12 -12 -40z" />
<glyph unicode="Ant" horiz-adv-x="1860" d="M8 0v9h16q17 0 29.5 15.5t25.5 46.5l281 648h77v-12q0 -36 9 -58l182 -446q41 -101 84 -149.5t108 -48.5q52 0 84.5 30.5t32.5 80.5q0 40 -25 66t-67 29h-91v9h35q36 0 44.5 8t8.5 44v230q0 14 -9 23t-24 9h-4l-59 -5l-1 6l77 16q32 6 53 25t21 48v4h8v-131 q0 -87 -2 -105h7q3 27 16 65q22 64 71.5 102t111.5 38q80 0 124 -41t44 -110v-201q-9 -21 -9 -40q0 -89 65.5 -143t173.5 -54q107 0 189 66.5t104 167.5q-19 -36 -56 -58t-81 -22q-80 0 -129 39t-49 103v248h-131v27h75q32 0 57.5 19t39 45t20.5 47.5t7 31.5v117h10v-217 q0 -36 -13 -42v-1h262v-27h-249v-274q0 -44 27.5 -71t72.5 -27q56 0 95.5 37t39.5 89q0 48 -35 81.5t-85 33.5q-19 0 -32 12.5t-13 30.5h20q67 0 115 -46.5t48 -111.5q0 -89 -43.5 -164t-118 -119t-162.5 -44q-132 0 -212.5 73t-80.5 192v185q0 76 -23 113.5t-75 37.5 q-77 0 -128.5 -68t-51.5 -176v-64q0 -33 14 -84q12 -45 12 -72q0 -58 -35.5 -93.5t-92.5 -35.5q-36 0 -70.5 9.5t-71.5 31t-70 64.5t-58 103h-396l-54 -124q-5 -12 -5 -23q0 -17 13 -28t35 -11h49v-9h-182zM160 213h381l-170 417q-8 18 -8 40h-9q0 -12 -12 -40z" />
<glyph unicode="Amt" horiz-adv-x="2124" d="M8 0v9h16q17 0 29.5 15.5t25.5 46.5l281 648h77v-12q0 -36 9 -58l182 -446q41 -101 84 -149.5t108 -48.5q52 0 84.5 30.5t32.5 80.5q0 40 -25 65.5t-67 29.5h-91v9h35q36 0 44.5 8t8.5 44v230q0 14 -9 23t-24 9h-4l-59 -5l-1 6l77 16q32 6 51 25t19 48v4h8v-131 q0 -72 -2 -92h9q6 42 16 69q47 123 158 123q73 0 103 -35t30 -97v-60h4q1 22 10.5 52.5t14.5 40.5q52 99 148 99q67 0 108 -35t41 -98v-219q-9 -21 -9 -40q0 -89 65.5 -143t173.5 -54q107 0 189 66.5t104 167.5q-19 -36 -56 -58t-81 -22q-80 0 -129 39t-49 103v248h-131v27 h75q32 0 57.5 19t39 45t20.5 47.5t7 31.5v117h10v-217q0 -36 -13 -42v-1h262v-27h-249v-274q0 -44 27.5 -71t72.5 -27q56 0 95.5 37t39.5 89q0 48 -35 81.5t-85 33.5q-19 0 -32 12.5t-13 30.5h20q67 0 115 -46.5t48 -111.5q0 -89 -43.5 -164t-118 -119t-162.5 -44 q-132 0 -212.5 73t-80.5 192v211q0 59 -22 92t-58 33q-68 0 -110 -63.5t-42 -167.5v-287q0 -36 9 -44.5t45 -8.5h26v-9h-216v9h67v2q-9 9 -9 26v418q0 59 -22 92t-58 33q-68 0 -110 -63.5t-42 -167.5v-77q0 -33 14 -84q12 -45 12 -72q0 -58 -35.5 -93.5t-92.5 -35.5 q-36 0 -70.5 9.5t-71.5 31t-70 64.5t-58 103h-396l-54 -124q-5 -12 -5 -23q0 -17 13 -28t35 -11h49v-9h-182zM160 213h381l-170 417q-8 18 -8 40h-9q0 -12 -12 -40z" />
<glyph unicode="el" horiz-adv-x="1082" d="M804 742v-504q0 -44 27.5 -71t72.5 -27q56 0 95.5 37t39.5 89q0 48 -35 81.5t-85 33.5q-19 0 -32 12.5t-13 30.5h20q67 0 115 -46.5t48 -111.5q0 -91 -64 -169t-174 -123t-240 -45q-160 0 -282 45.5t-189 129.5t-67 193q0 124 89 212t215 88q120 0 192.5 -65.5 t72.5 -172.5v-5q0 -12 -8.5 -20.5t-21.5 -8.5h-1l-274 4q-31 0 -53 -21t-22 -49v-57q-18 0 -30.5 13t-12.5 32q0 42 34.5 72.5t83.5 30.5h214q8 0 8 9q0 99 -51 159.5t-135 60.5q-96 0 -155.5 -73t-59.5 -193q0 -159 128.5 -255.5t339.5 -96.5q157 0 279 64.5t161 163.5 q-21 -31 -55.5 -49t-74.5 -18q-80 0 -129 39t-49 103v467q0 30 -30 30h-47v9h57q37 0 63.5 12.5t26.5 40.5v4h8v-85z" />
<glyph unicode="cl" horiz-adv-x="1066" d="M41 297q0 124 93.5 212t225.5 88q108 0 183 -64q7 -7 11 -20l7 2q-2 10 -3 29l-2 73h9l9 -289l-18 -1l-3 93q-4 66 -64.5 113t-136.5 47q-100 0 -161 -73.5t-61 -193.5q0 -159 124.5 -255.5t328.5 -96.5q156 0 276 64t159 164q-21 -31 -55.5 -49t-74.5 -18q-80 0 -129 39 t-49 103v467q0 30 -30 30h-47v9h57q37 0 63.5 12.5t26.5 40.5v4h8v-85v-504q0 -44 27.5 -71t72.5 -27q56 0 95.5 37t39.5 89q0 48 -35 81.5t-85 33.5q-19 0 -32 12.5t-13 30.5h20q67 0 115 -46.5t48 -111.5q0 -92 -63 -169.5t-172 -122.5t-238 -45q-157 0 -276.5 46 t-185 129.5t-65.5 192.5z" />
<glyph unicode="Al" horiz-adv-x="1162" d="M160 213h381l-170 417q-8 18 -8 40h-9q0 -12 -12 -40zM8 0v9h16q28 0 55 62l281 648h77v-12q0 -36 9 -58l186 -456q35 -85 93.5 -135t137.5 -50q89 0 158.5 53.5t92.5 136.5q-20 -35 -56 -55.5t-79 -20.5q-80 0 -129 39t-49 103v467q0 30 -30 30h-47v9h57q37 0 63.5 12.5 t26.5 40.5v4h8v-85v-504q0 -44 27.5 -71t72.5 -27q56 0 95.5 37t39.5 89q0 48 -35 81.5t-85 33.5q-19 0 -32 12.5t-13 30.5h20q67 0 115 -46.5t48 -111.5q0 -119 -83 -203t-201 -84q-101 0 -180 54.5t-119 151.5l-4 10h-393l-54 -124q-5 -12 -5 -23q0 -17 13 -28t35 -11h49 v-9h-182z" />
<glyph unicode="itt" horiz-adv-x="1187" d="M95 244v277q0 30 -30 30h-45v9h55q37 0 63.5 12.5t26.5 40.5v4h8v-85v-287q-9 -21 -9 -40q0 -89 65.5 -143t173.5 -54q107 0 189 66.5t104 167.5q-19 -36 -56 -58t-81 -22q-80 0 -129 39t-49 103v248h-131v27h75q41 0 71.5 32.5t41.5 63.5t11 47v117h10v-217 q0 -36 -13 -42v-1h319q41 0 71.5 32.5t41.5 63.5t11 47v117h10v-217q0 -36 -13 -42v-1h262v-27h-249v-444q0 -44 27.5 -71t72.5 -27q56 0 95.5 37t39.5 89q0 48 -35 81.5t-85 33.5q-19 0 -32 12.5t-13 30.5h20q67 0 115 -46.5t48 -111.5q0 -60 -45 -102t-108 -42 q-80 0 -129 39t-49 103v418h-362v-274q0 -44 27.5 -71t72.5 -27q56 0 95.5 37t39.5 89q0 48 -35 81.5t-85 33.5q-19 0 -32 12.5t-13 30.5h20q67 0 115 -46.5t48 -111.5q0 -135 -95 -231t-229 -96q-132 0 -212.5 73t-80.5 192zM133 820q20 0 32 -11.5t12 -32.5 q0 -20 -11.5 -32.5t-32.5 -12.5q-20 0 -32.5 12t-12.5 33q0 20 12 32t33 12z" />
<glyph unicode="es" horiz-adv-x="1128" d="M37 328q0 111 89 190t215 79q120 0 192.5 -65.5t72.5 -172.5v-5q0 -12 -8.5 -20.5t-21.5 -8.5h-1l-269 3q-31 0 -53 -20.5t-22 -49.5v-56q-18 0 -30.5 13t-12.5 31q0 43 34.5 73.5t83.5 30.5h209q8 0 8 9q0 99 -51 159.5t-135 60.5q-96 0 -155 -68t-59 -179t65.5 -196.5 t185 -132t275.5 -46.5q167 0 269 52t102 137q0 25 -11.5 45t-34.5 35t-45.5 25t-56 21.5t-53.5 19.5t-47.5 23t-42.5 30t-26.5 38.5t-11.5 51.5q0 73 54 117.5t143 44.5q74 0 133 -44q11 -8 16 -23l7 2q-2 8 -4 32l-3 53h10l11 -236l-18 -1l-2 42q-3 65 -41.5 111t-108.5 46 q-61 0 -94 -31.5t-33 -90.5q0 -17 8 -31.5t19.5 -24.5t32.5 -20.5t37.5 -17t44.5 -15.5q33 -12 56 -21.5t50.5 -25.5t44.5 -34.5t29 -45.5t12 -59q0 -101 -126 -163t-332 -62q-270 0 -435 107.5t-165 283.5z" />
<glyph unicode="R&#xf6;" horiz-adv-x="1230" d="M822 782q20 0 32.5 -11.5t12.5 -32.5q0 -20 -12 -32t-33 -12q-20 0 -32 11.5t-12 32.5q0 20 11.5 32t32.5 12zM1018 782q20 0 32 -11.5t12 -32.5q0 -20 -11.5 -32t-32.5 -12q-20 0 -32.5 11.5t-12.5 32.5q0 20 12 32t33 12zM1196 88q-71 -61 -169.5 -98.5t-205.5 -37.5 q-123 0 -243.5 53t-218.5 166l-21 25q-24 28 -36.5 41.5t-30.5 25.5t-34 12h-12v17h46q84 0 135.5 56.5t51.5 148.5q0 84 -55 144t-132 60h-104v-1q17 -17 17 -52v-586q0 -36 9 -44.5t45 -8.5h58v-9h-278v9h35q36 0 44.5 8.5t8.5 44.5v595q0 36 -8.5 44.5t-44.5 8.5h-35v9 h261q120 0 193 -61t73 -161q0 -86 -60 -146t-152 -70l-20 -1v-6q52 -6 109 -68q107 -120 222.5 -172t225.5 -52q57 0 112.5 13t97 33t68 36.5t43.5 30.5zM915 122q-114 0 -195 69.5t-81 168.5q0 107 76 172t200 65q113 0 193.5 -69.5t80.5 -167.5q0 -107 -75.5 -172.5 t-198.5 -65.5zM918 140q76 0 130 59t54 142q0 107 -52.5 172.5t-138.5 65.5q-77 0 -131 -59t-54 -142q0 -107 53 -172.5t139 -65.5z" />
<glyph unicode="R&#xe4;" horiz-adv-x="1144" d="M762 782q20 0 32.5 -11.5t12.5 -32.5q0 -20 -12 -32t-33 -12q-20 0 -32 11.5t-12 32.5q0 20 11.5 32t32.5 12zM958 782q20 0 32 -11.5t12 -32.5q0 -20 -11.5 -32t-32.5 -12q-20 0 -32.5 11.5t-12.5 32.5q0 20 12 32t33 12zM987 384v64q0 64 -29 98t-84 34 q-72 0 -114.5 -38.5t-45.5 -98.5l-3 -22h-18l11 196h10l-3 -53q-2 -24 -4 -32l7 -2q5 15 16 23q59 44 143 44q95 0 144.5 -41.5t49.5 -120.5v-284q0 -31 5.5 -41t27.5 -10q3 0 9.5 0.5t10.5 0.5l17 1l1 -9q-62 -6 -111 -22v8q0 25 -9.5 82.5t-9.5 72.5h-10 q-40 -162 -168 -162q-85 0 -137 39.5t-52 104.5q0 76 73.5 122t194.5 46h78zM987 366h-73q-84 0 -135 -41.5t-51 -108.5q0 -53 31.5 -85t82.5 -32q58 0 101.5 53.5t43.5 153.5v60zM18 0v9h35q36 0 44.5 8.5t8.5 44.5v595q0 36 -8.5 44.5t-44.5 8.5h-35v9h261q120 0 193 -61 t73 -161q0 -88 -68.5 -147.5t-163.5 -68.5l-20 -1v-6q27 -3 57 -25.5t78 -68.5l17 -17q31 -30 49.5 -47t53.5 -47.5t65 -48.5t68 -37.5t78.5 -28.5t82.5 -9q131 0 261 41l28 9l2 -9l-27 -9q-202 -64 -330 -64q-43 0 -85.5 10t-76.5 24t-71.5 39t-62.5 45t-57.5 51.5 t-48 48.5t-41.5 46q-7 8 -11 12q-28 31 -42 45.5t-32 27.5t-31 13h-12v17h46q86 0 146.5 57.5t60.5 147.5q0 92 -51.5 148t-135.5 56h-104v-1q17 -17 17 -52v-586q0 -36 9 -44.5t45 -8.5h58v-9h-278z" />
<glyph unicode="R&#xeb;" horiz-adv-x="1226" d="M817 782q20 0 32.5 -11.5t12.5 -32.5q0 -20 -12 -32t-33 -12q-20 0 -32 11.5t-12 32.5q0 20 11.5 32t32.5 12zM1013 782q20 0 32 -11.5t12 -32.5q0 -20 -11.5 -32t-32.5 -12q-20 0 -32.5 11.5t-12.5 32.5q0 20 12 32t33 12zM935 388q-27 0 -46 -17.5t-19 -42.5v-56 q-18 0 -30.5 13t-12.5 31q0 39 31.5 66.5t76.5 27.5h146q8 0 8 9q0 72 -43.5 116t-114.5 44q-89 0 -143.5 -56.5t-54.5 -149.5q0 -96 61.5 -164.5t147.5 -68.5q148 0 226 101l12 -12q-40 -52 -101 -79.5t-137 -27.5q-120 0 -205.5 69t-85.5 166q0 99 83.5 169.5t200.5 70.5 q106 0 170.5 -49t64.5 -129v-5q0 -12 -9 -20.5t-22 -8.5zM1196 88q-70 -61 -169 -98t-206 -37q-123 0 -243.5 53t-218.5 165l-21 25q-24 28 -36.5 41.5t-30.5 25.5t-34 12h-12v17h46q84 0 135.5 56.5t51.5 148.5q0 84 -55 144t-132 60h-104v-1q17 -17 17 -52v-586 q0 -36 9 -44.5t45 -8.5h58v-9h-278v9h35q36 0 44.5 8.5t8.5 44.5v595q0 36 -8.5 44.5t-44.5 8.5h-35v9h261q120 0 193 -61t73 -161q0 -86 -60 -146t-152 -70l-20 -1v-6q51 -5 108 -68q109 -120 224.5 -172t224.5 -52q57 0 112.5 13t97 33t68 36.5t43.5 30.5z" />
<glyph unicode="K&#xf6;" horiz-adv-x="1230" d="M822 782q20 0 32.5 -11.5t12.5 -32.5q0 -20 -12 -32t-33 -12q-20 0 -32 11.5t-12 32.5q0 20 11.5 32t32.5 12zM1018 782q20 0 32 -11.5t12 -32.5q0 -20 -11.5 -32t-32.5 -12q-20 0 -32.5 11.5t-12.5 32.5q0 20 12 32t33 12zM915 122q-114 0 -195 69.5t-81 168.5 q0 107 76 172t200 65q113 0 193.5 -69.5t80.5 -167.5q0 -107 -75.5 -172.5t-198.5 -65.5zM918 140q76 0 130 59t54 142q0 107 -52.5 172.5t-138.5 65.5q-77 0 -131 -59t-54 -142q0 -107 53 -172.5t139 -65.5zM1196 88q-61 -53 -157 -94.5t-197 -41.5q-51 0 -97.5 11 t-82.5 25.5t-73 42t-61 49.5t-54.5 59t-46.5 58.5t-43 60.5q-24 35 -37.5 53t-35 43t-37 37.5t-36.5 22t-42 9.5h-12v-352q0 -42 9 -52t45 -10h35v-9h-255v9h35q36 0 44.5 10t8.5 52v586q0 36 -8.5 44.5t-44.5 8.5h-35v9h229v-9h-9q-36 0 -45 -8.5t-9 -42.5v-227q54 0 65 14 l158 199q18 22 18 38q0 27 -52 27h-9v9h226v-9h-17q-38 0 -78 -16.5t-69 -52.5l-159 -201l1 -4q34 -8 65 -26t59 -47.5t49 -55.5t49 -67q32 -45 55 -75t61.5 -68t75 -60t88 -38t108.5 -16q54 0 108 13.5t95 33.5t67.5 36t42.5 29z" />
<glyph unicode="K&#xe4;" horiz-adv-x="1194" d="M1027 398v50q0 64 -29 98t-84 34q-72 0 -113.5 -38t-46.5 -99l-1 -12h-20l11 186h10l-3 -53q-2 -24 -4 -32l7 -2q5 15 16 23q59 44 143 44q95 0 144.5 -41.5t49.5 -120.5v-254q0 -31 5.5 -41t27.5 -10l20 1l17 1l1 -9q-62 -6 -111 -22v8q0 29 -11 90q-7 44 -8 65h-10 q-41 -162 -168 -162q-85 0 -137 38t-52 100q0 71 73.5 114.5t194.5 43.5h78zM1027 380h-73q-84 0 -135 -38.5t-51 -101.5q0 -50 31.5 -80.5t82.5 -30.5q58 0 101.5 53.5t43.5 153.5v44zM18 0v9h35q36 0 44.5 10t8.5 52v586q0 36 -8.5 44.5t-44.5 8.5h-35v9h229v-9h-9 q-36 0 -45 -8t-9 -43v-227q54 0 65 14l158 199q18 22 18 38q0 27 -52 27h-9v9h226v-9h-17q-38 0 -78 -16.5t-69 -52.5l-159 -201l1 -4q65 -15 113.5 -63t104.5 -132q29 -44 53.5 -75t63 -68.5t77.5 -60.5t93.5 -39t116.5 -16q143 0 273 41l28 9l2 -9l-27 -9 q-202 -64 -330 -64q-50 0 -97 10.5t-82.5 25.5t-72 43t-60 49.5t-53.5 59.5t-45 59t-42 61q-28 41 -46.5 65.5t-43 50t-48.5 37.5t-50 12h-12v-352q0 -42 9 -52t45 -10h35v-9h-255zM817 782q20 0 32.5 -11.5t12.5 -32.5q0 -20 -12 -32t-33 -12q-20 0 -32 11.5t-12 32.5 q0 20 11.5 32t32.5 12zM1013 782q20 0 32 -11.5t12 -32.5q0 -20 -11.5 -32t-32.5 -12q-20 0 -32.5 11.5t-12.5 32.5q0 20 12 32t33 12z" />
<glyph unicode="R&#xf3;" horiz-adv-x="1230" d="M1196 88q-71 -61 -169.5 -98.5t-205.5 -37.5q-123 0 -243.5 53t-218.5 166l-21 25q-24 28 -36.5 41.5t-30.5 25.5t-34 12h-12v17h46q84 0 135.5 56.5t51.5 148.5q0 84 -55 144t-132 60h-104v-1q17 -17 17 -52v-586q0 -36 9 -44.5t45 -8.5h58v-9h-278v9h35q36 0 44.5 8.5 t8.5 44.5v595q0 36 -8.5 44.5t-44.5 8.5h-35v9h261q120 0 193 -61t73 -161q0 -86 -60 -146t-152 -70l-20 -1v-6q52 -6 109 -68q107 -120 222.5 -172t225.5 -52q57 0 112.5 13t97 33t68 36.5t43.5 30.5zM915 122q-114 0 -195 69.5t-81 168.5q0 107 76 172t200 65 q113 0 193.5 -69.5t80.5 -167.5q0 -107 -75.5 -172.5t-198.5 -65.5zM918 140q76 0 130 59t54 142q0 107 -52.5 172.5t-138.5 65.5q-77 0 -131 -59t-54 -142q0 -107 53 -172.5t139 -65.5zM871 657l-9 8l118 139q4 5 10 5q5 0 10 -4l16 -13l-24 -30z" />
<glyph unicode="K&#xf3;" horiz-adv-x="1230" d="M871 657l-9 8l118 139q4 5 10 5q5 0 10 -4l16 -13l-24 -30zM915 122q-114 0 -195 69.5t-81 168.5q0 107 76 172t200 65q113 0 193.5 -69.5t80.5 -167.5q0 -107 -75.5 -172.5t-198.5 -65.5zM918 140q76 0 130 59t54 142q0 107 -52.5 172.5t-138.5 65.5q-77 0 -131 -59 t-54 -142q0 -107 53 -172.5t139 -65.5zM1196 88q-61 -53 -157 -94.5t-197 -41.5q-51 0 -97.5 11t-82.5 25.5t-73 42t-61 49.5t-54.5 59t-46.5 58.5t-43 60.5q-24 35 -37.5 53t-35 43t-37 37.5t-36.5 22t-42 9.5h-12v-352q0 -42 9 -52t45 -10h35v-9h-255v9h35q36 0 44.5 10 t8.5 52v586q0 36 -8.5 44.5t-44.5 8.5h-35v9h229v-9h-9q-36 0 -45 -8.5t-9 -42.5v-227q54 0 65 14l158 199q18 22 18 38q0 27 -52 27h-9v9h226v-9h-17q-38 0 -78 -16.5t-69 -52.5l-159 -201l1 -4q34 -8 65 -26t59 -47.5t49 -55.5t49 -67q32 -45 55 -75t61.5 -68t75 -60 t88 -38t108.5 -16q54 0 108 13.5t95 33.5t67.5 36t42.5 29z" />
<glyph unicode="&#x17c;a" horiz-adv-x="1037" d="M264 800q20 0 32 -11.5t12 -32.5q0 -20 -11.5 -32.5t-32.5 -12.5q-20 0 -32.5 12t-12.5 33q0 20 12 32t33 12zM875 384v64q0 64 -29 98t-84 34q-72 0 -114.5 -38.5t-45.5 -98.5l-3 -22h-18l11 196h10l-3 -53q-2 -24 -4 -32l7 -2q5 15 16 23q59 44 143 44 q95 0 144.5 -41.5t49.5 -120.5v-284q0 -31 5.5 -41t27.5 -10q3 0 9.5 0.5t10.5 0.5l17 1l1 -9q-62 -6 -111 -22v8q0 25 -9.5 82.5t-9.5 72.5h-10q-40 -162 -168 -162q-85 0 -137 39.5t-52 104.5q0 76 73.5 122t194.5 46h78zM875 366h-73q-84 0 -135 -41.5t-51 -108.5 q0 -53 31.5 -85t82.5 -32q58 0 101.5 53.5t43.5 153.5v60zM0 0v9q24 0 72 78l259 420q13 23 33.5 40t38.5 22v3h-193q-76 0 -108.5 -23t-36.5 -94l-1 -20l-7 1l11 212l7 -1l-3 -67q9 9 26 9h389v-9q-21 0 -69 -78l-259 -418q-33 -52 -48 -63v-3h38q74 0 281.5 -39.5 t307.5 -39.5q186 0 262 84l6 -6q-142 -157 -327 -157q-78 0 -179 35t-194 70t-153 35h-153z" />
<glyph unicode="&#x17c;o" horiz-adv-x="1120" d="M264 800q20 0 32 -11.5t12 -32.5q0 -20 -11.5 -32.5t-32.5 -12.5q-20 0 -32.5 12t-12.5 33q0 20 12 32t33 12zM805 102q-124 0 -200 68t-76 180q0 102 81 174.5t195 72.5q123 0 198.5 -68t75.5 -179q0 -103 -80.5 -175.5t-193.5 -72.5zM808 120q83 0 133.5 58t50.5 153 q0 103 -56 175.5t-135 72.5q-83 0 -134 -58t-51 -153q0 -103 56.5 -175.5t135.5 -72.5zM0 0v9q24 0 72 78l259 420q13 23 33.5 40t38.5 22v3h-193q-76 0 -108.5 -23t-36.5 -94l-1 -20l-7 1l11 212l7 -1l-3 -67q9 9 26 9h389v-9q-21 0 -69 -78l-259 -418q-33 -52 -48 -63v-3 h38q73 0 310.5 -34.5t338.5 -34.5q186 0 262 84l6 -6q-142 -157 -327 -157q-78 0 -194 32.5t-224 65t-168 32.5h-153z" />
<glyph unicode="&#x17c;e" horiz-adv-x="1100" d="M264 800q20 0 32 -11.5t12 -32.5q0 -20 -11.5 -32.5t-32.5 -12.5q-20 0 -32.5 12t-12.5 33q0 20 12 32t33 12zM819 388q-27 0 -46 -17.5t-19 -42.5v-56q-18 0 -30.5 13t-12.5 31q0 39 31.5 66.5t76.5 27.5h146q8 0 8 9q0 72 -43.5 116t-114.5 44q-89 0 -143.5 -59.5 t-54.5 -156.5q0 -101 61.5 -172t147.5 -71q73 0 131 26.5t95 74.5l12 -12q-85 -107 -238 -107q-120 0 -205.5 72t-85.5 173q0 104 83.5 177t200.5 73q106 0 170.5 -49t64.5 -129v-5q0 -12 -9 -20.5t-22 -8.5zM0 0v9q24 0 72 78l259 420q13 23 33.5 40t38.5 22v3h-193 q-76 0 -108.5 -23t-36.5 -94l-1 -20l-7 1l11 212l7 -1l-3 -67q9 9 26 9h389v-9q-21 0 -69 -78l-259 -418q-33 -52 -48 -63v-3h38q73 0 310.5 -34.5t338.5 -34.5q186 0 262 84l6 -6q-142 -157 -327 -157q-78 0 -194 32.5t-224 65t-168 32.5h-153z" />
<glyph unicode="&#x17c;&#xf3;" horiz-adv-x="1120" d="M264 800q20 0 32 -11.5t12 -32.5q0 -20 -11.5 -32.5t-32.5 -12.5q-20 0 -32.5 12t-12.5 33q0 20 12 32t33 12zM766 657l-9 8l118 139q4 5 10 5q5 0 10 -4l16 -13l-24 -30zM805 102q-124 0 -200 68t-76 180q0 102 81 174.5t195 72.5q123 0 198.5 -68t75.5 -179 q0 -103 -80.5 -175.5t-193.5 -72.5zM808 120q83 0 133.5 58t50.5 153q0 103 -56 175.5t-135 72.5q-83 0 -134 -58t-51 -153q0 -103 56.5 -175.5t135.5 -72.5zM0 0v9q24 0 72 78l259 420q13 23 33.5 40t38.5 22v3h-193q-76 0 -108.5 -23t-36.5 -94l-1 -20l-7 1l11 212l7 -1 l-3 -67q9 9 26 9h389v-9q-21 0 -69 -78l-259 -418q-33 -52 -48 -63v-3h38q73 0 310.5 -34.5t338.5 -34.5q186 0 262 84l6 -6q-142 -157 -327 -157q-78 0 -194 32.5t-224 65t-168 32.5h-153z" />
<glyph unicode="&#x7a;&#xf3;" horiz-adv-x="1120" d="M805 102q-124 0 -200 68t-76 180q0 102 81 174.5t195 72.5q123 0 198.5 -68t75.5 -179q0 -103 -80.5 -175.5t-193.5 -72.5zM808 120q83 0 133.5 58t50.5 153q0 103 -56 175.5t-135 72.5q-83 0 -134 -58t-51 -153q0 -103 56.5 -175.5t135.5 -72.5zM0 0v9q24 0 72 78 l259 420q13 23 33.5 40t38.5 22v3h-193q-76 0 -108.5 -23t-36.5 -94l-1 -20l-7 1l11 212l7 -1l-3 -67q9 9 26 9h389v-9q-21 0 -69 -78l-259 -418q-33 -52 -48 -63v-3h38q73 0 310.5 -34.5t338.5 -34.5q186 0 262 84l6 -6q-142 -157 -327 -157q-78 0 -194 32.5t-224 65 t-168 32.5h-153zM766 657l-9 8l118 139q4 5 10 5q5 0 10 -4l16 -13l-24 -30z" />
<glyph unicode="&#x17c;n" horiz-adv-x="1174" d="M264 800q20 0 32 -11.5t12 -32.5q0 -20 -11.5 -32.5t-32.5 -12.5q-20 0 -32.5 12t-12.5 33q0 20 12 32t33 12zM0 0v9q24 0 72 78l259 420q12 23 32.5 40t39.5 22v3h-193q-77 0 -109 -23t-36 -94l-2 -20l-6 1l11 212l7 -1l-3 -67q9 9 26 9h389v-9q-21 0 -69 -78l-259 -418 q-33 -52 -48 -63v-3h37q55 0 223.5 -24.5t243.5 -24.5q139 0 196 84l5 -6q-107 -157 -245 -157q-47 0 -109 17t-112 38t-106.5 38t-92.5 17h-151zM525 100v9h35q36 0 44.5 8.5t8.5 44.5v340q0 14 -9 23t-24 9h-4l-59 -5l-1 6l77 16q32 6 53 25t21 48v4h8v-131q0 -87 -2 -105 h7q3 27 16 65q22 64 71.5 102t111.5 38q80 0 124 -41t44 -110v-326q-9 -21 -9 -40q0 -28 17.5 -45t46.5 -17q26 0 42 16t16 43q0 38 -24.5 59t-62.5 26q0 15 39 15q23 -14 40 -41t17 -59q0 -40 -25.5 -64t-66.5 -24q-45 0 -76.5 38t-31.5 92v310q0 151 -98 151 q-78 0 -129 -68t-51 -176v-174q0 -36 9 -44.5t45 -8.5h35v-9h-255z" />
<glyph unicode="&#x17a;n" horiz-adv-x="1174" d="M0 0v9q24 0 72 78l259 420q12 23 32.5 40t39.5 22v3h-193q-77 0 -109 -23t-36 -94l-2 -20l-6 1l11 212l7 -1l-3 -67q9 9 26 9h389v-9q-21 0 -69 -78l-259 -418q-33 -52 -48 -63v-3h37q55 0 223.5 -24.5t243.5 -24.5q139 0 196 84l5 -6q-107 -157 -245 -157q-47 0 -109 17 t-112 38t-106.5 38t-92.5 17h-151zM525 100v9h35q36 0 44.5 8.5t8.5 44.5v340q0 14 -9 23t-24 9h-4l-59 -5l-1 6l77 16q32 6 53 25t21 48v4h8v-131q0 -87 -2 -105h7q3 27 16 65q22 64 71.5 102t111.5 38q80 0 124 -41t44 -110v-326q-9 -21 -9 -40q0 -28 17.5 -45t46.5 -17 q26 0 42 16t16 43q0 38 -24.5 59t-62.5 26q0 15 39 15q23 -14 40 -41t17 -59q0 -40 -25.5 -64t-66.5 -24q-45 0 -76.5 38t-31.5 92v310q0 151 -98 151q-78 0 -129 -68t-51 -176v-174q0 -36 9 -44.5t45 -8.5h35v-9h-255zM217 657l-9 8l118 139q4 5 10 5q5 0 10 -4l16 -13 l-24 -30z" />
<glyph unicode="i&#x15b;" horiz-adv-x="755" d="M468 657l-9 8l118 139q4 5 10 5q5 0 10 -4l16 -13l-24 -30zM95 233v288q0 30 -30 30h-45v9h55q37 0 63.5 12.5t26.5 40.5v4h8v-85v-348q0 -84 66.5 -135.5t175.5 -51.5q104 0 168 43.5t64 115.5q0 18 -8.5 34t-20.5 27t-34 22t-39 17.5t-45 16.5q-34 11 -54 19 t-47.5 22.5t-42.5 30t-26.5 39t-11.5 51.5q0 73 54 117.5t143 44.5q74 0 133 -44q11 -8 16 -23l7 2q-2 8 -4 32l-3 53h10l11 -236l-18 -1l-2 42q-3 65 -41.5 111t-108.5 46q-61 0 -94 -31.5t-33 -90.5q0 -17 8.5 -31.5t19.5 -24.5t32.5 -20.5t38 -17t44.5 -16.5 q34 -12 55.5 -20t50.5 -24t45 -32.5t28 -42t12 -56.5q0 -87 -84.5 -140t-223.5 -53q-144 0 -231.5 70t-87.5 184zM133 820q20 0 32 -11.5t12 -32.5q0 -20 -11.5 -32.5t-32.5 -12.5q-20 0 -32.5 12t-12.5 33q0 20 12 32t33 12z" />
<glyph unicode="e&#x15b;" horiz-adv-x="1128" d="M835 657l-9 8l118 139q4 5 10 5q5 0 10 -4l16 -13l-24 -30zM37 328q0 111 89 190t215 79q120 0 192.5 -65.5t72.5 -172.5v-5q0 -12 -8.5 -20.5t-21.5 -8.5h-1l-269 3q-31 0 -53 -20.5t-22 -49.5v-56q-18 0 -30.5 13t-12.5 31q0 43 34.5 73.5t83.5 30.5h209q8 0 8 9 q0 99 -51 159.5t-135 60.5q-96 0 -155 -68t-59 -179t65.5 -196.5t185 -132t275.5 -46.5q167 0 269 52t102 137q0 25 -11.5 45t-34.5 35t-45.5 25t-56 21.5t-53.5 19.5t-47.5 23t-42.5 30t-26.5 38.5t-11.5 51.5q0 73 54 117.5t143 44.5q74 0 133 -44q11 -8 16 -23l7 2 q-2 8 -4 32l-3 53h10l11 -236l-18 -1l-2 42q-3 65 -41.5 111t-108.5 46q-61 0 -94 -31.5t-33 -90.5q0 -17 8 -31.5t19.5 -24.5t32.5 -20.5t37.5 -17t44.5 -15.5q33 -12 56 -21.5t50.5 -25.5t44.5 -34.5t29 -45.5t12 -59q0 -101 -126 -163t-332 -62q-270 0 -435 107.5 t-165 283.5z" />
<glyph unicode="u&#x144;" horiz-adv-x="1260" d="M833 116q0 -57 -44.5 -97t-107.5 -40q-89 0 -152 78.5t-63 189.5h-5l-4 -51q-15 -103 -69.5 -153.5t-129.5 -50.5q-76 0 -122.5 39.5t-46.5 111.5v378q0 30 -30 30h-47v9h57q37 0 64.5 12.5t27.5 40.5v4h8v-85v-380q0 -68 26.5 -105t71.5 -37q81 0 130 70t49 185v262 q0 36 -9 44.5t-45 8.5h-17v9l155 4v-8q-4 -24 -4 -53v-318q0 -87 48.5 -149t116.5 -62q55 0 94 33t39 80q0 40 -25 66t-67 29h-91v9h35q36 0 44.5 8.5t8.5 44.5v229q0 14 -9 23t-24 9h-4l-59 -5l-1 6l77 16q32 6 53 25t21 48v4h8v-131q0 -87 -2 -105h7q3 27 16 65 q22 64 71.5 102t111.5 38q80 0 124 -41t44 -110v-384q0 -36 8.5 -44.5t44.5 -8.5h36v-9h-255v9h97v2q-9 9 -9 26v392q0 151 -98 151q-78 0 -129 -68t-51 -176v-63q0 -36 9 -44.5t45 -8.5h35v-9h-125q29 -12 45.5 -37t16.5 -58zM903 657l-9 8l118 139q4 5 10 5q5 0 10 -4 l16 -13l-24 -30z" />
<glyph unicode="&#x105;t" horiz-adv-x="1098" d="M718 -196l5 -17q-45 -14 -72 -14q-51 0 -82 25t-31 65q0 37 37 71.5t91 51.5q-86 17 -138 75t-55 143h-4l-7 -50q-11 -43 -36.5 -75.5t-57.5 -50.5t-63.5 -27t-60.5 -9q-94 0 -151.5 43.5t-57.5 115.5q0 82 57 132.5t151 50.5q61 0 104.5 -33.5t43.5 -80.5 q0 -19 -12.5 -32t-30.5 -13v47q0 39 -31 66.5t-74 27.5q-58 0 -93 -44.5t-35 -117.5q0 -61 39 -98t102 -37q81 0 138 60.5t57 146.5v202q0 68 -49 109.5t-129 41.5q-72 0 -112 -37.5t-43 -98.5l-3 -62h-18l11 236h10l-3 -53q-2 -24 -4 -32l7 -2q5 15 16 23q59 44 138 44 q116 0 186.5 -50t70.5 -132v-200q0 -93 60.5 -150t159.5 -57q102 0 183 51.5t109 132.5q-20 -32 -55 -51t-76 -19q-80 0 -129 39t-49 103v288h-121v27h65q41 0 71.5 32.5t41.5 63.5t11 47v117h10v-217q0 -36 -13 -42v-1h262v-27h-249v-314q0 -44 27.5 -71t72.5 -27 q56 0 95.5 37t39.5 89q0 48 -35 81.5t-85 33.5q-19 0 -32 12.5t-13 30.5h20q67 0 115 -46.5t48 -111.5q0 -119 -96 -203t-231 -84q-63 0 -108 -33t-45 -79q0 -33 21 -53.5t56 -20.5q24 0 58 11z" />
<glyph unicode="&#x119;p" horiz-adv-x="1415" d="M458 -196l5 -17q-45 -14 -72 -14q-51 0 -82 25t-31 65q0 42 26.5 75.5t68.5 54.5q-15 -1 -31 -1q-135 0 -218 84t-83 221q0 124 89 212t215 88q120 0 192.5 -65.5t72.5 -172.5v-5q0 -12 -9 -20.5t-22 -8.5l-274 4q-31 0 -53 -21t-22 -49v-57q-18 0 -30.5 13t-12.5 32 q0 42 34.5 72.5t83.5 30.5h214q8 0 8 9q0 99 -51 159.5t-135 60.5q-96 0 -155.5 -73t-59.5 -193q0 -132 60.5 -213t158.5 -81q68 0 125.5 17t96.5 42t76.5 66.5t60 76.5t50.5 86v195q0 14 -9 23t-24 9h-4l-59 -5l-1 6l77 16q32 6 53 25t21 48v4h8v-131q0 -32 -5 -77h6 q25 41 49.5 70t57.5 55t75.5 39t93.5 13q126 0 203.5 -83t77.5 -219q0 -125 -87.5 -214t-211.5 -89q-82 0 -140 52t-58 126q0 70 53.5 119t129.5 49h20q0 -18 -13 -30.5t-32 -12.5q-63 0 -101.5 -34.5t-38.5 -90.5q0 -66 52.5 -113t127.5 -47q95 0 153.5 83.5t58.5 219.5 q0 106 -55.5 181t-134.5 75q-62 0 -113.5 -23t-84.5 -57t-67 -86v-501q0 -36 9 -44.5t45 -8.5h35v-9h-255v9h35q36 0 44.5 8.5t8.5 44.5v369q-24 -41 -43 -70.5t-48 -64t-58 -58.5t-69.5 -44.5t-87.5 -30.5q-51 -12 -88 -48t-37 -88q0 -33 21 -53.5t56 -20.5q24 0 58 11z " />
<glyph unicode="&#x105;k" horiz-adv-x="1256" d="M679 -196l5 -17q-45 -14 -72 -14q-51 0 -82 25t-31 65q0 43 34 77t87 48q-65 19 -106.5 71t-41.5 118h-5l-5 -23q-14 -56 -54 -94.5t-82 -53t-82 -14.5q-94 0 -151.5 43.5t-57.5 115.5q0 82 57 132.5t151 50.5q61 0 104.5 -33.5t43.5 -80.5q0 -19 -12.5 -32t-30.5 -13v47 q0 39 -31 66.5t-74 27.5q-58 0 -93 -44.5t-35 -117.5q0 -61 39 -98t102 -37q81 0 138 60.5t57 146.5v202q0 68 -49 109.5t-129 41.5q-72 0 -112 -37.5t-43 -98.5l-3 -62h-18l11 236h10l-3 -53q-2 -24 -4 -32l7 -2q5 15 16 23q59 44 138 44q116 0 186.5 -50t70.5 -132v-241 q0 -71 48.5 -121t116.5 -50q54 0 88.5 32.5t34.5 80.5q0 40 -25 66t-67 29h-91v9h35q36 0 44.5 8t8.5 44v459q0 30 -30 30h-47v9h57q37 0 63.5 12.5t26.5 40.5v4h8v-85v-420q81 0 92 14l158 179q18 20 18 38q0 27 -52 27h-9v9h221v-9h-12q-84 0 -145 -69l-160 -181v-4 q45 -10 77.5 -26.5t50.5 -33t29.5 -41.5t15.5 -43.5t8 -46.5q8 -63 27 -92.5t61 -29.5q26 0 41.5 17.5t15.5 46.5q0 38 -24.5 59t-62.5 26q0 15 39 15q23 -14 40 -41t17 -59q0 -40 -25.5 -64t-67.5 -24q-67 0 -97 40.5t-45 125.5q-5 29 -9.5 47t-16.5 41.5t-29 37t-46.5 23 t-70.5 9.5h-39v-41q0 -33 14 -84q12 -45 12 -72q0 -58 -40 -97.5t-102 -39.5q-58 0 -99 -33t-41 -79q0 -33 21 -53.5t56 -20.5q24 0 58 11z" />
<glyph unicode="&#x144;s" horiz-adv-x="1081" d="M273 657l-9 8l118 139q4 5 10 5q5 0 10 -4l16 -13l-24 -30zM18 0v9h35q36 0 44.5 8.5t8.5 44.5v440q0 14 -9 23t-24 9h-4l-59 -5l-1 6l77 16q32 6 53 25t21 48v4h8v-131q0 -87 -2 -105h7q3 27 16 65q22 64 71.5 102t111.5 38q80 0 124 -41t44 -110v-235q0 -99 60.5 -164 t162.5 -65t156 42t54 122q0 22 -9 40.5t-22 31t-36 24.5t-41 19t-47 17q-33 11 -52.5 19t-45.5 22t-40.5 29t-25 37.5t-10.5 49.5q0 73 54 117.5t143 44.5q74 0 133 -44q11 -8 16 -23l7 2q-2 8 -4 32l-3 53h10l11 -236l-18 -1l-2 42q-3 65 -41.5 111t-108.5 46 q-61 0 -94 -31.5t-33 -90.5q0 -17 8 -31.5t19 -24t32 -20.5t36.5 -17t43.5 -16q25 -9 40 -15t38.5 -16.5t37.5 -20t31 -24t26 -30t15.5 -36t6.5 -44.5q0 -89 -78.5 -143.5t-206.5 -54.5q-58 0 -111 19.5t-89.5 50.5t-61.5 62t-39 62v271q0 151 -98 151q-78 0 -129 -68 t-51 -176v-274q0 -36 9 -44.5t45 -8.5h35v-9h-255z" />
<glyph unicode="&#x7a;&#x17c;" horiz-adv-x="971" d="M734 770q20 0 32 -11.5t12 -32.5q0 -20 -11.5 -32.5t-32.5 -12.5q-20 0 -32.5 12t-12.5 33q0 20 12 32t33 12zM0 0v9q24 0 72 78l259 420q12 22 32.5 39t39.5 22v3h-193q-77 0 -109 -22.5t-36 -93.5l-2 -20l-6 1l11 212l7 -1l-3 -67q9 9 26 9h389v-9q-21 0 -69 -78 l-259 -418q-33 -52 -48 -63v-3h37q55 0 283.5 -24.5t303.5 -24.5q139 0 196 84l5 -6q-107 -157 -245 -157q-59 0 -171 27.5t-218 55t-151 27.5h-151zM492 111v9q41 0 89 78l190 309q14 22 34 39t38 22v3h-143q-77 0 -109 -22.5t-36 -93.5l-1 -20l-7 1l11 212l7 -1l-3 -67 q9 9 26 9h339v-9q-21 0 -69 -78l-190 -307q-32 -51 -49 -63v-3h164q75 0 106 21.5t35 87.5l2 37l10 -1l-9 -153q-10 -10 -24 -10h-411z" />
<glyph unicode="&#x17b;e" d="M264 900q20 0 32 -11.5t12 -32.5q0 -20 -11.5 -32.5t-32.5 -12.5q-20 0 -32.5 12t-12.5 33q0 20 12 32t33 12zM785 388q-27 0 -46 -17.5t-19 -42.5v-56q-18 0 -30.5 13t-12.5 31q0 39 31.5 66.5t76.5 27.5h146q8 0 8 9q0 72 -43.5 116t-114.5 44q-89 0 -143.5 -59.5 t-54.5 -156.5q0 -101 61.5 -172t147.5 -71q73 0 131 26.5t95 74.5l12 -12q-85 -107 -238 -107q-120 0 -205.5 72t-85.5 173q0 104 83.5 177t200.5 73q106 0 170.5 -49t64.5 -129v-5q0 -12 -9 -20.5t-22 -8.5zM0 0v9q13 0 33.5 20t38.5 58l262 550q11 23 31.5 39.5t39.5 21.5 v3h-195q-77 0 -109 -22.5t-36 -93.5l-1 -20l-7 1l11 212l7 -1l-3 -67q9 9 26 9h389v-9q-11 0 -30.5 -19.5t-38.5 -58.5l-262 -548q-21 -43 -48 -63v-3h36q74 0 306.5 -34.5t329.5 -34.5q181 0 257 84l6 -6q-142 -157 -322 -157q-76 0 -188.5 32.5t-218.5 65t-166 32.5h-148z " />
<glyph unicode="&#x17b;a" horiz-adv-x="995" d="M264 900q20 0 32 -11.5t12 -32.5q0 -20 -11.5 -32.5t-32.5 -12.5q-20 0 -32.5 12t-12.5 33q0 20 12 32t33 12zM835 398v50q0 64 -29 98t-84 34q-72 0 -113.5 -38t-46.5 -99l-1 -12h-20l11 186h10l-3 -53q-2 -24 -4 -32l7 -2q5 15 16 23q59 44 143 44q95 0 144.5 -41.5 t49.5 -120.5v-254q0 -31 5.5 -41t27.5 -10l20 1l17 1l1 -9q-62 -6 -111 -22v8q0 29 -11 90q-7 44 -8 65h-10q-40 -162 -168 -162q-85 0 -137 38t-52 100q0 71 73.5 114.5t194.5 43.5h78zM835 380h-73q-84 0 -135 -38.5t-51 -101.5q0 -50 31.5 -80.5t82.5 -30.5 q58 0 101.5 53.5t43.5 153.5v44zM0 0v9q13 0 33.5 20t38.5 58l262 550q11 23 31.5 39.5t39.5 21.5v3h-195q-77 0 -109 -22.5t-36 -93.5l-1 -20l-7 1l11 212l7 -1l-3 -67q9 9 26 9h389v-9q-11 0 -30.5 -19.5t-38.5 -58.5l-262 -548q-21 -43 -48 -63v-3h36q74 0 275 -34.5 t298 -34.5q176 0 252 84l6 -6q-142 -157 -317 -157q-76 0 -178.5 32.5t-198.5 65t-156 32.5h-125z" />
<glyph unicode="&#x17b;o" d="M0 0v9q13 0 33.5 20t38.5 58l262 550q11 23 31.5 39.5t39.5 21.5v3h-195q-77 0 -109 -22.5t-36 -93.5l-1 -20l-7 1l11 212l7 -1l-3 -67q9 9 26 9h389v-9q-11 0 -30.5 -19.5t-38.5 -58.5l-262 -548q-21 -43 -48 -63v-3h36q74 0 306.5 -34.5t329.5 -34.5q181 0 257 84l6 -6 q-142 -157 -322 -157q-76 0 -188.5 32.5t-218.5 65t-166 32.5h-148zM765 102q-124 0 -200 68t-76 180q0 102 81 174.5t195 72.5q123 0 198.5 -68t75.5 -179q0 -103 -80.5 -175.5t-193.5 -72.5zM768 120q83 0 133.5 58t50.5 153q0 103 -56 175.5t-135 72.5q-83 0 -134 -58 t-51 -153q0 -103 56.5 -175.5t135.5 -72.5zM264 900q20 0 32 -11.5t12 -32.5q0 -20 -11.5 -32.5t-32.5 -12.5q-20 0 -32.5 12t-12.5 33q0 20 12 32t33 12z" />
<glyph unicode="xt" horiz-adv-x="1027" d="M238 292l-113 210q-24 45 -42.5 61.5t-40.5 16.5h-14v9h179v-9h-54v-2q11 -4 26 -20.5t25 -34.5l95 -178l98 160q27 44 27 55q0 20 -45 20h-35v9h172v-9h-7q-24 0 -45 -16.5t-48 -61.5l-106 -176l72 -133q51 -93 124.5 -149t166.5 -56q104 0 186 51.5t111 131.5 q-21 -31 -55.5 -50t-75.5 -19q-80 0 -129 39t-49 103v308h-111v27h55q41 0 71.5 32.5t41.5 63.5t11 47v117h10v-217q0 -36 -13 -42v-1h262v-27h-249v-334q0 -44 27.5 -71t72.5 -27q56 0 95.5 37t39.5 89q0 48 -35 81.5t-85 33.5q-19 0 -32 12.5t-13 30.5h20q67 0 115 -46.5 t48 -111.5q0 -119 -98 -203t-236 -84q-118 0 -205.5 54.5t-154.5 171.5l-49 88l-107 -186q-26 -45 -26 -58q0 -12 10 -16t36 -4h34v-9h-189v9h9q33 0 56.5 16.5t49.5 61.5z" />
<glyph unicode="xi" horiz-adv-x="837" d="M7 0v9h9q33 0 56.5 16.5t49.5 61.5l116 205l-113 210q-24 45 -42.5 61.5t-40.5 16.5h-14v9h179v-9h-54v-2q11 -4 26 -20.5t25 -34.5l95 -178l98 160q27 44 27 55q0 20 -45 20h-35v9h177v-9h-12q-24 0 -45 -16.5t-48 -61.5l-106 -176l73 -138q18 -34 33.5 -60t41 -58.5 t52 -53t63 -35t77.5 -14.5q45 0 76.5 28.5t31.5 69t-25 66.5t-67 29h-91v9h35q36 0 44.5 8t8.5 44v300q0 30 -30 30h-47v9h57q37 0 63.5 12.5t26.5 40.5v4h8v-85v-311q0 -36 9 -44t45 -8h35v-9h-125q29 -12 45.5 -37t16.5 -58q0 -53 -41.5 -90t-100.5 -37q-42 0 -79.5 10 t-66 24t-56.5 40t-46 46t-40 55t-33 55.5t-31 57.5l-24 47l-107 -186q-26 -45 -26 -58q0 -12 10 -16t36 -4h34v-9h-189zM701 820q20 0 32 -11.5t12 -32.5q0 -20 -11.5 -32.5t-32.5 -12.5q-20 0 -32.5 12t-12.5 33q0 20 12 32t33 12z" />
<glyph unicode="ux" horiz-adv-x="1174" d="M89 143v378q0 30 -30 30h-47v9h57q37 0 64.5 12.5t27.5 40.5v4h8v-85v-380q0 -64 27 -103t71 -39q81 0 130 70t49 185v103q0 53 -14 104q-12 45 -12 72q0 48 38 77.5t100 29.5q43 0 83 -11t70 -26.5t60 -43.5t49 -50t42.5 -59t35 -57.5t30.5 -57.5l98 159q27 44 27 55 q0 20 -45 20h-35v9h177v-9h-12q-24 0 -45 -16.5t-48 -61.5l-106 -176l128 -239q21 -45 39 -61t44 -16h17v-10h-242v10h21q29 0 41 5.5t12 18.5q0 8 -19 49l-102 190l-107 -186q-26 -45 -26 -58q0 -12 10 -16t36 -4h34v-9h-189v9h9q33 0 56.5 16.5t49.5 61.5l116 205l-47 88 q-126 242 -287 242q-47 0 -75.5 -21.5t-28.5 -56.5q0 -39 27 -63.5t70 -28.5v-381q0 -36 9 -44.5t45 -8.5h17v-9q-69 -3 -135 -18v8q4 27 4 57v140h-9q-15 -103 -69.5 -153.5t-129.5 -50.5q-76 0 -122.5 41.5t-46.5 109.5z" />
<glyph unicode="k&#x142;" horiz-adv-x="1115" d="M18 0v9h35q36 0 44.5 8t8.5 44v670q0 30 -30 30h-47v9h57q37 0 63.5 12.5t26.5 40.5v4h8v-85v-420q54 0 65 14l158 179q18 20 18 38q0 27 -52 27h-9v9h246v-9h-32q-37 0 -77.5 -17t-72.5 -52l-160 -181v-4q49 -6 103.5 -40.5t103.5 -81.5q7 -8 36.5 -37t42 -41t40.5 -37 t47 -37t45 -27t50.5 -21t49.5 -6q112 0 187 61.5t93 166.5q-18 -38 -55.5 -61t-83.5 -23q-80 0 -129 39t-49 103v155l-102 -76l-17 21l119 89v258q0 30 -30 30h-47v9h57q37 0 63.5 12.5t26.5 40.5v4h8v-85v-211l186 139l16 -21l-202 -151v-240q0 -44 27.5 -71t72.5 -27 q56 0 95.5 37t39.5 89q0 48 -35 81.5t-85 33.5q-19 0 -32 12.5t-13 30.5h20q67 0 115 -46.5t48 -111.5q0 -138 -83.5 -222.5t-220.5 -84.5q-44 0 -87 9.5t-77 22.5t-70 36t-60 41t-55 47.5t-46 45.5t-40 44q-11 12 -16 17q-65 71 -100 71h-41v-252q0 -36 9 -44t45 -8h35v-9 h-255z" />
<glyph unicode="kl" d="M13 0v9h35q36 0 44.5 8t8.5 44v670q0 30 -30 30h-47v9h57q37 0 63.5 12.5t26.5 40.5v4h8v-85v-420q54 0 65 14l158 179q18 20 18 38q0 27 -52 27h-9v9h241v-9h-27q-37 0 -77.5 -17t-72.5 -52l-160 -181v-4q49 -6 103.5 -40.5t103.5 -81.5q10 -10 43 -43.5t48.5 -48.5 t47.5 -41.5t54.5 -39t53 -23t59.5 -10.5q106 0 177 59t88 159q-19 -38 -56 -61t-83 -23q-82 0 -132.5 40.5t-50.5 106.5v452q0 16 -7 23t-23 7h-47v9h57q37 0 63.5 12.5t26.5 40.5v4h8v-85v-489q0 -46 29 -74.5t76 -28.5q56 0 95.5 37t39.5 89q0 48 -35 81.5t-85 33.5 q-19 0 -32 12.5t-13 30.5h20q67 0 115 -46.5t48 -111.5q0 -134 -79.5 -215.5t-209.5 -81.5q-33 0 -65.5 5.5t-59 13t-56 22t-49.5 25.5t-46.5 32t-40.5 32.5t-38 36t-33 33.5t-31.5 34t-26.5 29q-65 71 -100 71h-41v-252q0 -36 9 -44t45 -8h35v-9h-255z" />
<glyph unicode="&#x7a;l" horiz-adv-x="960" d="M0 0v9q24 0 72 78l259 420q12 23 32.5 40t39.5 22v3h-193q-77 0 -109 -23t-36 -94l-2 -20l-6 1l11 212l7 -1l-3 -67q9 9 26 9h394v-9q-10 0 -30.5 -20t-43.5 -58l-259 -418q-33 -52 -48 -63v-3h37q55 0 223.5 -24.5t243.5 -24.5q121 0 202.5 57.5t102.5 156.5 q-19 -37 -56 -59t-82 -22q-82 0 -132.5 40.5t-50.5 106.5v482q0 30 -30 30h-47v9h57q37 0 63.5 12.5t26.5 40.5v4h8v-85v-519q0 -46 29 -74.5t76 -28.5q56 0 95.5 37t39.5 89q0 48 -35 81.5t-85 33.5q-19 0 -32 12.5t-13 30.5h20q67 0 115 -46.5t48 -111.5q0 -156 -99 -251 t-260 -95q-59 0 -142 25t-160.5 50t-122.5 25h-151z" />
<glyph unicode="&#x17a;l" horiz-adv-x="960" d="M0 0v9q24 0 72 78l259 420q12 23 32.5 40t39.5 22v3h-193q-77 0 -109 -23t-36 -94l-2 -20l-6 1l11 212l7 -1l-3 -67q9 9 26 9h394v-9q-10 0 -30.5 -20t-43.5 -58l-259 -418q-33 -52 -48 -63v-3h37q55 0 223.5 -24.5t243.5 -24.5q121 0 202.5 57.5t102.5 156.5 q-19 -37 -56 -59t-82 -22q-82 0 -132.5 40.5t-50.5 106.5v482q0 30 -30 30h-47v9h57q37 0 63.5 12.5t26.5 40.5v4h8v-85v-519q0 -46 29 -74.5t76 -28.5q56 0 95.5 37t39.5 89q0 48 -35 81.5t-85 33.5q-19 0 -32 12.5t-13 30.5h20q67 0 115 -46.5t48 -111.5q0 -156 -99 -251 t-260 -95q-59 0 -142 25t-160.5 50t-122.5 25h-151zM217 626l-9 8l118 139q4 5 10 5q5 0 10 -4l16 -13l-24 -30z" />
<glyph unicode="&#x7a;&#x142;" horiz-adv-x="995" d="M0 0v9q24 0 72 78l259 420q12 23 32.5 40t39.5 22v3h-193q-77 0 -109 -23t-36 -94l-2 -20l-6 1l11 212l7 -1l-3 -67q9 9 26 9h389v-9q-21 0 -69 -78l-259 -418q-33 -52 -48 -63v-3h37q55 0 223.5 -24.5t243.5 -24.5q126 0 215 57t113 154q-19 -35 -55.5 -56.5 t-80.5 -21.5q-82 0 -132.5 40.5t-50.5 106.5v178l-112 -84l-17 21l129 96v271q0 30 -30 30h-47v9h57q37 0 63.5 12.5t26.5 40.5v4h8v-85v-223l176 131l16 -21l-192 -144v-262q0 -46 29 -74.5t76 -28.5q56 0 95.5 37t39.5 89q0 48 -35 81.5t-85 33.5q-19 0 -32 12.5t-13 30.5 h20q67 0 115 -46.5t48 -111.5q0 -155 -107.5 -250.5t-276.5 -95.5q-59 0 -142 25t-160.5 50t-122.5 25h-151z" />
<glyph unicode="gluk" horiz-adv-x="2482" d="M335 580q-89 0 -143 -46t-54 -121q0 -89 57.5 -152.5t139.5 -63.5q92 0 148 52t56 137q0 80 -60 137t-144 57zM85 -18q0 -40 78 -66.5t197 -26.5q103 0 179 28.5t76 69.5q0 11 -4.5 18.5t-14.5 12.5t-20 8t-28 4t-30.5 1.5t-34.5 0.5h-37t-36 1.5t-37 4t-33.5 7.5 t-31.5 12.5t-25.5 18.5t-21 25.5t-12.5 34t-5 43.5v10q-86 20 -135 75.5t-49 134.5q0 82 80.5 140t193.5 58q148 0 226 -71q-1 10 -1 19q0 33 15 61t44 44l17 10q8 -14 8 -29q0 -20 -17 -30q-20 -11 -32 -32t-12 -44q0 -20 10 -37q25 -40 25 -89q0 -91 -83 -155.5 t-200 -64.5q-38 0 -72 6v-6q0 -42 33 -55.5t96 -13.5h62q40 0 67.5 -3.5t55.5 -15t42.5 -38t14.5 -66.5q0 -66 -82 -115.5t-191 -49.5q-126 0 -209.5 46t-83.5 114q0 45 36 76.5t87 31.5h20q0 -18 -13 -30.5t-32 -12.5q-33 0 -56.5 -19t-23.5 -46zM1408 196v313 q0 39 -11.5 55t-45.5 16h-37v9h185v-9h-16q-34 0 -45.5 -16t-11.5 -55v-320q-79 -87 -193 -87q-90 0 -144.5 47.5t-54.5 124.5v253q0 36 -9 44.5t-45 8.5h-31v9h260v-9h-44q-36 0 -44.5 -8.5t-8.5 -44.5v-289q0 -58 31 -88t90 -30q105 0 175 76zM760 254v477q0 30 -30 30 h-45v9h55q37 0 63.5 12.5t26.5 40.5v4h8v-85v-467q-9 -21 -9 -40q0 -84 58.5 -154.5t160 -111.5t220.5 -41q120 0 220.5 29t158.5 79t58 110q0 40 -25 66t-67 29h-87v9h35q36 0 44.5 8t8.5 44v429q0 30 -30 30h-47v9h57q37 0 63.5 12.5t26.5 40.5v4h8v-85v-420q54 0 65 14 l158 179q18 20 18 38q0 27 -52 27h-9v9h221v-13h-12q-87 0 -145 -65l-160 -181v-4q49 -6 104 -44t99 -88q16 -18 39.5 -50.5t40 -52t41 -41t56.5 -32t72 -10.5q86 0 138.5 53t52.5 140q0 58 -41 99t-99 41q-19 0 -32 12.5t-13 30.5h20q76 0 129.5 -53.5t53.5 -129.5 q0 -100 -61.5 -161t-162.5 -61q-54 0 -100.5 13.5t-77.5 33.5t-61 50t-48.5 56t-42.5 58.5t-41 50.5q-30 32 -58.5 52t-46.5 20h-45v-11q0 -33 14 -84q12 -45 12 -72q0 -67 -62.5 -124t-169.5 -90t-233 -33q-135 0 -247.5 45t-179 127t-66.5 183z" />
<glyph unicode="f&#xfc;" horiz-adv-x="986" d="M974 18v-9q-69 -3 -135 -18v8q4 27 4 57v140h-9q-15 -103 -69.5 -153.5t-129.5 -50.5q-76 0 -122.5 41.5t-46.5 109.5v378q0 30 -30 30h-47v9h57q37 0 64.5 12.5t27.5 40.5v4h8v-85v-380q0 -64 27 -103t71 -39q81 0 130 70t49 185v262q0 36 -9 44.5t-45 8.5h-17v9l155 4 v-8q-4 -24 -4 -53v-461q0 -36 9 -44.5t45 -8.5h17zM775 782q20 0 32 -11.5t12 -32.5q0 -20 -11.5 -32t-32.5 -12q-20 0 -32.5 11.5t-12.5 32.5q0 20 12 32t33 12zM592 768q-12 43 -75 71.5t-147 28.5q-100 0 -161 -44.5t-61 -116.5q0 -69 34 -128h139v-27h-137v-515 q0 -18 -8 -26v-2h84v-9h-242v9h42q28 0 37 11.5t9 41.5v490h-88v27h88q-6 18 -14 60.5t-8 67.5q0 83 75.5 133.5t198.5 50.5q105 0 179.5 -40.5t74.5 -98.5q0 -24 -15.5 -41t-37.5 -17q-20 0 -32.5 12t-12.5 33q0 18 13 31t32 13q20 0 33 -15z" />
<glyph unicode="www" horiz-adv-x="2625" d="M1517 -4l-56 -5l-147 492l-147 -488l-56 -4l-199 527q-35 92 -98 92h-15v9h174v-13q0 -31 17 -74l168 -427q6 -15 6 -36h10q0 13 7 36l123 409l-1 4q-11 37 -22 49.5t-37 12.5h-78v9h224v-9h-40v-2q20 -7 31 -46l128 -427q6 -20 6 -36h14q0 18 10 42l120 285q10 25 10 51 q0 43 -26.5 73t-72.5 30h-17v9h18q52 0 85 -33t33 -81q0 -26 -11 -52zM2291 -9l-147 492l-147 -488l-56 -4l-199 527q-35 92 -98 92h-15v9h174v-13q0 -31 17 -74l168 -427q6 -15 6 -36h10q0 13 7 36l123 409l-1 4q-11 37 -22 49.5t-37 12.5h-63v9h224v-9h-55v-2 q19 -7 31 -46l128 -427q6 -20 6 -36h14q0 16 9 39l159 411q7 18 7 29q0 32 -50 32h-38v9h170v-9h-15q-22 0 -32.5 -13.5t-22.5 -48.5l-199 -522zM687 -4l-56 -5l-147 492l-147 -488l-56 -4l-199 527q-15 39 -24.5 50.5t-33.5 11.5h-15v9h144v-14q0 -19 7 -43l168 -427 q6 -15 6 -36h10q0 13 7 36l123 409l-1 4q-11 37 -22 49.5t-37 12.5h-78v9h224v-9h-40v-2q20 -7 31 -46l128 -427q6 -20 6 -36h14q0 18 10 42l120 285q10 25 10 51q0 43 -26.5 73t-72.5 30h-17v9h18q52 0 85 -33t33 -81q0 -26 -11 -52z" />
<glyph unicode="ms" horiz-adv-x="1345" d="M18 0v9h35q36 0 44.5 8.5t8.5 44.5v440q0 14 -9 23t-24 9h-4l-59 -5l-1 6l77 16q32 6 51 25t19 48v4h8v-131q0 -72 -2 -92h9q6 42 16 69q47 123 158 123q73 0 103 -35t30 -97v-60h4q1 22 10.5 52.5t14.5 40.5q26 49 61 74t87 25q67 0 108 -35t41 -98v-252q1 -100 61 -165 t162 -65t156 42t54 122q0 22 -9 40.5t-22 31t-36 24.5t-41 19t-47 17q-33 11 -52.5 19t-45.5 22t-40.5 29t-25 37.5t-10.5 49.5q0 73 54 117.5t143 44.5q74 0 133 -44q11 -8 16 -23l7 2q-2 8 -4 32l-3 53h10l11 -236l-18 -1l-2 42q-3 65 -41.5 111t-108.5 46 q-61 0 -94 -31.5t-33 -90.5q0 -17 8 -31.5t19 -24t32 -20.5t36.5 -17t43.5 -16q25 -9 40 -15t38.5 -16.5t37.5 -20t31 -24t26 -30t15.5 -36t6.5 -44.5q0 -89 -78.5 -143.5t-206.5 -54.5q-58 0 -110.5 19.5t-89.5 50.5t-61.5 62t-39.5 62v297q0 59 -22 92t-58 33 q-68 0 -110 -63.5t-42 -167.5v-287q0 -36 9 -44.5t45 -8.5h26v-9h-216v9h67v2q-9 9 -9 26v418q0 59 -22 92t-58 33q-68 0 -110 -63.5t-42 -167.5v-287q0 -36 9 -44.5t45 -8.5h35v-9h-255z" />
<glyph unicode="&#xe4;t" horiz-adv-x="1098" d="M202 782q20 0 32.5 -11.5t12.5 -32.5q0 -20 -12 -32t-33 -12q-20 0 -32 11.5t-12 32.5q0 20 11.5 32t32.5 12zM398 782q20 0 32 -11.5t12 -32.5q0 -20 -11.5 -32t-32.5 -12q-20 0 -32.5 11.5t-12.5 32.5q0 20 12 32t33 12zM529 415v-200q0 -93 60.5 -150t159.5 -57 q102 0 183 51.5t109 132.5q-20 -32 -55 -51t-76 -19q-80 0 -129 39t-49 103v288h-121v27h65q41 0 71.5 32.5t41.5 63.5t11 47v117h10v-217q0 -36 -13 -42v-1h262v-27h-249v-314q0 -44 27.5 -71t72.5 -27q56 0 95.5 37t39.5 89q0 48 -35 81.5t-85 33.5q-19 0 -32 12.5 t-13 30.5h20q67 0 115 -46.5t48 -111.5q0 -119 -96 -203t-231 -84q-115 0 -187 62t-76 163h-4l-7 -50q-14 -56 -54 -94.5t-82 -53t-82 -14.5q-94 0 -151.5 43.5t-57.5 115.5q0 82 57 132.5t151 50.5q61 0 104.5 -33.5t43.5 -80.5q0 -19 -12.5 -32t-30.5 -13v47 q0 39 -31 66.5t-74 27.5q-58 0 -93 -44.5t-35 -117.5q0 -61 39 -98t102 -37q81 0 138 60.5t57 146.5v202q0 68 -49 109.5t-129 41.5q-72 0 -112 -37.5t-43 -98.5l-3 -62h-18l11 236h10l-3 -53q-2 -24 -4 -32l7 -2q5 15 16 23q59 44 138 44q116 0 186.5 -50t70.5 -132z" />
<glyph unicode="&#xfc;n" horiz-adv-x="1260" d="M833 116q0 -57 -44.5 -97t-107.5 -40q-89 0 -152 78.5t-63 189.5h-5l-4 -51q-15 -103 -69.5 -153.5t-129.5 -50.5q-76 0 -122.5 39.5t-46.5 111.5v378q0 30 -30 30h-47v9h57q37 0 64.5 12.5t27.5 40.5v4h8v-85v-380q0 -68 26.5 -105t71.5 -37q81 0 130 70t49 185v262 q0 36 -9 44.5t-45 8.5h-17v9l155 4v-8q-4 -24 -4 -53v-318q0 -87 48.5 -149t116.5 -62q55 0 94 33t39 80q0 40 -25 66t-67 29h-91v9h35q36 0 44.5 8.5t8.5 44.5v229q0 14 -9 23t-24 9h-4l-59 -5l-1 6l77 16q32 6 53 25t21 48v4h8v-131q0 -87 -2 -105h7q3 27 16 65 q22 64 71.5 102t111.5 38q80 0 124 -41t44 -110v-384q0 -36 8.5 -44.5t44.5 -8.5h36v-9h-255v9h97v2q-9 9 -9 26v392q0 151 -98 151q-78 0 -129 -68t-51 -176v-63q0 -36 9 -44.5t45 -8.5h35v-9h-125q29 -12 45.5 -37t16.5 -58zM202 782q20 0 32.5 -11.5t12.5 -32.5 q0 -20 -12 -32t-33 -12q-20 0 -32 11.5t-12 32.5q0 20 11.5 32t32.5 12zM398 782q20 0 32 -11.5t12 -32.5q0 -20 -11.5 -32t-32.5 -12q-20 0 -32.5 11.5t-12.5 32.5q0 20 12 32t33 12z" />
<glyph unicode="&#x17e;e" horiz-adv-x="1100" d="M278 686h-28l-102 100l18 20l49 -49q14 -14 25 -27.5t16.5 -22t5.5 -10.5h4q0 12 48 60l49 49l18 -20zM819 388q-27 0 -46 -17.5t-19 -42.5v-56q-18 0 -30.5 13t-12.5 31q0 39 31.5 66.5t76.5 27.5h146q8 0 8 9q0 72 -43.5 116t-114.5 44q-89 0 -143.5 -59.5 t-54.5 -156.5q0 -101 61.5 -172t147.5 -71q73 0 131 26.5t95 74.5l12 -12q-85 -107 -238 -107q-120 0 -205.5 72t-85.5 173q0 104 83.5 177t200.5 73q106 0 170.5 -49t64.5 -129v-5q0 -12 -9 -20.5t-22 -8.5zM0 0v9q24 0 72 78l259 420q13 23 33.5 40t38.5 22v3h-193 q-76 0 -108.5 -23t-36.5 -94l-1 -20l-7 1l11 212l7 -1l-3 -67q9 9 26 9h389v-9q-21 0 -69 -78l-259 -418q-33 -52 -48 -63v-3h38q73 0 310.5 -34.5t338.5 -34.5q186 0 262 84l6 -6q-142 -157 -327 -157q-78 0 -194 32.5t-224 65t-168 32.5h-153z" />
<glyph unicode="n&#xed;" horiz-adv-x="917" d="M106 62v440q0 14 -9 23t-24 9h-4l-59 -5l-1 6l77 16q32 7 53 25.5t21 47.5v4h8v-131q0 -87 -2 -105h7q3 27 16 65q22 64 71.5 102t111.5 38q80 0 124 -41t44 -110v-252q0 -84 46.5 -135t123.5 -51q49 0 83.5 31.5t34.5 76.5q0 40 -25 66t-67 29h-81v9h35q36 0 44.5 8 t8.5 44v249q0 30 -30 30h-47v9h57q37 0 63.5 12.5t26.5 40.5v4h8v-85v-260q0 -36 9 -44t45 -8h35v-9h-135q29 -12 45.5 -37t16.5 -58q0 -57 -44.5 -97t-107.5 -40q-100 0 -161.5 72.5t-61.5 191.5v186q0 151 -98 151q-78 0 -129 -68t-51 -176v-274q0 -36 9 -44.5t45 -8.5h35 v-9h-255v9h35q36 0 44.5 8.5t8.5 44.5zM722 657l-9 8l118 139q4 5 10 5q5 0 10 -4l16 -13l-24 -30z" />
<glyph unicode="K&#xe9;" horiz-adv-x="1230" d="M883 657l-9 8l118 139q4 5 10 5q5 0 10 -4l16 -13l-24 -30zM666 357q0 99 83.5 169.5t200.5 70.5q106 0 170.5 -49t64.5 -129v-5q0 -12 -9 -20.5t-22 -8.5l-204 3q-27 0 -46 -17.5t-19 -42.5v-56q-18 0 -30.5 13t-12.5 31q0 39 31.5 66.5t76.5 27.5h146q8 0 8 9 q0 72 -43.5 116t-114.5 44q-89 0 -143.5 -56.5t-54.5 -149.5q0 -95 61.5 -162.5t147.5 -67.5q82 0 150.5 44.5t68.5 98.5h18q0 -61 -74 -112.5t-163 -51.5q-120 0 -205.5 69t-85.5 166zM18 0v9h35q36 0 44.5 10t8.5 52v586q0 36 -8.5 44.5t-44.5 8.5h-35v9h229v-9h-9 q-36 0 -45 -8t-9 -43v-227q54 0 65 14l158 199q18 22 18 38q0 27 -52 27h-9v9h226v-9h-17q-38 0 -78 -16.5t-69 -52.5l-159 -201l1 -4q34 -8 64 -25.5t58.5 -48t47 -54.5t48.5 -67q24 -34 38.5 -54t40.5 -50.5t46.5 -49t51.5 -41t61.5 -34.5t70.5 -20.5t83 -8.5 q54 0 108 13.5t95 33.5t67.5 36t42.5 29l5 -7q-61 -53 -157 -94.5t-197 -41.5q-51 0 -97.5 11t-82.5 25.5t-73 42t-61 49.5t-54.5 59t-46.5 58.5t-43 60.5q-24 35 -37.5 53t-35 43t-37 37.5t-36.5 22t-42 9.5h-12v-352q0 -42 9 -52t45 -10h35v-9h-255z" />
<glyph unicode="&#xe9;s" horiz-adv-x="1128" d="M303 657l-9 8l118 139q4 5 10 5q5 0 10 -4l16 -13l-24 -30zM37 328q0 111 89 190t215 79q120 0 192.5 -65.5t72.5 -172.5v-5q0 -12 -8.5 -20.5t-21.5 -8.5h-1l-269 3q-31 0 -53 -20.5t-22 -49.5v-56q-18 0 -30.5 13t-12.5 31q0 43 34.5 73.5t83.5 30.5h209q8 0 8 9 q0 99 -51 159.5t-135 60.5q-96 0 -155 -68t-59 -179t65.5 -196.5t185 -132t275.5 -46.5q167 0 269 52t102 137q0 25 -11.5 45t-34.5 35t-45.5 25t-56 21.5t-53.5 19.5t-47.5 23t-42.5 30t-26.5 38.5t-11.5 51.5q0 73 54 117.5t143 44.5q74 0 133 -44q11 -8 16 -23l7 2 q-2 8 -4 32l-3 53h10l11 -236l-18 -1l-2 42q-3 65 -41.5 111t-108.5 46q-61 0 -94 -31.5t-33 -90.5q0 -17 8 -31.5t19.5 -24.5t32.5 -20.5t37.5 -17t44.5 -15.5q33 -12 56 -21.5t50.5 -25.5t44.5 -34.5t29 -45.5t12 -59q0 -101 -126 -163t-332 -62q-270 0 -435 107.5 t-165 283.5z" />
<glyph unicode="&#xe1;t" horiz-adv-x="1098" d="M253 657l-9 8l118 139q4 5 10 5q5 0 10 -4l16 -13l-24 -30zM529 415v-200q0 -93 60.5 -150t159.5 -57q102 0 183 51.5t109 132.5q-20 -32 -55 -51t-76 -19q-80 0 -129 39t-49 103v288h-121v27h65q41 0 71.5 32.5t41.5 63.5t11 47v117h10v-217q0 -36 -13 -42v-1h262v-27 h-249v-314q0 -44 27.5 -71t72.5 -27q56 0 95.5 37t39.5 89q0 48 -35 81.5t-85 33.5q-19 0 -32 12.5t-13 30.5h20q67 0 115 -46.5t48 -111.5q0 -119 -96 -203t-231 -84q-115 0 -187 62t-76 163h-4l-7 -50q-14 -56 -54 -94.5t-82 -53t-82 -14.5q-94 0 -151.5 43.5t-57.5 115.5 q0 82 57 132.5t151 50.5q61 0 104.5 -33.5t43.5 -80.5q0 -19 -12.5 -32t-30.5 -13v47q0 39 -31 66.5t-74 27.5q-58 0 -93 -44.5t-35 -117.5q0 -61 39 -98t102 -37q81 0 138 60.5t57 146.5v202q0 68 -49 109.5t-129 41.5q-72 0 -112 -37.5t-43 -98.5l-3 -62h-18l11 236h10 l-3 -53q-2 -24 -4 -32l7 -2q5 15 16 23q59 44 138 44q116 0 186.5 -50t70.5 -132z" />
<glyph unicode="&#xe9;t" horiz-adv-x="1127" d="M303 657l-9 8l118 139q4 5 10 5q5 0 10 -4l16 -13l-24 -30zM41 297q0 124 89 212t215 88q120 0 192.5 -65.5t72.5 -172.5v-5q0 -12 -8.5 -20.5t-21.5 -8.5h-1l-274 3q-31 0 -53 -20.5t-22 -49.5v-56q-18 0 -30.5 13t-12.5 31q0 43 34.5 73.5t83.5 30.5h214q8 0 8 9 q0 99 -51 159.5t-135 60.5q-96 0 -155.5 -73t-59.5 -193q0 -159 131.5 -255.5t346.5 -96.5q164 0 292.5 63.5t170.5 161.5q-21 -29 -55 -46.5t-73 -17.5q-80 0 -129 39t-49 103v288h-131v27h75q41 0 71.5 32.5t41.5 63.5t11 47v117h10v-217q0 -36 -13 -42v-1h262v-27h-249 v-314q0 -44 27.5 -71t72.5 -27q56 0 95.5 37t39.5 89q0 48 -35 81.5t-85 33.5q-19 0 -32 12.5t-13 30.5h20q67 0 115 -46.5t48 -111.5q0 -91 -67.5 -169t-183.5 -123t-252 -45q-163 0 -287.5 45.5t-192.5 129.5t-68 193z" />
<glyph unicode="&#xe9;l" horiz-adv-x="1082" d="M303 657l-9 8l118 139q4 5 10 5q5 0 10 -4l16 -13l-24 -30zM804 742v-504q0 -44 27.5 -71t72.5 -27q56 0 95.5 37t39.5 89q0 48 -35 81.5t-85 33.5q-19 0 -32 12.5t-13 30.5h20q67 0 115 -46.5t48 -111.5q0 -91 -64 -169t-174 -123t-240 -45q-160 0 -282 45.5t-189 129.5 t-67 193q0 124 89 212t215 88q120 0 192.5 -65.5t72.5 -172.5v-5q0 -12 -8.5 -20.5t-21.5 -8.5h-1l-274 3q-31 0 -53 -20.5t-22 -49.5v-56q-18 0 -30.5 13t-12.5 31q0 43 34.5 73.5t83.5 30.5h214q8 0 8 9q0 99 -51 159.5t-135 60.5q-96 0 -155.5 -73t-59.5 -193 q0 -159 128.5 -255.5t339.5 -96.5q157 0 279 64.5t161 163.5q-21 -31 -55.5 -49t-74.5 -18q-80 0 -129 39t-49 103v467q0 30 -30 30h-47v9h57q37 0 63.5 12.5t26.5 40.5v4h8v-85z" />
<glyph unicode="&#xed;t" horiz-adv-x="747" d="M95 244v277q0 30 -30 30h-45v9h55q37 0 63.5 12.5t26.5 40.5v4h8v-85v-287q-9 -21 -9 -40q0 -89 65.5 -143t173.5 -54q107 0 189 66.5t104 167.5q-19 -36 -56 -58t-81 -22q-80 0 -129 39t-49 103v248h-131v27h75q41 0 71.5 32.5t41.5 63.5t11 47v117h10v-217 q0 -36 -13 -42v-1h262v-27h-249v-274q0 -44 27.5 -71t72.5 -27q56 0 95.5 37t39.5 89q0 48 -35 81.5t-85 33.5q-19 0 -32 12.5t-13 30.5h20q67 0 115 -46.5t48 -111.5q0 -135 -95 -231t-229 -96q-132 0 -212.5 73t-80.5 192zM87 657l-9 8l118 139q4 5 10 5q4 0 10 -4l12 -10 l-24 -30z" />
<glyph unicode="&#x7a;&#xe1;" horiz-adv-x="1035" d="M875 384v64q0 64 -29 98t-84 34q-72 0 -114.5 -38.5t-45.5 -98.5l-3 -22h-18l11 196h10l-3 -53q-2 -24 -4 -32l7 -2q5 15 16 23q59 44 143 44q95 0 144.5 -41.5t49.5 -120.5v-284q0 -31 5.5 -41t27.5 -10q3 0 9.5 0.5t10.5 0.5l17 1l1 -9q-62 -6 -111 -22v8 q0 25 -9.5 82.5t-9.5 72.5h-10q-40 -162 -168 -162q-85 0 -137 39.5t-52 104.5q0 76 73.5 122t194.5 46h78zM875 366h-73q-84 0 -135 -41.5t-51 -108.5q0 -53 31.5 -85t82.5 -32q58 0 101.5 53.5t43.5 153.5v60zM0 0v9q24 0 72 78l259 420q13 23 33.5 40t38.5 22v3h-193 q-76 0 -108.5 -23t-36.5 -94l-1 -20l-7 1l11 212l7 -1l-3 -67q9 9 26 9h389v-9q-21 0 -69 -78l-259 -418q-33 -52 -48 -63v-3h38q74 0 281.5 -39.5t307.5 -39.5q186 0 262 84l6 -6q-142 -157 -327 -157q-78 0 -179 35t-194 70t-153 35h-153zM703 657l-9 8l118 139q4 5 10 5 q5 0 10 -4l16 -13l-24 -30z" />
<glyph unicode="k&#xf6;" horiz-adv-x="1231" d="M828 782q20 0 32.5 -11.5t12.5 -32.5q0 -20 -12 -32t-33 -12q-20 0 -32 11.5t-12 32.5q0 20 11.5 32t32.5 12zM1024 782q20 0 32 -11.5t12 -32.5q0 -20 -11.5 -32t-32.5 -12q-20 0 -32.5 11.5t-12.5 32.5q0 20 12 32t33 12zM915 122q-114 0 -195 69.5t-81 168.5 q0 107 76 172t200 65q113 0 193.5 -69.5t80.5 -167.5q0 -107 -75.5 -172.5t-198.5 -65.5zM918 140q76 0 130 59t54 142q0 107 -52.5 172.5t-138.5 65.5q-77 0 -131 -59t-54 -142q0 -107 53 -172.5t139 -65.5zM18 0v9h35q36 0 44.5 8t8.5 44v670q0 30 -30 30h-47v9h57 q37 0 63.5 12.5t26.5 40.5v4h8v-85v-420q70 0 82 15l141 178q18 22 18 38q0 27 -52 27h-9v9h226v-9h-17q-38 0 -78 -16t-69 -53l-143 -181l1 -4q28 -4 70.5 -35.5t72.5 -64.5q112 -124 226.5 -184t216.5 -60q57 0 112.5 13t97 33t68 36.5t43.5 30.5l5 -7q-70 -61 -169 -98 t-206 -37q-118 0 -240.5 61t-221.5 177l-21 25q-33 39 -72 68t-70 29h-12v-252q0 -36 9 -44t45 -8h35v-9h-255z" />
<glyph unicode="&#x101;t" horiz-adv-x="1098" d="M436 726h-273l2 26h273zM529 415v-200q0 -93 60.5 -150t159.5 -57q102 0 183 51.5t109 132.5q-20 -32 -55 -51t-76 -19q-80 0 -129 39t-49 103v288h-121v27h65q41 0 71.5 32.5t41.5 63.5t11 47v117h10v-217q0 -36 -13 -42v-1h262v-27h-249v-314q0 -44 27.5 -71t72.5 -27 q56 0 95.5 37t39.5 89q0 48 -35 81.5t-85 33.5q-19 0 -32 12.5t-13 30.5h20q67 0 115 -46.5t48 -111.5q0 -119 -96 -203t-231 -84q-115 0 -187 62t-76 163h-4l-7 -50q-14 -56 -54 -94.5t-82 -53t-82 -14.5q-94 0 -151.5 43.5t-57.5 115.5q0 82 57 132.5t151 50.5 q61 0 104.5 -33.5t43.5 -80.5q0 -19 -12.5 -32t-30.5 -13v47q0 39 -31 66.5t-74 27.5q-58 0 -93 -44.5t-35 -117.5q0 -61 39 -98t102 -37q81 0 138 60.5t57 146.5v202q0 68 -49 109.5t-129 41.5q-72 0 -112 -37.5t-43 -98.5l-3 -62h-18l11 236h10l-3 -53q-2 -24 -4 -32l7 -2 q5 15 16 23q59 44 138 44q116 0 186.5 -50t70.5 -132z" />
<glyph unicode="&#x113;t" horiz-adv-x="1127" d="M436 726h-273l2 26h273zM41 297q0 124 89 212t215 88q120 0 192.5 -65.5t72.5 -172.5v-5q0 -12 -8.5 -20.5t-21.5 -8.5h-1l-274 3q-31 0 -53 -20.5t-22 -49.5v-56q-18 0 -30.5 13t-12.5 31q0 43 34.5 73.5t83.5 30.5h214q8 0 8 9q0 99 -51 159.5t-135 60.5 q-96 0 -155.5 -73t-59.5 -193q0 -159 131.5 -255.5t346.5 -96.5q164 0 292.5 63.5t170.5 161.5q-21 -29 -55 -46.5t-73 -17.5q-80 0 -129 39t-49 103v288h-131v27h75q41 0 71.5 32.5t41.5 63.5t11 47v117h10v-217q0 -36 -13 -42v-1h262v-27h-249v-314q0 -44 27.5 -71 t72.5 -27q56 0 95.5 37t39.5 89q0 48 -35 81.5t-85 33.5q-19 0 -32 12.5t-13 30.5h20q67 0 115 -46.5t48 -111.5q0 -91 -67.5 -169t-183.5 -123t-252 -45q-163 0 -287.5 45.5t-192.5 129.5t-68 193z" />
<glyph unicode="&#x101;k" horiz-adv-x="1256" d="M436 726h-273l2 26h273zM35 151q0 82 57 132.5t151 50.5q61 0 104.5 -33.5t43.5 -80.5q0 -19 -12.5 -32t-30.5 -13v47q0 39 -31 66.5t-74 27.5q-58 0 -93 -44.5t-35 -117.5q0 -61 39 -98t102 -37q81 0 138 60.5t57 146.5v202q0 68 -49 109.5t-129 41.5q-72 0 -112 -37.5 t-43 -98.5l-3 -62h-18l11 236h10l-3 -53q-2 -24 -4 -32l7 -2q5 15 16 23q59 44 138 44q116 0 186.5 -50t70.5 -132v-241q0 -71 48.5 -121t116.5 -50q54 0 88.5 32.5t34.5 80.5q0 40 -25 66t-67 29h-91v9h35q36 0 44.5 8t8.5 44v459q0 30 -30 30h-47v9h57q37 0 63.5 12.5 t26.5 40.5v4h8v-85v-420q81 0 92 14l158 179q18 20 18 38q0 27 -52 27h-9v9h221v-9h-12q-84 0 -145 -69l-160 -181v-4q45 -10 77.5 -26.5t50.5 -33t29.5 -41.5t15.5 -43.5t8 -46.5q8 -63 27 -92.5t61 -29.5q26 0 41.5 17.5t15.5 46.5q0 38 -24.5 59t-62.5 26q0 15 39 15 q23 -14 40 -41t17 -59q0 -40 -25.5 -64t-67.5 -24q-67 0 -97 40.5t-45 125.5q-5 29 -9.5 47t-16.5 41.5t-29 37t-46.5 23t-70.5 9.5h-39v-41q0 -33 14 -84q12 -45 12 -72q0 -58 -40 -97.5t-102 -39.5q-88 0 -150 58t-62 140h-5l-5 -23q-14 -56 -54 -94.5t-82 -53t-82 -14.5 q-94 0 -151.5 43.5t-57.5 115.5z" />
<glyph unicode="&#x117;s" horiz-adv-x="1128" d="M345 800q20 0 32 -11.5t12 -32.5q0 -20 -11.5 -32.5t-32.5 -12.5q-20 0 -32.5 12t-12.5 33q0 20 12 32t33 12zM37 328q0 111 89 190t215 79q120 0 192.5 -65.5t72.5 -172.5v-5q0 -12 -8.5 -20.5t-21.5 -8.5h-1l-269 3q-31 0 -53 -20.5t-22 -49.5v-56q-18 0 -30.5 13 t-12.5 31q0 43 34.5 73.5t83.5 30.5h209q8 0 8 9q0 99 -51 159.5t-135 60.5q-96 0 -155 -68t-59 -179t65.5 -196.5t185 -132t275.5 -46.5q167 0 269 52t102 137q0 25 -11.5 45t-34.5 35t-45.5 25t-56 21.5t-53.5 19.5t-47.5 23t-42.5 30t-26.5 38.5t-11.5 51.5 q0 73 54 117.5t143 44.5q74 0 133 -44q11 -8 16 -23l7 2q-2 8 -4 32l-3 53h10l11 -236l-18 -1l-2 42q-3 65 -41.5 111t-108.5 46q-61 0 -94 -31.5t-33 -90.5q0 -17 8 -31.5t19.5 -24.5t32.5 -20.5t37.5 -17t44.5 -15.5q33 -12 56 -21.5t50.5 -25.5t44.5 -34.5t29 -45.5 t12 -59q0 -101 -126 -163t-332 -62q-270 0 -435 107.5t-165 283.5z" />
<glyph unicode="i&#x161;" horiz-adv-x="755" d="M95 233v288q0 30 -30 30h-45v9h55q37 0 63.5 12.5t26.5 40.5v4h8v-85v-348q0 -84 66.5 -135.5t175.5 -51.5q104 0 168 43.5t64 115.5q0 18 -8.5 34t-20.5 27t-34 22t-39 17.5t-45 16.5q-34 11 -54 19t-47.5 22.5t-42.5 30t-26.5 39t-11.5 51.5q0 73 54 117.5t143 44.5 q74 0 133 -44q11 -8 16 -23l7 2q-2 8 -4 32l-3 53h10l11 -236l-18 -1l-2 42q-3 65 -41.5 111t-108.5 46q-61 0 -94 -31.5t-33 -90.5q0 -17 8.5 -31.5t19.5 -24.5t32.5 -20.5t38 -17t44.5 -16.5q34 -12 55.5 -20t50.5 -24t45 -32.5t28 -42t12 -56.5q0 -87 -84.5 -140 t-223.5 -53q-144 0 -231.5 70t-87.5 184zM133 820q20 0 32 -11.5t12 -32.5q0 -20 -11.5 -32.5t-32.5 -12.5q-20 0 -32.5 12t-12.5 33q0 20 12 32t33 12zM529 686h-28l-102 100l18 20l49 -49q14 -14 25 -27.5t16.5 -22t5.5 -10.5h4q0 12 48 60l49 49l18 -20z" />
<glyph unicode="&#xe8;s" horiz-adv-x="1128" d="M397 657l-121 105l-24 30l16 13q5 4 10 4q6 0 10 -5l118 -139zM37 328q0 111 89 190t215 79q120 0 192.5 -65.5t72.5 -172.5v-5q0 -12 -8.5 -20.5t-21.5 -8.5h-1l-269 3q-31 0 -53 -20.5t-22 -49.5v-56q-18 0 -30.5 13t-12.5 31q0 43 34.5 73.5t83.5 30.5h209q8 0 8 9 q0 99 -51 159.5t-135 60.5q-96 0 -155 -68t-59 -179t65.5 -196.5t185 -132t275.5 -46.5q167 0 269 52t102 137q0 25 -11.5 45t-34.5 35t-45.5 25t-56 21.5t-53.5 19.5t-47.5 23t-42.5 30t-26.5 38.5t-11.5 51.5q0 73 54 117.5t143 44.5q74 0 133 -44q11 -8 16 -23l7 2 q-2 8 -4 32l-3 53h10l11 -236l-18 -1l-2 42q-3 65 -41.5 111t-108.5 46q-61 0 -94 -31.5t-33 -90.5q0 -17 8 -31.5t19.5 -24.5t32.5 -20.5t37.5 -17t44.5 -15.5q33 -12 56 -21.5t50.5 -25.5t44.5 -34.5t29 -45.5t12 -59q0 -101 -126 -163t-332 -62q-270 0 -435 107.5 t-165 283.5z" />
<glyph unicode="&#xec;t" horiz-adv-x="747" d="M95 244v277q0 30 -30 30h-45v9h55q37 0 63.5 12.5t26.5 40.5v4h8v-85v-287q-9 -21 -9 -40q0 -89 65.5 -143t173.5 -54q107 0 189 66.5t104 167.5q-19 -36 -56 -58t-81 -22q-80 0 -129 39t-49 103v248h-131v27h75q41 0 71.5 32.5t41.5 63.5t11 47v117h10v-217 q0 -36 -13 -42v-1h262v-27h-249v-274q0 -44 27.5 -71t72.5 -27q56 0 95.5 37t39.5 89q0 48 -35 81.5t-85 33.5q-19 0 -32 12.5t-13 30.5h20q67 0 115 -46.5t48 -111.5q0 -135 -95 -231t-229 -96q-132 0 -212.5 73t-80.5 192zM181 657l-121 105l-24 30l16 13q5 4 10 4 q6 0 10 -5l118 -139z" />
<glyph unicode="h&#xe9;" horiz-adv-x="1229" d="M893 657l-9 8l118 139q4 5 10 5q5 0 10 -4l16 -13l-24 -30zM960 388q-27 0 -46 -17.5t-19 -42.5v-56q-18 0 -30.5 13t-12.5 31q0 39 31.5 66.5t76.5 27.5h146q8 0 8 9q0 72 -43.5 116t-114.5 44q-89 0 -143.5 -56.5t-54.5 -149.5q0 -96 61.5 -164.5t147.5 -68.5 q148 0 225 101l14 -12q-41 -52 -102 -79.5t-137 -27.5q-120 0 -205.5 69t-85.5 166q0 99 83.5 169.5t200.5 70.5q106 0 170.5 -49t64.5 -129v-5q0 -12 -9 -20.5t-22 -8.5zM18 0v9h35q36 0 44.5 8.5t8.5 44.5v669q0 30 -30 30h-47v9h57q37 0 63.5 12.5t26.5 40.5v4h8v-175 q0 -98 -18 -260h7q3 27 16 65q22 64 71.5 102t111.5 38q80 0 124 -41t44 -110v-206q0 -116 95 -187t250 -71q57 0 112.5 13t97 33t68 36.5t43.5 30.5l5 -7q-70 -61 -169 -98t-206 -37q-168 0 -271 85.5t-103 224.5v166q0 151 -98 151q-78 0 -129 -68t-51 -176v-274 q0 -36 9 -44.5t45 -8.5h35v-9h-255z" />
<glyph unicode="&#xed;s" horiz-adv-x="755" d="M95 233v288q0 30 -30 30h-45v9h55q37 0 63.5 12.5t26.5 40.5v4h8v-85v-348q0 -84 66.5 -135.5t175.5 -51.5q104 0 168 43.5t64 115.5q0 18 -8.5 34t-20.5 27t-34 22t-39 17.5t-45 16.5q-34 11 -54 19t-47.5 22.5t-42.5 30t-26.5 39t-11.5 51.5q0 73 54 117.5t143 44.5 q74 0 133 -44q11 -8 16 -23l7 2q-2 8 -4 32l-3 53h10l11 -236l-18 -1l-2 42q-3 65 -41.5 111t-108.5 46q-61 0 -94 -31.5t-33 -90.5q0 -17 8.5 -31.5t19.5 -24.5t32.5 -20.5t38 -17t44.5 -16.5q34 -12 55.5 -20t50.5 -24t45 -32.5t28 -42t12 -56.5q0 -87 -84.5 -140 t-223.5 -53q-144 0 -231.5 70t-87.5 184zM87 657l-9 8l118 139q4 5 10 5q5 0 10 -4l16 -13l-24 -30z" />
<glyph unicode="L&#xed;" horiz-adv-x="740" d="M18 0v9h35q35 0 44 11.5t9 48.5v589q0 36 -8.5 44t-44.5 8h-35v9h235v-9h-15q-36 0 -45 -8t-9 -44v-587q0 -30 -22 -52v-1h346q80 0 121.5 24t46.5 91l7 93q-21 -30 -54.5 -47t-72.5 -17q-80 0 -129 39t-49 103v217q0 30 -30 30h-42v9h52q37 0 63.5 12.5t26.5 40.5v4h8 v-85v-254q0 -44 27.5 -71t72.5 -27q56 0 95.5 37t39.5 89q0 48 -35 81.5t-85 33.5q-19 0 -32 12.5t-13 30.5h20q67 0 115 -46.5t48 -111.5l-25 -357l-10 1l4 59h-1q-9 -9 -27 -9h-632zM367 657l-9 8l118 139q4 5 10 5q4 0 10 -4l12 -10l-24 -30z" />
<glyph unicode="l&#xed;" horiz-adv-x="517" d="M160 742v-558q0 -79 44 -127.5t116 -48.5q49 0 83.5 31.5t34.5 76.5q0 40 -25 66t-67 29h-81v9h25q36 0 44.5 8t8.5 44v249q0 30 -30 30h-47v9h57q37 0 63.5 12.5t26.5 40.5v4h8v-85v-260q0 -36 9 -44t45 -8h35v-9h-125q29 -12 45.5 -37t16.5 -58q0 -57 -44.5 -97 t-107.5 -40q-96 0 -154.5 70t-58.5 184v498q0 30 -30 30h-47v9h57q37 0 63.5 12.5t26.5 40.5v4h8v-85zM317 657l-9 8l118 139q4 5 10 5q4 0 10 -4l12 -10l-24 -30z" />
<glyph unicode="ti" horiz-adv-x="803" d="M141 244v308h-131v27h75q41 0 71.5 32.5t41.5 63.5t11 47v117h10v-217q0 -36 -13 -42v-1h241q70 0 70 47v4h8v-98v-254q0 -44 27.5 -71t72.5 -27q56 0 95.5 37t39.5 89q0 48 -35 81.5t-85 33.5q-19 0 -32 12.5t-13 30.5h20q67 0 115 -46.5t48 -111.5q0 -135 -95 -231 t-229 -96q-141 0 -227 73t-86 192zM219 552v-307q-9 -21 -9 -40q0 -89 71 -143t188 -54q107 0 189 66.5t104 167.5q-19 -36 -56 -58t-81 -22q-80 0 -129 39t-49 103v218q0 30 -30 30h-198zM486 800q20 0 32 -11.5t12 -32.5q0 -20 -11.5 -32.5t-32.5 -12.5q-20 0 -32.5 12 t-12.5 33q0 20 12 32t33 12z" />
<glyph unicode="t&#xed;" horiz-adv-x="803" d="M141 244v308h-131v27h75q41 0 71.5 32.5t41.5 63.5t11 47v117h10v-217q0 -36 -13 -42v-1h241q70 0 70 47v4h8v-98v-254q0 -44 27.5 -71t72.5 -27q56 0 95.5 37t39.5 89q0 48 -35 81.5t-85 33.5q-19 0 -32 12.5t-13 30.5h20q67 0 115 -46.5t48 -111.5q0 -135 -95 -231 t-229 -96q-141 0 -227 73t-86 192zM219 552v-307q-9 -21 -9 -40q0 -89 71 -143t188 -54q107 0 189 66.5t104 167.5q-19 -36 -56 -58t-81 -22q-80 0 -129 39t-49 103v218q0 30 -30 30h-198zM451 657l-9 8l118 139q4 5 10 5q4 0 10 -4l12 -10l-24 -30z" />
<glyph unicode="&#x17c;i" horiz-adv-x="975" d="M264 800q20 0 32 -11.5t12 -32.5q0 -20 -11.5 -32.5t-32.5 -12.5q-20 0 -32.5 12t-12.5 33q0 20 12 32t33 12zM0 0v9q24 0 72 78l259 420q12 23 32.5 40t39.5 22v3h-193q-77 0 -109 -23t-36 -94l-2 -20l-6 1l11 212l7 -1l-3 -67q9 9 26 9h389v-9q-21 0 -69 -78l-259 -418 q-33 -52 -48 -63v-3h37q55 0 223.5 -24.5t243.5 -24.5q126 0 211.5 57.5t107.5 155.5q-19 -36 -56 -58t-81 -22q-82 0 -132.5 40.5t-50.5 106.5v272q0 30 -30 30h-47v9h57q37 0 63.5 12.5t26.5 40.5v4h8v-85v-309q0 -46 29 -74.5t76 -28.5q56 0 95.5 37t39.5 89 q0 48 -35 81.5t-85 33.5q-19 0 -32 12.5t-13 30.5h20q67 0 115 -46.5t48 -111.5q0 -156 -103 -251t-271 -95q-59 0 -142 25t-160.5 50t-122.5 25h-151zM652 800q20 0 32 -11.5t12 -32.5q0 -20 -11.5 -32.5t-32.5 -12.5q-20 0 -32.5 12t-12.5 33q0 20 12 32t33 12z" />
<glyph unicode="&#xe5;t" horiz-adv-x="1098" d="M300 800q-22 0 -42 -19t-20 -43q0 -23 20 -42.5t42 -19.5t42 19t20 43t-20 43t-42 19zM300 827q33 0 61 -27t28 -62t-28 -62t-61 -27t-60.5 27.5t-27.5 61.5q0 35 27.5 62t60.5 27zM529 415v-200q0 -93 60.5 -150t159.5 -57q102 0 183 51.5t109 132.5q-20 -32 -55 -51 t-76 -19q-80 0 -129 39t-49 103v288h-121v27h65q41 0 71.5 32.5t41.5 63.5t11 47v117h10v-217q0 -36 -13 -42v-1h262v-27h-249v-314q0 -44 27.5 -71t72.5 -27q56 0 95.5 37t39.5 89q0 48 -35 81.5t-85 33.5q-19 0 -32 12.5t-13 30.5h20q67 0 115 -46.5t48 -111.5 q0 -119 -96 -203t-231 -84q-115 0 -187 62t-76 163h-4l-7 -50q-14 -56 -54 -94.5t-82 -53t-82 -14.5q-94 0 -151.5 43.5t-57.5 115.5q0 82 57 132.5t151 50.5q61 0 104.5 -33.5t43.5 -80.5q0 -19 -12.5 -32t-30.5 -13v47q0 39 -31 66.5t-74 27.5q-58 0 -93 -44.5t-35 -117.5 q0 -61 39 -98t102 -37q81 0 138 60.5t57 146.5v202q0 68 -49 109.5t-129 41.5q-72 0 -112 -37.5t-43 -98.5l-3 -62h-18l11 236h10l-3 -53q-2 -24 -4 -32l7 -2q5 15 16 23q59 44 138 44q116 0 186.5 -50t70.5 -132z" />
<glyph unicode="&#xea;t" horiz-adv-x="1127" d="M364 809l103 -100l-17 -20l-49 49q-49 49 -49 60h-4q0 -12 -48 -60l-49 -49l-17 20l102 100h28zM41 297q0 124 89 212t215 88q120 0 192.5 -65.5t72.5 -172.5v-5q0 -12 -8.5 -20.5t-21.5 -8.5h-1l-274 3q-31 0 -53 -20.5t-22 -49.5v-56q-18 0 -30.5 13t-12.5 31 q0 43 34.5 73.5t83.5 30.5h214q8 0 8 9q0 99 -51 159.5t-135 60.5q-96 0 -155.5 -73t-59.5 -193q0 -159 131.5 -255.5t346.5 -96.5q164 0 292.5 63.5t170.5 161.5q-21 -29 -55 -46.5t-73 -17.5q-80 0 -129 39t-49 103v288h-131v27h75q41 0 71.5 32.5t41.5 63.5t11 47v117h10 v-217q0 -36 -13 -42v-1h262v-27h-249v-314q0 -44 27.5 -71t72.5 -27q56 0 95.5 37t39.5 89q0 48 -35 81.5t-85 33.5q-19 0 -32 12.5t-13 30.5h20q67 0 115 -46.5t48 -111.5q0 -91 -67.5 -169t-183.5 -123t-252 -45q-163 0 -287.5 45.5t-192.5 129.5t-68 193z" />
<glyph unicode="&#xe9;p" horiz-adv-x="1415" d="M41 297q0 124 89 212t215 88q120 0 192.5 -65.5t72.5 -172.5v-5q0 -12 -9 -20.5t-22 -8.5l-274 3q-31 0 -53 -20.5t-22 -49.5v-56q-18 0 -30.5 13t-12.5 31q0 43 34.5 73.5t83.5 30.5h214q8 0 8 9q0 99 -51 159.5t-135 60.5q-96 0 -155.5 -73t-59.5 -193 q0 -132 62.5 -213t163.5 -81q48 0 90.5 9t75.5 22.5t64 37t53 45.5t45 54.5t38.5 58t35.5 61.5v195q0 14 -9 23t-24 9h-4l-59 -5l-1 6l77 16q32 6 53 25t21 48v4h8v-131q0 -32 -5 -77h6q25 41 49.5 70t57.5 55t75.5 39t93.5 13q126 0 203.5 -83t77.5 -219q0 -125 -87.5 -214 t-211.5 -89q-82 0 -140 52t-58 126q0 70 53.5 119t129.5 49h20q0 -18 -13 -30.5t-32 -12.5q-63 0 -101.5 -34.5t-38.5 -90.5q0 -66 52.5 -113t127.5 -47q95 0 153.5 83.5t58.5 219.5q0 106 -55.5 181t-134.5 75q-62 0 -113.5 -23t-84.5 -57t-67 -86v-501q0 -36 9 -44.5 t45 -8.5h35v-9h-255v9h35q36 0 44.5 8.5t8.5 44.5v369q-29 -50 -52 -84t-60 -74t-76.5 -64t-96 -40.5t-122.5 -16.5q-138 0 -222 84t-84 221zM303 657l-9 8l118 139q4 5 10 5q5 0 10 -4l16 -13l-24 -30z" />
<glyph unicode="&#x17e;a" horiz-adv-x="1035" d="M278 686h-28l-102 100l18 20l49 -49q14 -14 25 -27.5t16.5 -22t5.5 -10.5h4q0 12 48 60l49 49l18 -20zM875 384v64q0 64 -29 98t-84 34q-72 0 -114.5 -38.5t-45.5 -98.5l-3 -22h-18l11 196h10l-3 -53q-2 -24 -4 -32l7 -2q5 15 16 23q59 44 143 44q95 0 144.5 -41.5 t49.5 -120.5v-284q0 -31 5.5 -41t27.5 -10q3 0 9.5 0.5t10.5 0.5l17 1l1 -9q-62 -6 -111 -22v8q0 25 -9.5 82.5t-9.5 72.5h-10q-40 -162 -168 -162q-85 0 -137 39.5t-52 104.5q0 76 73.5 122t194.5 46h78zM875 366h-73q-84 0 -135 -41.5t-51 -108.5q0 -53 31.5 -85t82.5 -32 q58 0 101.5 53.5t43.5 153.5v60zM0 0v9q24 0 72 78l259 420q13 23 33.5 40t38.5 22v3h-193q-76 0 -108.5 -23t-36.5 -94l-1 -20l-7 1l11 212l7 -1l-3 -67q9 9 26 9h389v-9q-21 0 -69 -78l-259 -418q-33 -52 -48 -63v-3h38q74 0 281.5 -39.5t307.5 -39.5q186 0 262 84l6 -6 q-142 -157 -327 -157q-78 0 -179 35t-194 70t-153 35h-153z" />
<glyph unicode="&#xef;s" horiz-adv-x="755" d="M95 233v288q0 30 -30 30h-45v9h55q37 0 63.5 12.5t26.5 40.5v4h8v-85v-348q0 -84 66.5 -135.5t175.5 -51.5q104 0 168 43.5t64 115.5q0 18 -8.5 34t-20.5 27t-34 22t-39 17.5t-45 16.5q-34 11 -54 19t-47.5 22.5t-42.5 30t-26.5 39t-11.5 51.5q0 73 54 117.5t143 44.5 q74 0 133 -44q11 -8 16 -23l7 2q-2 8 -4 32l-3 53h10l11 -236l-18 -1l-2 42q-3 65 -41.5 111t-108.5 46q-61 0 -94 -31.5t-33 -90.5q0 -17 8.5 -31.5t19.5 -24.5t32.5 -20.5t38 -17t44.5 -16.5q34 -12 55.5 -20t50.5 -24t45 -32.5t28 -42t12 -56.5q0 -87 -84.5 -140 t-223.5 -53q-144 0 -231.5 70t-87.5 184zM47 782q20 0 32.5 -11.5t12.5 -32.5q0 -20 -12 -32t-33 -12q-20 0 -32 11.5t-12 32.5q0 20 11.5 32t32.5 12zM243 782q20 0 32 -11.5t12 -32.5q0 -20 -11.5 -32t-32.5 -12q-20 0 -32.5 11.5t-12.5 32.5q0 20 12 32t33 12z" />
<glyph unicode="&#xe1;k" horiz-adv-x="1256" d="M35 151q0 82 57 132.5t151 50.5q61 0 104.5 -33.5t43.5 -80.5q0 -19 -12.5 -32t-30.5 -13v47q0 39 -31 66.5t-74 27.5q-58 0 -93 -44.5t-35 -117.5q0 -61 39 -98t102 -37q81 0 138 60.5t57 146.5v202q0 68 -49 109.5t-129 41.5q-72 0 -112 -37.5t-43 -98.5l-3 -62h-18 l11 236h10l-3 -53q-2 -24 -4 -32l7 -2q5 15 16 23q59 44 138 44q116 0 186.5 -50t70.5 -132v-241q0 -71 48.5 -121t116.5 -50q54 0 88.5 32.5t34.5 80.5q0 40 -25 66t-67 29h-91v9h35q36 0 44.5 8t8.5 44v459q0 30 -30 30h-47v9h57q37 0 63.5 12.5t26.5 40.5v4h8v-85v-420 q81 0 92 14l158 179q18 20 18 38q0 27 -52 27h-9v9h221v-9h-12q-84 0 -145 -69l-160 -181v-4q45 -10 77.5 -26.5t50.5 -33t29.5 -41.5t15.5 -43.5t8 -46.5q8 -63 27 -92.5t61 -29.5q26 0 41.5 17.5t15.5 46.5q0 38 -24.5 59t-62.5 26q0 15 39 15q23 -14 40 -41t17 -59 q0 -40 -25.5 -64t-67.5 -24q-67 0 -97 40.5t-45 125.5q-5 29 -9.5 47t-16.5 41.5t-29 37t-46.5 23t-70.5 9.5h-39v-41q0 -33 14 -84q12 -45 12 -72q0 -58 -40 -97.5t-102 -39.5q-88 0 -150 58t-62 140h-5l-5 -23q-14 -56 -54 -94.5t-82 -53t-82 -14.5q-94 0 -151.5 43.5 t-57.5 115.5zM253 657l-9 8l118 139q4 5 10 5q5 0 10 -4l16 -13l-24 -30z" />
<glyph unicode="&#xe4;k" horiz-adv-x="1256" d="M202 782q20 0 32.5 -11.5t12.5 -32.5q0 -20 -12 -32t-33 -12q-20 0 -32 11.5t-12 32.5q0 20 11.5 32t32.5 12zM398 782q20 0 32 -11.5t12 -32.5q0 -20 -11.5 -32t-32.5 -12q-20 0 -32.5 11.5t-12.5 32.5q0 20 12 32t33 12zM35 151q0 82 57 132.5t151 50.5 q61 0 104.5 -33.5t43.5 -80.5q0 -19 -12.5 -32t-30.5 -13v47q0 39 -31 66.5t-74 27.5q-58 0 -93 -44.5t-35 -117.5q0 -61 39 -98t102 -37q81 0 138 60.5t57 146.5v202q0 68 -49 109.5t-129 41.5q-72 0 -112 -37.5t-43 -98.5l-3 -62h-18l11 236h10l-3 -53q-2 -24 -4 -32l7 -2 q5 15 16 23q59 44 138 44q116 0 186.5 -50t70.5 -132v-241q0 -71 48.5 -121t116.5 -50q54 0 88.5 32.5t34.5 80.5q0 40 -25 66t-67 29h-91v9h35q36 0 44.5 8t8.5 44v459q0 30 -30 30h-47v9h57q37 0 63.5 12.5t26.5 40.5v4h8v-85v-420q81 0 92 14l158 179q18 20 18 38 q0 27 -52 27h-9v9h221v-9h-12q-84 0 -145 -69l-160 -181v-4q45 -10 77.5 -26.5t50.5 -33t29.5 -41.5t15.5 -43.5t8 -46.5q8 -63 27 -92.5t61 -29.5q26 0 41.5 17.5t15.5 46.5q0 38 -24.5 59t-62.5 26q0 15 39 15q23 -14 40 -41t17 -59q0 -40 -25.5 -64t-67.5 -24 q-67 0 -97 40.5t-45 125.5q-5 29 -9.5 47t-16.5 41.5t-29 37t-46.5 23t-70.5 9.5h-39v-41q0 -33 14 -84q12 -45 12 -72q0 -58 -40 -97.5t-102 -39.5q-88 0 -150 58t-62 140h-5l-5 -23q-14 -56 -54 -94.5t-82 -53t-82 -14.5q-94 0 -151.5 43.5t-57.5 115.5z" />
<glyph unicode="ik" horiz-adv-x="868" d="M95 233v288q0 30 -30 30h-45v9h55q37 0 63.5 12.5t26.5 40.5v4h8v-85v-348q0 -79 46.5 -127.5t123.5 -48.5q49 0 83.5 31.5t34.5 76.5q0 40 -25 66t-67 29h-81v9h25q36 0 44.5 8t8.5 44v459q0 30 -30 30h-47v9h57q37 0 63.5 12.5t26.5 40.5v4h8v-85v-420q54 0 65 14 l158 179q18 20 18 38q0 27 -52 27h-9v9h221v-9h-12q-84 0 -145 -69l-160 -181v-4q45 -10 77.5 -26.5t50.5 -33t29.5 -41.5t15.5 -43.5t8 -46.5q8 -63 27 -92.5t61 -29.5q24 0 49 20l12 10l6 -7l-12 -10q-41 -37 -82 -37q-67 0 -97 40.5t-45 125.5q-5 29 -9.5 47t-16.5 41.5 t-29 37t-46.5 23t-70.5 9.5h-12v-41q0 -33 14 -84q12 -45 12 -72q0 -57 -44.5 -97t-107.5 -40q-100 0 -161.5 70t-61.5 184zM134 800q20 0 32 -11.5t12 -32.5q0 -20 -11.5 -32.5t-32.5 -12.5q-20 0 -32.5 12t-12.5 33q0 20 12 32t33 12z" />
<glyph unicode="&#xed;k" horiz-adv-x="858" d="M95 233v288q0 30 -30 30h-45v9h55q37 0 63.5 12.5t26.5 40.5v4h8v-85v-348q0 -79 46.5 -127.5t123.5 -48.5q49 0 83.5 31.5t34.5 76.5q0 40 -25 66t-67 29h-81v9h25q36 0 44.5 8t8.5 44v459q0 30 -30 30h-47v9h57q37 0 63.5 12.5t26.5 40.5v4h8v-85v-420q54 0 65 14 l158 179q18 20 18 38q0 27 -52 27h-9v9h221v-9h-12q-84 0 -145 -69l-160 -181v-4q45 -10 77.5 -26.5t50.5 -33t29.5 -41.5t15.5 -43.5t8 -46.5q8 -63 27 -92.5t61 -29.5q24 0 49 20l12 10l6 -7l-12 -10q-41 -37 -82 -37q-67 0 -97 40.5t-45 125.5q-5 29 -9.5 47t-16.5 41.5 t-29 37t-46.5 23t-70.5 9.5h-12v-41q0 -33 14 -84q12 -45 12 -72q0 -57 -44.5 -97t-107.5 -40q-100 0 -161.5 70t-61.5 184zM87 657l-9 8l118 139q4 5 10 5q4 0 10 -4l12 -10l-24 -30z" />
<glyph unicode="in" horiz-adv-x="897" d="M134 800q20 0 32 -11.5t12 -32.5q0 -20 -11.5 -32.5t-32.5 -12.5q-20 0 -32.5 12t-12.5 33q0 20 12 32t33 12zM95 233v288q0 30 -30 30h-45v9h55q37 0 63.5 12.5t26.5 40.5v4h8v-85v-348q0 -79 47 -127.5t123 -48.5q49 0 83.5 31.5t34.5 76.5q0 40 -25 66t-67 29h-81v9 h25q36 0 44.5 8t8.5 44v230q0 14 -9 23t-24 9h-4l-59 -5l-1 6l77 16q32 6 53 25t21 48v4h8v-131q0 -87 -2 -105h7q3 27 16 65q22 64 71.5 102t111.5 38q80 0 124 -41t44 -110v-384q0 -36 8.5 -44.5t44.5 -8.5h36v-9h-255v9h97v2q-9 9 -9 26v392q0 151 -98 151 q-78 0 -129 -68t-51 -176v-64q0 -33 14 -84q12 -45 12 -72q0 -57 -44.5 -97t-107.5 -40q-100 0 -161.5 70t-61.5 184z" />
<glyph unicode="ih" horiz-adv-x="897" d="M95 233v288q0 30 -30 30h-45v9h55q37 0 63.5 12.5t26.5 40.5v4h8v-85v-348q0 -79 46.5 -127.5t123.5 -48.5q49 0 83.5 31.5t34.5 76.5q0 40 -25 66t-67 29h-81v9h25q36 0 44.5 8t8.5 44v459q0 30 -30 30h-47v9h57q37 0 63.5 12.5t26.5 40.5v4h8v-175q0 -98 -18 -260h7 q3 27 16 65q22 64 71.5 102t111.5 38q80 0 124 -41t44 -110v-384q0 -36 8.5 -44.5t44.5 -8.5h36v-9h-255v9h97v2q-9 9 -9 26v392q0 151 -98 151q-78 0 -129 -68t-51 -176v-64q0 -33 14 -84q12 -45 12 -72q0 -57 -44.5 -97t-107.5 -40q-100 0 -161.5 70t-61.5 184zM134 800 q20 0 32 -11.5t12 -32.5q0 -20 -11.5 -32.5t-32.5 -12.5q-20 0 -32.5 12t-12.5 33q0 20 12 32t33 12z" />
<glyph unicode="ikt" horiz-adv-x="1405" d="M134 800q20 0 32 -11.5t12 -32.5q0 -20 -11.5 -32.5t-32.5 -12.5q-20 0 -32.5 12t-12.5 33q0 20 12 32t33 12zM95 233v288q0 30 -30 30h-45v9h55q37 0 63.5 12.5t26.5 40.5v4h8v-85v-348q0 -79 46.5 -127.5t123.5 -48.5q49 0 83.5 31.5t34.5 76.5q0 40 -25 66t-67 29h-81 v9h25q36 0 44.5 8t8.5 44v459q0 30 -30 30h-47v9h57q37 0 63.5 12.5t26.5 40.5v4h8v-85v-420q54 0 65 14l158 179q18 20 18 38q0 27 -52 27h-9v9h226v-9h-17q-84 0 -145 -69l-160 -181v-4q49 -6 105 -40.5t104 -81.5q8 -8 32 -32.5t36 -35.5l36 -33t40 -33.5t40 -27.5 t44 -24t44 -14t47 -6q120 0 200 61.5t100 165.5q-19 -37 -56.5 -60t-82.5 -23q-80 0 -129 39t-49 103v268h-131v27h75q41 0 71.5 32.5t41.5 63.5t11 47v117h10v-217q0 -36 -13 -42v-1h262v-27h-249v-294q0 -44 27.5 -71t72.5 -27q56 0 95.5 37t39.5 89q0 48 -35 81.5 t-85 33.5q-19 0 -32 12.5t-13 30.5h20q67 0 115 -46.5t48 -111.5q0 -138 -89 -222.5t-235 -84.5q-46 0 -90 9.5t-79 23t-72.5 37t-62 41.5t-55.5 48t-46 46t-41 44q-9 10 -13 14q-65 71 -100 71h-43v-41q0 -33 14 -84q12 -45 12 -72q0 -57 -44.5 -97t-107.5 -40 q-100 0 -161.5 70t-61.5 184z" />
<glyph unicode="ink" horiz-adv-x="1506" d="M134 800q20 0 32 -11.5t12 -32.5q0 -20 -11.5 -32.5t-32.5 -12.5q-20 0 -32.5 12t-12.5 33q0 20 12 32t33 12zM95 233v288q0 30 -30 30h-45v9h55q37 0 63.5 12.5t26.5 40.5v4h8v-85v-348q0 -79 46.5 -127.5t123.5 -48.5q49 0 83.5 31.5t34.5 76.5q0 40 -25 66t-67 29h-81 v9h25q36 0 44.5 8t8.5 44v230q0 14 -9 23t-24 9h-4l-59 -5l-1 6l77 16q32 6 53 25t21 48v4h8v-131q0 -87 -2 -105h7q3 27 16 65q22 64 71.5 102t111.5 38q80 0 124 -41t44 -110v-252q0 -84 49.5 -135t130.5 -51q49 0 83.5 31.5t34.5 76.5q0 40 -25 66t-67 29h-91v9h35 q36 0 44.5 8t8.5 44v459q0 30 -30 30h-47v9h57q37 0 63.5 12.5t26.5 40.5v4h8v-85v-420q54 0 65 14l158 179q18 20 18 38q0 27 -52 27h-9v9h221v-9h-12q-84 0 -145 -69l-160 -181v-4q45 -10 77.5 -26.5t50.5 -33t29.5 -41.5t15.5 -43.5t8 -46.5q8 -63 27 -92.5t61 -29.5 q24 0 49 20l12 10l6 -7l-12 -10q-41 -37 -82 -37q-67 0 -97 40.5t-45 125.5q-5 29 -9.5 47t-16.5 41.5t-29 37t-46.5 23t-70.5 9.5h-12v-41q0 -33 14 -84q12 -45 12 -72q0 -57 -44.5 -97t-107.5 -40q-105 0 -169 72.5t-64 191.5v186q0 75 -23.5 113t-74.5 38q-78 0 -129 -68 t-51 -176v-64q0 -33 14 -84q12 -45 12 -72q0 -57 -44.5 -97t-107.5 -40q-100 0 -161.5 70t-61.5 184z" />
<glyph unicode="int" horiz-adv-x="1374" d="M134 800q20 0 32 -11.5t12 -32.5q0 -20 -11.5 -32.5t-32.5 -12.5q-20 0 -32.5 12t-12.5 33q0 20 12 32t33 12zM95 233v288q0 30 -30 30h-45v9h55q37 0 63.5 12.5t26.5 40.5v4h8v-85v-348q0 -79 47 -127.5t123 -48.5q49 0 83.5 31.5t34.5 76.5q0 40 -25 66t-67 29h-81v9 h25q36 0 44.5 8t8.5 44v230q0 14 -9 23t-24 9h-4l-59 -5l-1 6l77 16q32 6 53 25t21 48v4h8v-131q0 -87 -2 -105h7q3 27 16 65q22 64 71.5 102t111.5 38q80 0 124 -41t44 -110v-201q-9 -21 -9 -40q0 -89 65.5 -143t173.5 -54q107 0 189 66.5t104 167.5q-19 -36 -56 -58 t-81 -22q-80 0 -129 39t-49 103v248h-131v27h75q41 0 71.5 32.5t41.5 63.5t11 47v117h10v-217q0 -36 -13 -42v-1h262v-27h-249v-274q0 -44 27.5 -71t72.5 -27q56 0 95.5 37t39.5 89q0 48 -35 81.5t-85 33.5q-19 0 -32 12.5t-13 30.5h20q67 0 115 -46.5t48 -111.5 q0 -135 -95 -231t-229 -96q-132 0 -212.5 73t-80.5 192v185q0 151 -98 151q-78 0 -129 -68t-51 -176v-64q0 -33 14 -84q12 -45 12 -72q0 -57 -44.5 -97t-107.5 -40q-100 0 -161.5 70t-61.5 184z" />
<glyph unicode="um" horiz-adv-x="1514" d="M89 143v378q0 30 -30 30h-47v9h57q37 0 64.5 12.5t27.5 40.5v4h8v-85v-380q0 -68 26.5 -105t71.5 -37q81 0 130 70t49 185v262q0 36 -9 44.5t-45 8.5h-17v9l155 4v-8q-4 -24 -4 -53v-318q0 -87 48.5 -149t116.5 -62q55 0 94 33t39 80q0 40 -25 66t-67 29h-91v9h35 q36 0 44 8t8 44v230q0 14 -9 23t-24 9h-4l-59 -5l-1 6l77 16q70 14 70 73v4h8v-131q0 -72 -2 -92h9q6 42 16 69q47 123 158 123q73 0 103 -35t30 -97v-60h4q1 22 10.5 52.5t14.5 40.5q52 99 148 99q67 0 108 -35t41 -98v-402q0 -36 9 -44.5t45 -8.5h26v-9h-225v9h76v2 q-9 9 -9 26v418q0 59 -22 92t-58 33q-68 0 -110 -63.5t-42 -167.5v-287q0 -36 9 -44.5t45 -8.5h26v-9h-216v9h67v2q-9 9 -9 26v418q0 59 -22 92t-58 33q-68 0 -110 -63.5t-42 -167.5v-77q0 -35 9 -43.5t46 -8.5h35v-9h-125q29 -12 45.5 -37t16.5 -58q0 -57 -44.5 -97 t-107.5 -40q-89 0 -152 78.5t-63 189.5h-5l-4 -51q-15 -103 -69.5 -153.5t-129.5 -50.5q-76 0 -122.5 39.5t-46.5 111.5z" />
<glyph unicode="an" horiz-adv-x="1253" d="M451 428q0 68 -49 109.5t-129 41.5q-72 0 -112 -37.5t-43 -98.5l-3 -62h-18l11 236h10l-3 -53q-2 -24 -4 -32l7 -2q5 15 16 23q59 44 138 44q116 0 186.5 -50t70.5 -132v-241q0 -71 48.5 -121t116.5 -50q54 0 88.5 32.5t34.5 80.5q0 40 -25 66t-67 29h-81v9h25 q36 0 44.5 8t8.5 44v230q0 14 -9 23t-24 9h-4l-59 -5l-1 6l77 16q32 6 53 25t21 48v4h8v-131q0 -87 -2 -105h7q3 27 16 65q22 64 71.5 102t111.5 38q80 0 124 -41t44 -110v-384q0 -36 8.5 -44.5t44.5 -8.5h36v-9h-255v9h97v2q-9 9 -9 26v392q0 76 -23.5 113.5t-74.5 37.5 q-78 0 -129 -68t-51 -176v-64q0 -33 14 -84q12 -45 12 -72q0 -58 -40 -97.5t-102 -39.5q-88 0 -150 58t-62 140h-5l-5 -23q-11 -43 -36.5 -75.5t-57.5 -50.5t-63.5 -27t-60.5 -9q-94 0 -151.5 43.5t-57.5 115.5q0 82 57 132.5t151 50.5q61 0 104.5 -33.5t43.5 -80.5 q0 -19 -12.5 -32t-30.5 -13v47q0 39 -31 66.5t-74 27.5q-58 0 -93 -44.5t-35 -117.5q0 -61 39 -98t102 -37q81 0 138 60.5t57 146.5v202z" />
<glyph unicode="am" horiz-adv-x="1508" d="M800 272q0 -33 14 -84q12 -45 12 -72q0 -58 -40 -97.5t-102 -39.5q-88 0 -150 58t-62 140h-5l-5 -23q-11 -43 -36.5 -75.5t-57.5 -50.5t-63.5 -27t-60.5 -9q-94 0 -151.5 43.5t-57.5 115.5q0 82 57 132.5t151 50.5q61 0 104.5 -33.5t43.5 -80.5q0 -19 -12.5 -32 t-30.5 -13v47q0 39 -31 66.5t-74 27.5q-58 0 -93 -44.5t-35 -117.5q0 -61 39 -98t102 -37q81 0 138 60.5t57 146.5v202q0 68 -49 109.5t-129 41.5q-72 0 -112 -37.5t-43 -98.5l-3 -62h-18l11 236h10l-3 -53q-2 -24 -4 -32l7 -2q5 15 16 23q59 44 138 44q116 0 186.5 -50 t70.5 -132v-241q0 -71 48.5 -121t116.5 -50q54 0 88.5 32.5t34.5 80.5q0 40 -25 66t-67 29h-81v9h25q36 0 44.5 8t8.5 44v230q0 14 -9 23t-24 9h-4l-59 -5l-1 6l77 16q70 14 70 73v4h8v-131q0 -72 -2 -92h9q6 42 16 69q47 123 158 123q73 0 103 -35t30 -97v-60h4 q1 22 10.5 52.5t14.5 40.5q52 99 148 99q67 0 108 -35t41 -98v-402q0 -36 9 -44.5t45 -8.5h26v-9h-225v9h76v2q-9 9 -9 26v418q0 59 -22 92t-58 33q-68 0 -110 -63.5t-42 -167.5v-287q0 -36 9 -44.5t45 -8.5h26v-9h-216v9h67v2q-9 9 -9 26v418q0 59 -22 92t-58 33 q-68 0 -110 -63.5t-42 -167.5v-77z" />
<glyph unicode="amt" horiz-adv-x="1994" d="M800 272q0 -33 14 -84q12 -45 12 -72q0 -58 -40 -97.5t-102 -39.5q-88 0 -150 58t-62 140h-5l-5 -23q-11 -43 -36.5 -75.5t-57.5 -50.5t-63.5 -27t-60.5 -9q-94 0 -151.5 43.5t-57.5 115.5q0 82 57 132.5t151 50.5q61 0 104.5 -33.5t43.5 -80.5q0 -19 -12.5 -32 t-30.5 -13v47q0 39 -31 66.5t-74 27.5q-58 0 -93 -44.5t-35 -117.5q0 -61 39 -98t102 -37q81 0 138 60.5t57 146.5v202q0 68 -49 109.5t-129 41.5q-72 0 -112 -37.5t-43 -98.5l-3 -62h-18l11 236h10l-3 -53q-2 -24 -4 -32l7 -2q5 15 16 23q59 44 138 44q116 0 186.5 -50 t70.5 -132v-241q0 -71 48.5 -121t116.5 -50q54 0 88.5 32.5t34.5 80.5q0 40 -25 65.5t-67 29.5h-81v9h25q36 0 44.5 8t8.5 44v230q0 14 -9 23t-24 9h-4l-59 -5l-1 6l77 16q32 6 51 25t19 48v4h8v-131q0 -72 -2 -92h9q6 42 16 69q47 122 158 123q73 0 103 -35t30 -97v-60h4 q1 22 10.5 52.5t14.5 40.5q26 49 61 74t87 25q67 0 108 -35t41 -98v-219q-9 -21 -9 -40q0 -89 65.5 -143t173.5 -54q107 0 189 66.5t104 167.5q-19 -36 -56 -58t-81 -22q-80 0 -129 39t-49 103v248h-131v27h75q41 0 71.5 32.5t41.5 63.5t11 47v117h10v-217q0 -36 -13 -42v-1 h262v-27h-249v-274q0 -44 27.5 -71t72.5 -27q56 0 95.5 37t39.5 89q0 48 -35 81.5t-85 33.5q-19 0 -32 12.5t-13 30.5h20q67 0 115 -46.5t48 -111.5q0 -135 -95 -231t-229 -96q-132 0 -212.5 73t-80.5 192v211q0 59 -22 92t-58 33q-68 0 -110 -63.5t-42 -167.5v-287 q0 -36 9 -44.5t45 -8.5h26v-9h-216v9h67v2q-9 9 -9 26v418q0 59 -22 92t-58 33q-68 -1 -110 -64t-42 -167v-77z" />
<glyph unicode="imt" horiz-adv-x="1638" d="M134 800q20 0 32 -11.5t12 -32.5q0 -20 -11.5 -32.5t-32.5 -12.5q-20 0 -32.5 12t-12.5 33q0 20 12 32t33 12zM95 233v288q0 30 -30 30h-45v9h55q37 0 63.5 12.5t26.5 40.5v4h8v-85v-348q0 -79 47 -127.5t123 -48.5q49 0 83.5 31.5t34.5 76.5q0 40 -25 65.5t-67 29.5h-81 v9h25q36 0 44.5 8t8.5 44v230q0 14 -9 23t-24 9h-4l-59 -5l-1 6l77 16q32 6 51 25t19 48v4h8v-131q0 -72 -2 -92h9q6 42 16 69q47 122 158 123q73 0 103 -35t30 -97v-60h4q1 22 10.5 52.5t14.5 40.5q26 49 61 74t87 25q67 0 108 -35t41 -98v-219q-9 -21 -9 -40 q0 -89 65.5 -143t173.5 -54q107 0 189 66.5t104 167.5q-19 -36 -56 -58t-81 -22q-80 0 -129 39t-49 103v248h-131v27h75q41 0 71.5 32.5t41.5 63.5t11 47v117h10v-217q0 -36 -13 -42v-1h262v-27h-249v-274q0 -44 27.5 -71t72.5 -27q56 0 95.5 37t39.5 89q0 48 -35 81.5 t-85 33.5q-19 0 -32 12.5t-13 30.5h20q67 0 115 -46.5t48 -111.5q0 -135 -95 -231t-229 -96q-132 0 -212.5 73t-80.5 192v211q0 59 -22 92t-58 33q-68 0 -110 -63.5t-42 -167.5v-287q0 -36 9 -44.5t45 -8.5h26v-9h-216v9h67v2q-9 9 -9 26v418q0 59 -22 92t-58 33 q-68 -1 -110 -64t-42 -167v-77q0 -33 14 -84q12 -45 12 -72q0 -57 -44.5 -97t-107.5 -40q-100 0 -161.5 70t-61.5 184z" />
<glyph unicode="im" horiz-adv-x="1152" d="M134 800q20 0 32 -11.5t12 -32.5q0 -20 -11.5 -32.5t-32.5 -12.5q-20 0 -32.5 12t-12.5 33q0 20 12 32t33 12zM444 272q0 -33 14 -84q12 -45 12 -72q0 -57 -44.5 -97t-107.5 -40q-100 0 -161.5 70t-61.5 184v288q0 30 -30 30h-45v9h55q37 0 63.5 12.5t26.5 40.5v4h8v-85 v-348q0 -79 47 -127.5t123 -48.5q49 0 83.5 31.5t34.5 76.5q0 40 -25 66t-67 29h-81v9h25q36 0 44.5 8t8.5 44v230q0 14 -9 23t-24 9h-4l-59 -5l-1 6l77 16q70 14 70 73v4h8v-131q0 -72 -2 -92h9q6 42 16 69q47 123 158 123q73 0 103 -35t30 -97v-60h4q1 22 10.5 52.5 t14.5 40.5q52 99 148 99q67 0 108 -35t41 -98v-402q0 -36 9 -44.5t45 -8.5h26v-9h-225v9h76v2q-9 9 -9 26v418q0 59 -22 92t-58 33q-68 0 -110 -63.5t-42 -167.5v-287q0 -36 9 -44.5t45 -8.5h26v-9h-216v9h67v2q-9 9 -9 26v418q0 59 -22 92t-58 33q-68 0 -110 -63.5 t-42 -167.5v-77z" />
<glyph unicode="ku" horiz-adv-x="1196" d="M1090 221v288q0 39 -11.5 55t-45.5 16h-37v9h185v-9h-16q-34 0 -45.5 -16t-11.5 -55v-295q-42 -49 -82.5 -70.5t-100.5 -21.5q-90 0 -144.5 47.5t-54.5 124.5v233q0 36 -9 44.5t-45 8.5h-31v9h260v-9h-44q-36 0 -44.5 -8.5t-8.5 -44.5v-269q0 -58 31 -88t90 -30 q55 0 91 18t74 63zM18 0v9h35q36 0 44.5 8t8.5 44v670q0 30 -30 30h-47v9h57q37 0 63.5 12.5t26.5 40.5v4h8v-85v-420q70 0 82 15l141 178q18 22 18 38q0 27 -52 27h-9v9h226v-9h-17q-38 0 -78 -16t-69 -53l-143 -181l1 -4q28 -4 70.5 -35.5t72.5 -64.5q221 -244 423 -244 q57 0 112.5 13t97 33t68 36.5t43.5 30.5l5 -7q-70 -61 -169 -98t-206 -37q-115 0 -228 60t-214 178l-21 25q-33 39 -72 68t-70 29h-12v-252q0 -36 9 -44t45 -8h35v-9h-255z" />
<glyph unicode="ako" horiz-adv-x="1847" d="M1534 140q76 0 130 59t54 142q0 107 -52.5 172.5t-138.5 65.5q-77 0 -131 -59t-54 -142q0 -107 53 -172.5t139 -65.5zM1531 122q-114 0 -195 69.5t-81 168.5q0 107 76 172t200 65q113 0 193.5 -69.5t80.5 -167.5q0 -107 -75.5 -172.5t-198.5 -65.5zM800 313v-41 q0 -33 14 -84q12 -45 12 -72q0 -58 -40 -97.5t-102 -39.5q-88 0 -150 58t-62 140h-5l-5 -23q-11 -43 -36.5 -75.5t-57.5 -50.5t-63.5 -27t-60.5 -9q-94 0 -151.5 43.5t-57.5 115.5q0 82 57 132.5t151 50.5q61 0 104.5 -33.5t43.5 -80.5q0 -19 -12.5 -32t-30.5 -13v47 q0 39 -31 66.5t-74 27.5q-58 0 -93 -44.5t-35 -117.5q0 -61 39 -98t102 -37q81 0 138 60.5t57 146.5v202q0 68 -49 109.5t-129 41.5q-72 0 -112 -37.5t-43 -98.5l-3 -62h-18l11 236h10l-3 -53q-2 -24 -4 -32l7 -2q5 15 16 23q59 44 138 44q116 0 186.5 -50t70.5 -132v-241 q0 -71 48.5 -121t116.5 -50q54 0 88.5 32.5t34.5 80.5q0 40 -25 66t-67 29h-91v9h35q36 0 44.5 8t8.5 44v459q0 30 -30 30h-47v9h57q37 0 63.5 12.5t26.5 40.5v4h8v-85v-420q70 0 82 15l141 178q18 22 18 38q0 27 -52 27h-9v9h226v-9h-17q-38 0 -78 -16t-69 -53l-143 -181 l1 -4q28 -4 70.5 -35.5t72.5 -64.5q112 -124 226.5 -184t216.5 -60q57 0 112.5 13t97 33t68 36.5t43.5 30.5l5 -7q-70 -61 -169 -98t-206 -37q-118 0 -240.5 61t-221.5 177l-21 25q-33 39 -72 68t-70 29h-12z" />
<glyph unicode="aku" horiz-adv-x="1812" d="M1706 221v288q0 39 -11.5 55t-45.5 16h-37v9h185v-9h-16q-34 0 -45.5 -16t-11.5 -55v-295q-42 -49 -82.5 -70.5t-100.5 -21.5q-90 0 -144.5 47.5t-54.5 124.5v233q0 36 -9 44.5t-45 8.5h-31v9h260v-9h-44q-36 0 -44.5 -8.5t-8.5 -44.5v-269q0 -58 31 -88t90 -30 q55 0 91 18t74 63zM800 313v-41q0 -33 14 -84q12 -45 12 -72q0 -58 -40 -97.5t-102 -39.5q-88 0 -150 58t-62 140h-5l-5 -23q-11 -43 -36.5 -75.5t-57.5 -50.5t-63.5 -27t-60.5 -9q-94 0 -151.5 43.5t-57.5 115.5q0 82 57 132.5t151 50.5q61 0 104.5 -33.5t43.5 -80.5 q0 -19 -12.5 -32t-30.5 -13v47q0 39 -31 66.5t-74 27.5q-58 0 -93 -44.5t-35 -117.5q0 -61 39 -98t102 -37q81 0 138 60.5t57 146.5v202q0 68 -49 109.5t-129 41.5q-72 0 -112 -37.5t-43 -98.5l-3 -62h-18l11 236h10l-3 -53q-2 -24 -4 -32l7 -2q5 15 16 23q59 44 138 44 q116 0 186.5 -50t70.5 -132v-241q0 -71 48.5 -121t116.5 -50q54 0 88.5 32.5t34.5 80.5q0 40 -25 66t-67 29h-91v9h35q36 0 44.5 8t8.5 44v459q0 30 -30 30h-47v9h57q37 0 63.5 12.5t26.5 40.5v4h8v-85v-420q70 0 82 15l141 178q18 22 18 38q0 27 -52 27h-9v9h226v-9h-17 q-38 0 -78 -16t-69 -53l-143 -181l1 -4q28 -4 70.5 -35.5t72.5 -64.5q221 -244 423 -244q57 0 112.5 13t97 33t68 36.5t43.5 30.5l5 -7q-70 -61 -169 -98t-206 -37q-115 0 -228 60t-214 178l-21 25q-33 39 -72 68t-70 29h-12z" />
<glyph unicode="iks" horiz-adv-x="1342" d="M134 800q20 0 32 -11.5t12 -32.5q0 -20 -11.5 -32.5t-32.5 -12.5q-20 0 -32.5 12t-12.5 33q0 20 12 32t33 12zM95 233v288q0 30 -30 30h-45v9h55q37 0 63.5 12.5t26.5 40.5v4h8v-85v-348q0 -79 47 -127.5t123 -48.5q49 0 83.5 31.5t34.5 76.5q0 40 -25 66t-67 29h-81v9 h25q36 0 44.5 8t8.5 44v459q0 30 -30 30h-47v9h57q37 0 63.5 12.5t26.5 40.5v4h8v-85v-420q54 0 65 14l158 179q18 20 18 38q0 27 -52 27h-9v9h226v-9h-17q-84 0 -145 -69l-160 -181v-4q49 -6 105 -40.5t104 -81.5q7 -8 36.5 -37t42.5 -41.5t41 -37.5t47.5 -37t46 -27 t52.5 -21t52 -6q80 0 129.5 46t49.5 113q0 19 -8.5 34.5t-20.5 26.5t-34 22t-39 17.5t-46 16.5q-33 11 -53 19t-47.5 23t-42.5 30t-26.5 38.5t-11.5 51.5q0 73 54 117.5t143 44.5q74 0 133 -44q11 -8 16 -23l7 2q-2 8 -4 32l-3 53h10l11 -236l-18 -1l-2 42q-3 65 -41.5 111 t-108.5 46q-61 0 -94 -31.5t-33 -90.5q0 -17 8 -31.5t19.5 -24.5t33 -20.5t38 -17t43.5 -15.5q35 -12 56 -20.5t50 -24.5t45.5 -32.5t28.5 -42t12 -56.5q0 -83 -74 -138t-194 -55q-44 0 -87.5 9.5t-77.5 22.5t-71 36.5t-61.5 41.5t-55.5 48t-46 46t-41 44q-9 10 -14 15 q-65 71 -100 71h-43v-41q0 -33 14 -84q12 -45 12 -72q0 -57 -44.5 -97t-107.5 -40q-100 0 -161.5 70t-61.5 184z" />
<glyph unicode="nks" horiz-adv-x="1719" d="M18 0v9h35q36 0 44.5 8.5t8.5 44.5v440q0 13 -9 22.5t-24 9.5h-4l-59 -5l-1 6l77 16q32 6 53 25t21 48v4h8v-131q0 -87 -2 -105h7q3 27 16 65q22 64 71.5 102t111.5 38q80 0 124 -41t44 -110v-252q0 -84 49.5 -135t130.5 -51q49 0 83.5 31.5t34.5 76.5q0 40 -25 66 t-67 29h-91v9h35q36 0 44.5 8t8.5 44v459q0 30 -30 30h-47v9h57q37 0 63.5 12.5t26.5 40.5v4h8v-85v-420q54 0 65 14l158 179q18 20 18 38q0 27 -52 27h-9v9h226v-9h-17q-84 0 -145 -69l-160 -181v-4q49 -6 105 -40.5t104 -81.5q7 -8 36.5 -37t42.5 -41.5t41 -37.5t47.5 -37 t46 -27t52.5 -21t52 -6q80 0 129.5 46t49.5 113q0 19 -8.5 34.5t-20.5 26.5t-34 22t-39 17.5t-46 16.5q-33 11 -53 19t-47.5 23t-42.5 30t-26.5 38.5t-11.5 51.5q0 73 54 117.5t143 44.5q74 0 133 -44q11 -8 16 -23l7 2q-2 8 -4 32l-3 53h10l11 -236l-18 -1l-2 42 q-3 65 -41.5 111t-108.5 46q-61 0 -94 -31.5t-33 -90.5q0 -17 8 -31.5t19.5 -24.5t33 -20.5t38 -17t43.5 -15.5q35 -12 56 -20.5t50 -24.5t45.5 -32.5t28.5 -42t12 -56.5q0 -83 -74 -138t-194 -55q-44 0 -87.5 9.5t-77.5 22.5t-71 36.5t-61.5 41.5t-55.5 48t-46 46t-41 44 q-9 10 -14 15q-65 71 -100 71h-43v-41q0 -33 14 -84q12 -45 12 -72q0 -57 -44.5 -97t-107.5 -40q-105 0 -169 72.5t-64 191.5v186q0 75 -23.5 113t-74.5 38q-78 0 -129 -68t-51 -176v-274q0 -36 9 -44.5t45 -8.5h35v-9h-255z" />
<glyph unicode="aks" horiz-adv-x="1698" d="M451 428q0 68 -49 109.5t-129 41.5q-72 0 -112 -37.5t-43 -98.5l-3 -62h-18l11 236h10l-3 -53q-2 -24 -4 -32l7 -2q5 15 16 23q59 44 138 44q116 0 186.5 -50t70.5 -132v-241q0 -71 48.5 -121t116.5 -50q54 0 88.5 32.5t34.5 80.5q0 40 -25 66t-67 29h-91v9h35 q36 0 44.5 8t8.5 44v459q0 30 -30 30h-47v9h57q37 0 63.5 12.5t26.5 40.5v4h8v-85v-420q54 0 65 14l158 179q18 20 18 38q0 27 -52 27h-9v9h226v-9h-17q-84 0 -145 -69l-160 -181v-4q49 -6 105 -40.5t104 -81.5q7 -8 36.5 -37t42.5 -41.5t41 -37.5t47.5 -37t46 -27t52.5 -21 t52 -6q80 0 129.5 46t49.5 113q0 19 -8.5 34.5t-20.5 26.5t-34 22t-39 17.5t-46 16.5q-33 11 -53 19t-47.5 23t-42.5 30t-26.5 38.5t-11.5 51.5q0 73 54 117.5t143 44.5q74 0 133 -44q11 -8 16 -23l7 2q-2 8 -4 32l-3 53h10l11 -236l-18 -1l-2 42q-3 65 -41.5 111t-108.5 46 q-61 0 -94 -31.5t-33 -90.5q0 -17 8 -31.5t19.5 -24.5t33 -20.5t38 -17t43.5 -15.5q35 -12 56 -20.5t50 -24.5t45.5 -32.5t28.5 -42t12 -56.5q0 -83 -74 -138t-194 -55q-44 0 -87.5 9.5t-77.5 22.5t-71 36.5t-61.5 41.5t-55.5 48t-46 46t-41 44q-9 10 -14 15q-65 71 -100 71 h-43v-41q0 -33 14 -84q12 -45 12 -72q0 -58 -40 -97.5t-102 -39.5q-88 0 -150 58t-62 140h-5l-5 -23q-11 -43 -36.5 -75.5t-57.5 -50.5t-63.5 -27t-60.5 -9q-94 0 -151.5 43.5t-57.5 115.5q0 82 57 132.5t151 50.5q61 0 104.5 -33.5t43.5 -80.5q0 -19 -12.5 -32t-30.5 -13 v47q0 39 -31 66.5t-74 27.5q-58 0 -93 -44.5t-35 -117.5q0 -61 39 -98t102 -37q81 0 138 60.5t57 146.5v202z" />
<glyph unicode="mk" horiz-adv-x="1514" d="M106 62v440q0 14 -9 23t-24 9h-4l-59 -5l-1 6l77 16q32 6 51 25t19 48v4h8v-131q0 -72 -2 -92h9q6 42 16 69q47 123 158 123q73 0 103 -35t30 -97v-60h4q1 22 10.5 52.5t14.5 40.5q26 49 61 74t87 25q67 0 108 -35t41 -98v-271q0 -83 49.5 -134t130.5 -51q49 0 83.5 31.5 t34.5 76.5q0 40 -25 66t-67 29h-91v9h35q36 0 44.5 8t8.5 44v459q0 30 -30 30h-47v9h57q37 0 63.5 12.5t26.5 40.5v4h8v-85v-420q54 0 65 14l158 179q18 20 18 38q0 27 -52 27h-9v9h221v-9h-12q-84 0 -145 -69l-160 -181v-4q45 -10 77.5 -26.5t50.5 -33t29.5 -41.5 t15.5 -43.5t8 -46.5q8 -63 27 -92.5t61 -29.5q23 0 49 20l12 10l6 -7l-12 -10q-41 -37 -82 -37q-67 0 -97 40.5t-45 125.5q-5 29 -9.5 47t-16.5 41.5t-29 37t-46.5 23t-70.5 9.5h-12v-41q0 -33 14 -84q12 -45 12 -72q0 -57 -44.5 -97t-107.5 -40q-105 0 -169 72.5t-64 191.5 v212q0 59 -22 92t-58 33q-68 0 -110 -63.5t-42 -167.5v-287q0 -36 9 -44.5t45 -8.5h26v-9h-216v9h67v2q-9 9 -9 26v418q0 59 -22 92t-58 33q-68 0 -110 -63.5t-42 -167.5v-287q0 -36 9 -44.5t45 -8.5h35v-9h-255v9h35q36 0 44.5 8.5t8.5 44.5z" />
<glyph unicode="Ri" d="M758 800q20 0 32 -11.5t12 -32.5q0 -20 -11.5 -32.5t-32.5 -12.5q-20 0 -32.5 12t-12.5 33q0 20 12 32t33 12zM106 62v595q0 36 -8.5 44.5t-44.5 8.5h-35v9h261q120 0 193 -61t73 -161q0 -86 -60 -145.5t-152 -70.5l-20 -1v-6q34 -4 64 -23t47 -46q33 -53 63 -91 t70 -76.5t88 -59t101 -20.5q118 0 197 61.5t98 165.5q-19 -37 -56.5 -60t-82.5 -23q-82 0 -132.5 40.5t-50.5 106.5v272q0 30 -30 30h-45v9h55q37 0 63.5 12.5t26.5 40.5v4h8v-85v-309q0 -46 29 -74.5t76 -28.5q56 0 95.5 37t39.5 89q0 48 -35 81.5t-85 33.5q-19 0 -32 12.5 t-13 30.5h20q67 0 115 -46.5t48 -111.5q0 -147 -88.5 -237t-233.5 -90q-67 0 -125 20.5t-106.5 61.5t-86 87t-79.5 110q-28 43 -48 60t-51 17h-12v17h46q77 0 132 60t55 145q0 84 -55 144t-132 60h-104v-1q17 -17 17 -52v-586q0 -36 9 -44.5t45 -8.5h58v-9h-278v9h35 q36 0 44.5 8.5t8.5 44.5z" />
<glyph unicode="R&#xed;" d="M708 657l-9 8l118 139q4 5 10 5q4 0 10 -4l12 -10l-24 -30zM106 62v595q0 36 -8.5 44.5t-44.5 8.5h-35v9h261q120 0 193 -61t73 -161q0 -86 -60 -145.5t-152 -70.5l-20 -1v-6q34 -4 64 -23t47 -46q33 -53 63 -91t70 -76.5t88 -59t101 -20.5q118 0 197 61.5t98 165.5 q-19 -37 -56.5 -60t-82.5 -23q-82 0 -132.5 40.5t-50.5 106.5v272q0 30 -30 30h-45v9h55q37 0 63.5 12.5t26.5 40.5v4h8v-85v-309q0 -46 29 -74.5t76 -28.5q56 0 95.5 37t39.5 89q0 48 -35 81.5t-85 33.5q-19 0 -32 12.5t-13 30.5h20q67 0 115 -46.5t48 -111.5 q0 -147 -88.5 -237t-233.5 -90q-67 0 -125 20.5t-106.5 61.5t-86 87t-79.5 110q-28 43 -48 60t-51 17h-12v17h46q77 0 132 60t55 145q0 84 -55 144t-132 60h-104v-1q17 -17 17 -52v-586q0 -36 9 -44.5t45 -8.5h58v-9h-278v9h35q36 0 44.5 8.5t8.5 44.5z" />
<glyph unicode="Lu" horiz-adv-x="930" d="M402 589h245v-9h-44q-36 0 -44.5 -8.5t-8.5 -44.5v-269q0 -58 31 -88t90 -30q43 0 75 12t49 26.5t41 42.5v288q0 39 -11.5 55t-45.5 16h-37v9h175v-9h-16q-21 0 -34 -17t-13 -44v-305q-26 -31 -44.5 -47t-55 -30.5t-83.5 -14.5q-90 0 -144.5 47.5t-54.5 124.5v233 q0 36 -9 44.5t-45 8.5h-16v9zM18 40v9h35q35 0 44 11.5t9 48.5v549q0 36 -8.5 44t-44.5 8h-35v9h255v-9h-35q-36 0 -45 -8t-9 -44v-547q0 -30 -22 -52v-1h54q55 0 223 -31t243 -31q140 0 197 84l4 -6q-106 -156 -245 -156q-47 0 -108.5 19t-111.5 42t-106.5 42t-92.5 19 h-201z" />
<glyph unicode="&#x141;u" horiz-adv-x="980" d="M116 110v108l6 53h-6l-93 -69l-11 14l104 77v364q0 36 -8.5 44.5t-44.5 8.5h-35v9h255v-9h-35q-36 0 -45 -8.5t-9 -44.5v-252l-5 -54h5l196 145l11 -14l-207 -153v-218q0 -30 -22 -52v-1h54q53 0 235.5 -31t270.5 -31q140 0 197 84l4 -6q-106 -156 -245 -156 q-53 0 -123 19t-125 42t-115 42t-96 19h-201v9h35q35 0 44 11.5t9 49.5zM452 589h245v-9h-44q-36 0 -44.5 -8.5t-8.5 -44.5v-269q0 -58 31 -88t90 -30q43 0 75 12t49 26.5t41 42.5v288q0 39 -11.5 55t-45.5 16h-37v9h175v-9h-16q-21 0 -34 -17t-13 -44v-305 q-26 -31 -44.5 -47t-55 -30.5t-83.5 -14.5q-90 0 -144.5 47.5t-54.5 124.5v233q0 36 -9 44.5t-45 8.5h-16v9z" />
<glyph unicode="L&#xfc;" horiz-adv-x="930" d="M590 782q20 0 32.5 -11.5t12.5 -32.5q0 -20 -12 -32t-33 -12q-20 0 -32 11.5t-12 32.5q0 20 11.5 32t32.5 12zM786 782q20 0 32 -11.5t12 -32.5q0 -20 -11.5 -32t-32.5 -12q-20 0 -32.5 11.5t-12.5 32.5q0 20 12 32t33 12zM402 589h245v-9h-44q-36 0 -44.5 -8.5 t-8.5 -44.5v-269q0 -58 31 -88t90 -30q43 0 75 12t49 26.5t41 42.5v288q0 39 -11.5 55t-45.5 16h-37v9h175v-9h-16q-21 0 -34 -17t-13 -44v-305q-26 -31 -44.5 -47t-55 -30.5t-83.5 -14.5q-90 0 -144.5 47.5t-54.5 124.5v233q0 36 -9 44.5t-45 8.5h-16v9zM18 40v9h35 q35 0 44 11.5t9 48.5v549q0 36 -8.5 44t-44.5 8h-35v9h255v-9h-35q-36 0 -45 -8t-9 -44v-547q0 -30 -22 -52v-1h54q55 0 223 -31t243 -31q140 0 197 84l4 -6q-106 -156 -245 -156q-47 0 -108.5 19t-111.5 42t-106.5 42t-92.5 19h-201z" />
<glyph unicode="R&#xfc;" horiz-adv-x="1124" d="M596 589h245v-9h-44q-36 0 -44.5 -8.5t-8.5 -44.5v-269q0 -58 31 -88t90 -30q43 0 75 12t49 26.5t41 42.5v288q0 39 -11.5 55t-45.5 16h-37v9h175v-9h-16q-21 0 -34 -17t-13 -44v-305q-26 -31 -44.5 -47t-55 -30.5t-83.5 -14.5q-90 0 -144.5 47.5t-54.5 124.5v233 q0 36 -9 44.5t-45 8.5h-16v9zM18 0v9h35q36 0 44.5 8.5t8.5 44.5v595q0 36 -8.5 44.5t-44.5 8.5h-35v9h261q120 0 193 -61t73 -161q0 -86 -60 -146t-152 -70l-20 -1v-6q65 -7 108 -68q5 -8 18 -24t51.5 -53.5t81 -67t106 -53t127.5 -23.5q147 0 276 110l22 19l5 -7l-22 -19 q-156 -135 -327 -135q-211 0 -400 218l-21 25q-24 28 -36.5 41.5t-30.5 25.5t-34 12h-12v17h46q84 0 135.5 56.5t51.5 148.5q0 84 -55 144t-132 60h-104v-1q17 -17 17 -52v-586q0 -36 9 -44.5t45 -8.5h58v-9h-278zM785 782q20 0 32.5 -11.5t12.5 -32.5q0 -20 -12 -32 t-33 -12q-20 0 -32 11.5t-12 32.5q0 20 11.5 32t32.5 12zM981 782q20 0 32 -11.5t12 -32.5q0 -20 -11.5 -32t-32.5 -12q-20 0 -32.5 11.5t-12.5 32.5q0 20 12 32t33 12z" />
<glyph unicode="K&#xfc;" horiz-adv-x="1146" d="M1040 221v288q0 39 -11.5 55t-45.5 16h-37v9h185v-9h-16q-34 0 -45.5 -16t-11.5 -55v-295q-42 -49 -82.5 -70.5t-100.5 -21.5q-90 0 -144.5 47.5t-54.5 124.5v233q0 36 -9 44.5t-45 8.5h-31v9h260v-9h-44q-36 0 -44.5 -8.5t-8.5 -44.5v-269q0 -58 31 -88t90 -30 q55 0 91 18t74 63zM106 71v586q0 36 -8.5 44.5t-44.5 8.5h-35v9h229v-9h-9q-36 0 -45 -8.5t-9 -44.5v-225q54 0 65 14l158 199q18 22 18 38q0 27 -52 27h-9v9h216v-9h-7q-38 0 -78 -16.5t-69 -52.5l-159 -201l1 -4q33 -8 60.5 -25.5t50.5 -46.5t39 -55.5t36 -67.5 q17 -33 28 -54t30.5 -51t37 -49t43.5 -40.5t54 -34t65 -21t79 -8.5q159 0 290 112l22 19l5 -7l-22 -19q-157 -136 -334 -136q-39 0 -74.5 6.5t-63.5 16t-55 26.5t-46.5 32t-40 39.5t-33.5 42t-30 46t-25.5 45.5t-23.5 46q-18 36 -28 54.5t-27 45t-31.5 39t-34.5 22.5t-43 10 h-12v-352q0 -41 9 -51.5t45 -10.5h35v-9h-255v9h35q36 0 44.5 10t8.5 52zM793 782q20 0 32.5 -11.5t12.5 -32.5q0 -20 -12 -32t-33 -12q-20 0 -32 11.5t-12 32.5q0 20 11.5 32t32.5 12zM989 782q20 0 32 -11.5t12 -32.5q0 -20 -11.5 -32t-32.5 -12q-20 0 -32.5 11.5 t-12.5 32.5q0 20 12 32t33 12z" />
<glyph unicode="Em" horiz-adv-x="1427" d="M106 69v588q0 36 -8.5 44.5t-44.5 8.5h-35v9h399q28 0 37 -9h1l-3 46l9 1l18 -271h-18l-4 70q-4 79 -41.5 112t-112.5 33h-141v-1q22 -22 22 -52v-262h40q24 0 41 3.5t33.5 13.5t25 32.5t8.5 56.5v35h9v-321h-9v55q0 34 -8.5 56.5t-25 33t-33.5 14t-41 3.5h-40v-344v-1 h47q55 0 191.5 -21t211.5 -21q65 0 99 19t34 55q0 41 -23 66.5t-64 28.5h-127v9h35q36 0 44.5 8.5t8.5 44.5v290q0 14 -9 23t-24 9h-4l-59 -5l-1 6l77 16q70 14 70 73v4h8v-131q0 -72 -2 -92h9q6 42 16 69q47 123 158 123q73 0 103 -35t30 -97v-60h4q1 22 10.5 52.5 t14.5 40.5q52 99 148 99q67 0 108 -35t41 -98v-402q0 -36 9 -44.5t45 -8.5h26v-9h-225v9h76v2q-9 9 -9 26v418q0 59 -22 92t-58 33q-68 0 -110 -63.5t-42 -167.5v-287q0 -36 9 -44.5t45 -8.5h26v-9h-216v9h67v2q-9 9 -9 26v418q0 59 -22 92t-58 33q-68 0 -110 -63.5 t-42 -167.5v-199q29 -12 45.5 -37t16.5 -58q0 -57 -46.5 -97t-111.5 -40q-58 0 -144 20.5t-168 41t-132 20.5h-161v9h35q35 0 44 11.5t9 48.5z" />
<glyph unicode="En" horiz-adv-x="1172" d="M106 69v588q0 36 -8.5 44.5t-44.5 8.5h-35v9h399q28 0 37 -9h1l-3 46l9 1l18 -271h-18l-4 70q-4 79 -41.5 112t-112.5 33h-141v-1q22 -22 22 -52v-262h40q52 0 80 20.5t28 85.5v35h9v-321h-9v55q0 65 -28.5 86t-79.5 21h-40v-344v-1h47q55 0 191.5 -20.5t211.5 -20.5 q65 0 99 18.5t34 54.5q0 41 -23 66.5t-64 28.5h-127v9h35q36 0 44.5 8.5t8.5 44.5v290q0 14 -9 23t-24 9h-4l-59 -5l-1 6l77 16q32 6 53 25t21 48v4h8v-131q0 -87 -2 -105h7q3 27 16 65q22 64 71.5 102t111.5 38q80 0 124 -41t44 -110v-384q0 -36 8.5 -44.5t44.5 -8.5h36v-9 h-255v9h97v2q-9 9 -9 26v392q0 151 -98 151q-78 0 -129 -68t-51 -176v-186q29 -12 45.5 -37t16.5 -58q0 -57 -46.5 -97t-111.5 -40q-58 0 -144 20.5t-168 41t-132 20.5h-161v9h35q35 0 44 11.5t9 48.5z" />
<glyph unicode="Er" horiz-adv-x="991" d="M106 69v588q0 36 -8.5 44.5t-44.5 8.5h-35v9h399q28 0 37 -9h1l-3 46l9 1l18 -271h-18l-4 70q-4 79 -41.5 112t-112.5 33h-141v-1q22 -22 22 -52v-262h40q52 0 80 20.5t28 85.5v35h9v-321h-9v55q0 65 -28.5 86t-79.5 21h-40v-344v-1h47q55 0 205.5 -22.5t225.5 -22.5 q64 0 98.5 20.5t34.5 56.5q0 41 -22 66.5t-63 28.5h-157v9h35q53 0 53 53v290q0 14 -9 23t-24 9h-4l-59 -5l-1 6l77 16q34 7 57.5 25.5t23.5 47.5v4h8v-131q0 -67 -8 -92v-2h8q20 92 67.5 143.5t110.5 51.5q31 0 52 -8q30 -11 30 -42q0 -18 -13 -31.5t-31 -13.5t-31.5 13.5 t-13.5 31.5q0 12 7 23v1q-76 0 -122.5 -77t-46.5 -203v-81q0 -53 54 -53h63v-8h-87q29 -12 45.5 -37t16.5 -58q0 -57 -46.5 -97t-111.5 -40q-72 0 -244 41t-230 41h-161v9h35q35 0 44 11.5t9 48.5z" />
<glyph unicode="te" horiz-adv-x="1118" d="M141 134v418h-131v27h75q41 0 71.5 32.5t41.5 63.5t11 47v117h10v-216q0 -35 -13 -42v-2q66 0 272 34.5t298 34.5q189 0 314 -138l-6 -6q-80 88 -265 88q-99 0 -307.5 -20t-292.5 -20v-444q0 -44 27.5 -71t72.5 -27q56 0 95.5 37t39.5 89q0 48 -35 81.5t-85 33.5 q-19 0 -32 12.5t-13 30.5h20q67 0 115 -46.5t48 -111.5q0 -60 -45 -102t-108 -42q-80 0 -129 39t-49 103zM840 278q-27 0 -46 -17.5t-19 -42.5v-57q-18 0 -30.5 13.5t-12.5 31.5q0 39 31.5 66.5t76.5 27.5h146q8 0 8 9q0 72 -43.5 116t-114.5 44q-89 0 -143.5 -59.5 t-54.5 -156.5q0 -101 61.5 -172t147.5 -71q73 0 131 26.5t95 74.5l12 -12q-85 -107 -238 -107q-120 0 -205.5 72t-85.5 173q0 103 83.5 176.5t200.5 73.5q106 0 170.5 -49t64.5 -129v-5q0 -12 -9 -20.5t-22 -8.5z" />
<glyph unicode="to" horiz-adv-x="1138" d="M141 134v418h-131v27h75q41 0 71.5 32.5t41.5 63.5t11 47v117h10v-216q0 -35 -13 -42v-2q66 0 272 34.5t298 34.5q189 0 314 -138l-6 -6q-80 88 -265 88q-99 0 -307.5 -20t-292.5 -20v-444q0 -44 27.5 -71t72.5 -27q56 0 95.5 37t39.5 89q0 48 -35 81.5t-85 33.5 q-19 0 -32 12.5t-13 30.5h20q67 0 115 -46.5t48 -111.5q0 -60 -45 -102t-108 -42q-80 0 -129 39t-49 103zM831 -8q-124 0 -200 68t-76 180q0 102 81 174.5t195 72.5q123 0 198.5 -68t75.5 -179q0 -103 -80.5 -175.5t-193.5 -72.5zM834 10q83 0 133.5 58t50.5 153 q0 103 -56 175.5t-135 72.5q-83 0 -134 -58t-51 -153q0 -103 56.5 -175.5t135.5 -72.5z" />
<glyph unicode="ta" horiz-adv-x="1083" d="M909 338q0 64 -29 98t-84 34q-72 0 -114.5 -38.5t-45.5 -98.5l-3 -22h-18l11 196h10l-3 -53q-2 -24 -4 -32l7 -2q5 15 16 23q59 44 143 44q95 0 144.5 -41.5t49.5 -120.5v-254q0 -31 5.5 -41t27.5 -10q3 0 9.5 0.5t10.5 0.5l17 1l1 -9q-62 -6 -111 -22v8q0 25 -9.5 82.5 t-9.5 72.5h-10q-21 -84 -67 -123t-104 -39q-85 0 -136.5 37.5t-51.5 98.5q0 60 53.5 103t128.5 43q49 0 83.5 -30.5t34.5 -73.5q0 -19 -12.5 -32t-30.5 -13v47q0 35 -22 59.5t-53 24.5q-45 0 -76.5 -36.5t-31.5 -88.5q0 -50 34.5 -81t91.5 -31q58 0 103 53.5t45 153.5v112z M141 134v418h-131v27h75q32 0 57.5 19t39 45t20.5 47.5t7 31.5v117h10v-216q0 -35 -13 -42v-2q66 0 254.5 35t280.5 35q90 0 167.5 -29t151.5 -110l-6 -6q-41 45 -114 67t-159 22q-99 0 -288.5 -20.5t-273.5 -20.5v-444q0 -44 27.5 -71t72.5 -27q56 0 95.5 37t39.5 89 q0 48 -35 81.5t-85 33.5q-19 0 -32 12.5t-13 30.5h20q67 0 115 -46.5t48 -111.5q0 -60 -45 -102t-108 -42q-80 0 -129 39t-49 103z" />
<glyph unicode="t&#x119;" horiz-adv-x="1118" d="M141 134v418h-131v27h75q41 0 71.5 32.5t41.5 63.5t11 47v117h10v-216q0 -35 -13 -42v-2q66 0 272 34.5t298 34.5q189 0 314 -138l-6 -6q-80 88 -265 88q-99 0 -307.5 -20t-292.5 -20v-444q0 -44 27.5 -71t72.5 -27q56 0 95.5 37t39.5 89q0 48 -35 81.5t-85 33.5 q-19 0 -32 12.5t-13 30.5h20q67 0 115 -46.5t48 -111.5q0 -60 -45 -102t-108 -42q-80 0 -129 39t-49 103zM948 -196l5 -17q-45 -14 -72 -14q-51 0 -82 25t-31 65q0 43 27.5 76t71.5 53h-20q-120 0 -205.5 72t-85.5 173q0 103 83.5 176.5t200.5 73.5q106 0 170.5 -49 t64.5 -129v-5q0 -12 -9 -20.5t-22 -8.5l-204 3q-27 0 -46 -17.5t-19 -42.5v-57q-18 0 -30.5 13.5t-12.5 31.5q0 39 31.5 66.5t76.5 27.5h146q8 0 8 9q0 72 -43.5 116t-114.5 44q-89 0 -143.5 -59.5t-54.5 -156.5q0 -101 61.5 -172t147.5 -71q73 0 131 26.5t95 74.5l12 -12 q-59 -75 -156 -98q-49 -16 -82.5 -50.5t-33.5 -83.5q0 -33 21 -53.5t56 -20.5q24 0 58 11z" />
<glyph unicode="t&#x105;" horiz-adv-x="1083" d="M141 134v418h-131v27h75q41 0 71.5 32.5t41.5 63.5t11 47v117h10v-216q0 -35 -13 -42v-2q66 0 254.5 35t280.5 35q90 0 167.5 -29t151.5 -110l-6 -6q-41 45 -114 67t-159 22q-99 0 -288.5 -20.5t-273.5 -20.5v-444q0 -44 27.5 -71t72.5 -27q56 0 95.5 37t39.5 89 q0 48 -35 81.5t-85 33.5q-19 0 -32 12.5t-13 30.5h20q67 0 115 -46.5t48 -111.5q0 -60 -45 -102t-108 -42q-80 0 -129 39t-49 103zM909 338q0 64 -29 98t-84 34q-72 0 -114.5 -38.5t-45.5 -98.5l-3 -22h-18l11 196h10l-3 -53q-2 -24 -4 -32l7 -2q5 15 16 23q59 44 143 44 q95 0 144.5 -41.5t49.5 -120.5v-254q0 -31 5.5 -41t27.5 -10l22 1l15 1l1 -9q-14 -1 -38 -6q-47 -8 -79 -47.5t-32 -92.5q0 -33 21 -53.5t56 -20.5q24 0 58 11l5 -17q-46 -14 -72 -14q-51 0 -82 25t-31 65q0 62 85 122v14q0 24 -11 82q-9 51 -10 73h-10q-21 -84 -67 -123 t-104 -39q-85 0 -136.5 37.5t-51.5 98.5q0 60 53.5 103t128.5 43q49 0 83.5 -30.5t34.5 -73.5q0 -19 -12.5 -32t-30.5 -13v47q0 35 -22 59.5t-53 24.5q-45 0 -76.5 -36.5t-31.5 -88.5q0 -50 34.5 -81t91.5 -31q58 0 103 53.5t45 153.5v112z" />
<glyph unicode="hte" horiz-adv-x="1720" d="M1442 278q-27 0 -46 -17.5t-19 -42.5v-57q-17 0 -30 13.5t-13 31.5q0 39 32 66.5t76 27.5h146q8 0 8 9q0 72 -43 116t-115 44q-89 0 -143.5 -59.5t-54.5 -156.5q0 -101 61.5 -172t147.5 -71q73 0 131 26.5t95 74.5l12 -12q-84 -107 -238 -107q-120 0 -205.5 72t-85.5 173 q0 103 83.5 176.5t200.5 73.5q106 0 170.5 -49t64.5 -129v-5q0 -12 -9 -20.5t-22 -8.5zM101 62v669q0 30 -30 30h-47v9h57q37 0 63.5 12.5t26.5 40.5v4h8v-175q0 -98 -18 -260h7q3 27 16 65q22 64 71.5 102t111.5 38q80 0 124 -41t44 -110v-201q-9 -21 -9 -40 q0 -89 65.5 -143t173.5 -54q107 0 189 66.5t104 167.5q-19 -36 -56 -58t-81 -22q-80 0 -129 39t-49 103v248h-131v27h75q32 0 57.5 19t39 45t20.5 47.5t7 31.5v117h10v-216q0 -35 -13 -42v-2q66 0 272 34.5t298 34.5q189 0 314 -138l-6 -6q-80 88 -265 88q-98 0 -307 -20 t-293 -20v-274q0 -45 27.5 -71.5t72.5 -26.5q56 0 95.5 37t39.5 89q0 48 -35 81.5t-85 33.5q-18 0 -31.5 12.5t-13.5 30.5h20q68 0 115.5 -46.5t47.5 -111.5q0 -89 -43.5 -164t-118 -119t-162.5 -44q-132 0 -212.5 73t-80.5 192v185q0 76 -23 113.5t-75 37.5 q-77 0 -128.5 -68t-51.5 -176v-274q0 -36 9 -44.5t45 -8.5h35v-9h-255v9h35q36 0 44.5 8.5t8.5 44.5z" />
<glyph unicode="tel" horiz-adv-x="1552" d="M141 134v418h-131v27h75q41 0 71.5 32.5t41.5 63.5t11 47v117h10v-216q0 -35 -13 -42v-2q66 0 272 34.5t298 34.5q189 0 314 -138l-6 -6q-80 88 -265 88q-99 0 -307.5 -20t-292.5 -20v-444q0 -44 27.5 -71t72.5 -27q56 0 95.5 37t39.5 89q0 48 -35 81.5t-85 33.5 q-19 0 -32 12.5t-13 30.5h20q67 0 115 -46.5t48 -111.5q0 -60 -45 -102t-108 -42q-80 0 -129 39t-49 103zM556 237q0 103 83.5 176.5t200.5 73.5q106 0 170.5 -49t64.5 -129v-5q0 -12 -9 -20.5t-22 -8.5l-204 3q-27 0 -46 -17.5t-19 -42.5v-57q-18 0 -30.5 13.5t-12.5 31.5 q0 39 31.5 66.5t76.5 27.5h146q8 0 8 9q0 72 -43.5 116t-114.5 44q-89 0 -143.5 -59.5t-54.5 -156.5q0 -132 117 -212t309 -80q157 0 279 64.5t161 163.5q-21 -31 -55.5 -49t-74.5 -18q-80 0 -129 39t-49 103v467q0 30 -30 30h-47v9h57q37 0 63.5 12.5t26.5 40.5v4h8v-85 v-504q0 -44 27.5 -71t72.5 -27q56 0 95.5 37t39.5 89q0 48 -35 81.5t-85 33.5q-19 0 -32 12.5t-13 30.5h20q67 0 115 -46.5t48 -111.5q0 -91 -64 -169t-174 -123t-240 -45q-222 0 -357.5 84.5t-135.5 223.5z" />
<glyph unicode="tet" horiz-adv-x="1588" d="M141 134v418h-131v27h75q41 0 71.5 32.5t41.5 63.5t11 47v117h10v-216q0 -35 -13 -42v-2q66 0 263.5 34.5t289.5 34.5q186 0 311 -138l-6 -6q-80 88 -265 88q-99 0 -297.5 -20t-282.5 -20v-444q0 -44 27.5 -71t72.5 -27q56 0 95.5 37t39.5 89q0 48 -35 81.5t-85 33.5 q-19 0 -32 12.5t-13 30.5h20q67 0 115 -46.5t48 -111.5q0 -60 -45 -102t-108 -42q-80 0 -129 39t-49 103zM1065 -39q164 0 292.5 63.5t170.5 161.5q-21 -29 -55 -46.5t-73 -17.5q-80 0 -129 39t-49 103v288h-107l-20 27h71q41 0 71.5 32.5t41.5 63.5t11 47v117h10v-217 q0 -36 -13 -42v-1h262v-27h-249v-314q0 -44 27.5 -71t72.5 -27q56 0 95.5 37t39.5 89q0 48 -35 81.5t-85 33.5q-19 0 -32 12.5t-13 30.5h20q67 0 115 -46.5t48 -111.5q0 -91 -67.5 -169t-183.5 -123t-252 -45q-223 0 -358.5 84.5t-135.5 223.5q0 103 83.5 176.5t200.5 73.5 q106 0 170.5 -49t64.5 -129v-5q0 -12 -9 -20.5t-22 -8.5l-204 3q-27 0 -46 -17.5t-19 -42.5v-57q-18 0 -30.5 13.5t-12.5 31.5q0 39 31.5 66.5t76.5 27.5h146q8 0 8 9q0 72 -43.5 116t-114.5 44q-89 0 -143.5 -59.5t-54.5 -156.5q0 -131 117.5 -211.5t309.5 -80.5z" />
<glyph unicode="ete" horiz-adv-x="1738" d="M761 263v289h-128l-5 27h77q41 0 71.5 32.5t41.5 63.5t11 47v117h10v-216q0 -35 -13 -42v-2q66 0 272 34.5t298 34.5q189 0 314 -138l-6 -6q-80 88 -265 88q-98 0 -307 -20t-293 -20v-315q0 -44 27.5 -70.5t72.5 -26.5q56 0 95.5 37t39.5 89q0 48 -35 81.5t-85 33.5 q-19 0 -32 12.5t-13 30.5h20q67 0 115 -46.5t48 -111.5q0 -91 -67.5 -169t-183.5 -123t-252 -45q-163 0 -287.5 45.5t-192.5 129.5t-68 193q0 124 89 212t215 88q120 0 192.5 -65.5t72.5 -172.5v-5q0 -12 -8.5 -20.5t-21.5 -8.5h-1l-274 3q-31 0 -53 -20.5t-22 -49.5v-56 q-18 0 -30.5 13t-12.5 31q0 43 34.5 73.5t83.5 30.5h214q8 0 8 9q0 99 -51 159.5t-135 60.5q-96 0 -155.5 -73t-59.5 -193q0 -159 131.5 -255.5t346.5 -96.5q164 0 292.5 63.5t170.5 161.5q-21 -29 -55 -46.5t-73 -17.5q-80 0 -129 39t-49 102zM1460 278q-27 0 -46 -17.5 t-19 -42.5v-57q-18 0 -30.5 13.5t-12.5 31.5q0 39 31.5 66.5t76.5 27.5h146q8 0 8 9q0 72 -43.5 116t-114.5 44q-89 0 -143.5 -59.5t-54.5 -156.5q0 -101 61.5 -172t147.5 -71q73 0 131 26.5t95 74.5l12 -12q-85 -107 -238 -107q-120 0 -205.5 72t-85.5 173 q0 103 83.5 176.5t200.5 73.5q106 0 170.5 -49t64.5 -129v-5q0 -12 -9 -20.5t-22 -8.5z" />
<glyph unicode="eto" horiz-adv-x="1758" d="M761 263v289h-131v27h75q41 0 71.5 32.5t41.5 63.5t11 47v117h10v-216q0 -35 -13 -42v-2q66 0 272 34.5t298 34.5q189 0 314 -138l-6 -6q-80 88 -265 88q-98 0 -307 -20t-293 -20v-315q0 -44 27.5 -70.5t72.5 -26.5q56 0 95.5 37t39.5 89q0 48 -35 81.5t-85 33.5 q-19 0 -32 12.5t-13 30.5h20q67 0 115 -46.5t48 -111.5q0 -91 -67.5 -169t-183.5 -123t-252 -45q-163 0 -287.5 45.5t-192.5 129.5t-68 193q0 124 89 212t215 88q120 0 192.5 -65.5t72.5 -172.5v-5q0 -12 -8.5 -20.5t-21.5 -8.5h-1l-274 3q-31 0 -53 -20.5t-22 -49.5v-56 q-18 0 -30.5 13t-12.5 31q0 43 34.5 73.5t83.5 30.5h214q8 0 8 9q0 99 -51 159.5t-135 60.5q-96 0 -155.5 -73t-59.5 -193q0 -159 131.5 -255.5t346.5 -96.5q164 0 292.5 63.5t170.5 161.5q-21 -29 -55 -46.5t-73 -17.5q-80 0 -129 39t-49 102zM1451 -8q-124 0 -200 68 t-76 180q0 102 81 174.5t195 72.5q123 0 198.5 -68t75.5 -179q0 -103 -80.5 -175.5t-193.5 -72.5zM1454 10q83 0 133.5 58t50.5 153q0 103 -56 175.5t-135 72.5q-83 0 -134 -58t-51 -153q0 -103 56.5 -175.5t135.5 -72.5z" />
<glyph unicode="ate" horiz-adv-x="1709" d="M732 264v288h-121v27h65q32 0 57.5 19t39 45t20.5 47.5t7 31.5v117h10v-216q0 -35 -13 -42v-2q66 0 272 34.5t298 34.5q189 0 314 -138l-6 -6q-80 88 -265 88q-98 0 -307 -20t-293 -20v-314q0 -44 27.5 -71t72.5 -27q56 0 95.5 37t39.5 89q0 48 -35 81.5t-85 33.5 q-19 0 -32 12.5t-13 30.5h20q67 0 115 -46.5t48 -111.5q0 -78 -44 -144t-119 -104.5t-164 -38.5q-115 0 -187 62t-76 163h-4l-7 -50q-11 -43 -36.5 -75.5t-57.5 -50.5t-63.5 -27t-60.5 -9q-94 0 -151.5 43.5t-57.5 115.5q0 82 57 132.5t151 50.5q61 0 104.5 -33.5 t43.5 -80.5q0 -19 -12.5 -32t-30.5 -13v47q0 39 -31 66.5t-74 27.5q-58 0 -93 -44.5t-35 -117.5q0 -61 39 -98t102 -37q81 0 138 60.5t57 146.5v202q0 68 -49 109.5t-129 41.5q-72 0 -112 -37.5t-43 -98.5l-3 -62h-18l11 236h10l-3 -53q-2 -24 -4 -32l7 -2q5 15 16 23 q59 44 138 44q116 0 186.5 -50t70.5 -132v-200q0 -93 60.5 -150t159.5 -57q102 0 183 51.5t109 132.5q-20 -32 -55 -51t-76 -19q-80 0 -129 39t-49 103zM1431 278q-27 0 -46 -17.5t-19 -42.5v-56q-18 0 -30.5 13t-12.5 31q0 39 31.5 66.5t76.5 27.5h146q8 0 8 9 q0 72 -43.5 116t-114.5 44q-89 0 -143.5 -59.5t-54.5 -156.5q0 -101 61.5 -172t147.5 -71q73 0 131 26.5t95 74.5l12 -12q-85 -107 -238 -107q-120 0 -205.5 72t-85.5 173q0 104 83.5 177t200.5 73q106 0 170.5 -49t64.5 -129v-5q0 -12 -9 -20.5t-22 -8.5z" />
<glyph unicode="&#x105;te" horiz-adv-x="1709" d="M732 264v288h-121v27h65q32 0 57.5 19t39 45t20.5 47.5t7 31.5v117h10v-216q0 -35 -13 -42v-2q66 0 272 34.5t298 34.5q189 0 314 -138l-6 -6q-80 88 -265 88q-98 0 -307 -20t-293 -20v-314q0 -45 27.5 -71.5t72.5 -26.5q56 0 95.5 37t39.5 89q0 48 -35 81.5t-85 33.5 q-19 0 -32 12.5t-13 30.5h20q67 0 115 -46.5t48 -111.5q0 -78 -44 -144t-119 -104.5t-164 -38.5q-63 0 -108 -33t-45 -79q0 -33 21 -53.5t56 -20.5q24 0 58 11l5 -17q-45 -14 -72 -14q-51 0 -82 25t-31 65q0 37 37 71.5t91 51.5q-86 17 -138 75t-55 143h-4l-7 -50 q-11 -43 -36.5 -75.5t-57.5 -50.5t-63.5 -27t-60.5 -9q-94 0 -151.5 43.5t-57.5 115.5q0 82 57 132.5t151 50.5q61 0 104.5 -33.5t43.5 -80.5q0 -19 -12.5 -32t-30.5 -13v47q0 39 -31 66.5t-74 27.5q-58 0 -93 -44.5t-35 -117.5q0 -61 39 -98t102 -37q81 0 138 60.5 t57 146.5v202q0 68 -49 109.5t-129 41.5q-72 0 -112 -37.5t-43 -98.5l-3 -62h-18l11 236h10l-3 -53q-2 -24 -4 -32l7 -2q5 15 16 23q59 44 138 44q116 0 186.5 -50t70.5 -132v-200q0 -93 60.5 -150t159.5 -57q102 0 183 51.5t109 132.5q-20 -32 -55 -51t-76 -19 q-80 0 -129 39t-49 103zM1431 278q-27 0 -46 -17.5t-19 -42.5v-56q-18 0 -30.5 13t-12.5 31q0 39 31.5 66.5t76.5 27.5h146q8 0 8 9q0 72 -43.5 116t-114.5 44q-89 0 -143.5 -59.5t-54.5 -156.5q0 -101 61.5 -172t147.5 -71q73 0 131 26.5t95 74.5l12 -12 q-85 -107 -238 -107q-120 0 -205.5 72t-85.5 173q0 104 83.5 177t200.5 73q106 0 170.5 -49t64.5 -129v-5q0 -12 -9 -20.5t-22 -8.5z" />
<glyph unicode="at&#x119;" horiz-adv-x="1709" d="M732 264v288h-121v27h65q32 0 57.5 19t39 45t20.5 47.5t7 31.5v117h10v-216q0 -35 -13 -42v-2q66 0 272 34.5t298 34.5q189 0 314 -138l-6 -6q-80 88 -265 88q-98 0 -307 -20t-293 -20v-314q0 -45 27.5 -71.5t72.5 -26.5q56 0 95.5 37t39.5 89q0 48 -35 81.5t-85 33.5 q-19 0 -32 12.5t-13 30.5h20q67 0 115 -46.5t48 -111.5q0 -78 -44 -144t-119 -104.5t-164 -38.5q-115 0 -187 62t-76 163h-4l-7 -50q-11 -43 -36.5 -75.5t-57.5 -50.5t-63.5 -27t-60.5 -9q-94 0 -151.5 43.5t-57.5 115.5q0 82 57 132.5t151 50.5q61 0 104.5 -33.5 t43.5 -80.5q0 -19 -12.5 -32t-30.5 -13v47q0 39 -31 66.5t-74 27.5q-58 0 -93 -44.5t-35 -117.5q0 -61 39 -98t102 -37q81 0 138 60.5t57 146.5v202q0 68 -49 109.5t-129 41.5q-72 0 -112 -37.5t-43 -98.5l-3 -62h-18l11 236h10l-3 -53q-2 -24 -4 -32l7 -2q5 15 16 23 q59 44 138 44q116 0 186.5 -50t70.5 -132v-200q0 -93 60.5 -150t159.5 -57q102 0 183 51.5t109 132.5q-20 -32 -55 -51t-76 -19q-80 0 -129 39t-49 103zM1539 -196l5 -17q-45 -14 -72 -14q-51 0 -82 25t-31 65q0 43 27.5 76t71.5 53h-20q-120 0 -205.5 72t-85.5 173 q0 104 83.5 177t200.5 73q106 0 170.5 -49t64.5 -129v-5q0 -12 -9 -20.5t-22 -8.5l-204 3q-27 0 -46 -17.5t-19 -42.5v-56q-18 0 -30.5 13t-12.5 31q0 39 31.5 66.5t76.5 27.5h146q8 0 8 9q0 72 -43.5 116t-114.5 44q-89 0 -143.5 -59.5t-54.5 -156.5q0 -101 61.5 -172 t147.5 -71q73 0 131 26.5t95 74.5l12 -12q-59 -75 -156 -98q-49 -16 -82.5 -50.5t-33.5 -83.5q0 -33 21 -53.5t56 -20.5q24 0 58 11z" />
<glyph unicode="ite" horiz-adv-x="1358" d="M381 304v248h-131v27h75q32 0 57.5 19t39 45t20.5 47.5t7 31.5v117h10v-216q0 -36 -13 -42v-2q66 0 272 34.5t298 34.5q189 0 314 -138l-6 -6q-80 88 -265 88q-98 0 -307 -20t-293 -20v-274q0 -44 27.5 -71t72.5 -27q56 0 95.5 37t39.5 89q0 48 -35 81.5t-85 33.5 q-19 0 -32 12.5t-13 30.5h20q67 0 115 -46.5t48 -111.5q0 -89 -43.5 -164t-118 -119t-162.5 -44q-132 0 -212.5 73t-80.5 192v277q0 30 -30 30h-45v9h55q37 0 63.5 12.5t26.5 40.5v4h8v-85v-287q-9 -21 -9 -40q0 -89 65.5 -143t173.5 -54q107 0 189 66.5t104 167.5 q-19 -36 -56 -58t-81 -22q-80 0 -129 39t-49 103zM134 800q20 0 32 -11.5t12 -32.5q0 -20 -11.5 -32.5t-32.5 -12.5q-20 0 -32.5 12t-12.5 33q0 20 12 32t33 12zM1080 278q-27 0 -46 -17.5t-19 -42.5v-57q-18 0 -30.5 13.5t-12.5 31.5q0 39 31.5 66.5t76.5 27.5h146q8 0 8 9 q0 72 -43.5 116t-114.5 44q-89 0 -143.5 -59.5t-54.5 -156.5q0 -101 61.5 -172t147.5 -71q73 0 131 26.5t95 74.5l12 -12q-85 -107 -238 -107q-120 0 -205.5 72t-85.5 173q0 103 83.5 176.5t200.5 73.5q106 0 170.5 -49t64.5 -129v-5q0 -12 -9 -20.5t-22 -8.5z" />
<glyph unicode="nte" horiz-adv-x="1725" d="M748 304v248h-131v27h75q32 0 57.5 19t39 45t20.5 47.5t7 31.5v117h10v-216q0 -36 -13 -42v-2q66 0 272 34.5t298 34.5q189 0 314 -138l-6 -6q-80 88 -265 88q-98 0 -307 -20t-293 -20v-274q0 -44 27.5 -71t72.5 -27q56 0 95.5 37t39.5 89q0 48 -35 81.5t-85 33.5 q-19 0 -32 12.5t-13 30.5h20q67 0 115 -46.5t48 -111.5q0 -89 -43.5 -164t-118 -119t-162.5 -44q-132 0 -212.5 73t-80.5 192v185q0 76 -23 113.5t-75 37.5q-78 0 -129 -68t-51 -176v-274q0 -36 9 -44.5t45 -8.5h35v-9h-255v9h35q36 0 44.5 8.5t8.5 44.5v440q0 14 -9 23 t-24 9h-4l-59 -5l-1 6l77 16q32 6 53 25t21 48v4h8v-131q0 -87 -2 -105h7q3 27 16 65q22 64 71.5 102t111.5 38q80 0 124 -41t44 -110v-201q-9 -21 -9 -40q0 -89 65.5 -143t173.5 -54q107 0 189 66.5t104 167.5q-19 -36 -56 -58t-81 -22q-80 0 -129 39t-49 103zM1447 278 q-27 0 -46 -17.5t-19 -42.5v-57q-18 0 -30.5 13.5t-12.5 31.5q0 39 31.5 66.5t76.5 27.5h146q8 0 8 9q0 72 -43.5 116t-114.5 44q-89 0 -143.5 -59.5t-54.5 -156.5q0 -101 61.5 -172t147.5 -71q73 0 131 26.5t95 74.5l12 -12q-85 -107 -238 -107q-120 0 -205.5 72t-85.5 173 q0 103 83.5 176.5t200.5 73.5q106 0 170.5 -49t64.5 -129v-5q0 -12 -9 -20.5t-22 -8.5z" />
<glyph unicode="Rit" horiz-adv-x="1479" d="M757 800q20 0 32 -11.5t12 -32.5q0 -20 -11.5 -32.5t-32.5 -12.5q-20 0 -32.5 12t-12.5 33q0 20 12 32t33 12zM106 62v595q0 36 -8.5 44.5t-44.5 8.5h-35v9h261q120 0 193 -61t73 -161q0 -86 -60 -145.5t-152 -70.5l-20 -1v-6q34 -4 64 -23t47 -46q164 -259 545 -259 q184 0 307 69t151 186q-19 -36 -55.5 -57.5t-80.5 -21.5q-80 0 -129 39t-49 103v288h-131v27h75q32 0 57.5 19t39 45t20.5 47.5t7 31.5v117h10v-217q0 -35 -13 -42v-1h262v-27h-249v-314q0 -44 27.5 -71t72.5 -27q56 0 95.5 37t39.5 89q0 48 -35 81.5t-85 33.5 q-19 0 -32 12.5t-13 30.5h20q67 0 115 -46.5t48 -111.5q0 -161 -138 -260t-363 -99q-117 0 -213.5 21.5t-169.5 61.5t-127 90.5t-97 117.5q-28 43 -48 60t-51 17h-12v17h46q77 0 132 60t55 145q0 84 -55 144t-132 60h-104v-1q17 -17 17 -52v-586q0 -36 9 -44.5t45 -8.5h58 v-9h-278v9h35q36 0 44.5 8.5t8.5 44.5zM718 244v278q0 30 -30 30h-47v9h57q37 0 63.5 12.5t26.5 40.5v4h8v-85v-315q0 -45 31 -76.5t74 -31.5q48 0 81.5 31t33.5 75q0 39 -29.5 67t-70.5 28q-19 0 -32 12.5t-13 30.5h20q59 0 101 -40.5t42 -97.5q0 -51 -39 -87.5t-94 -36.5 q-76 0 -129.5 44.5t-53.5 107.5z" />
<glyph unicode="kto" horiz-adv-x="1771" d="M101 61v670q0 30 -30 30h-47v9h57q37 0 63.5 12.5t26.5 40.5v4h8v-85v-420q54 0 65 14l158 179q18 20 18 38q0 27 -52 27h-9v9h226v-9h-17q-84 0 -145 -69l-160 -181v-4q49 -6 105 -40.5t104 -81.5q8 -8 32 -32.5t36 -35.5l36 -33t40 -33.5t40 -27.5t44 -24t44 -14t47 -6 q120 0 200 61.5t100 165.5q-19 -37 -56.5 -60t-82.5 -23q-80 0 -129 39t-49 103v268h-131v27h75q41 0 71.5 32.5t41.5 63.5t11 47v117h10v-216q0 -35 -13 -42v-2q66 0 272 34.5t298 34.5q189 0 314 -138l-6 -6q-80 88 -265 88q-98 0 -307 -20t-293 -20v-294 q0 -45 27.5 -71.5t72.5 -26.5q56 0 95.5 37t39.5 89q0 48 -35 81.5t-85 33.5q-19 0 -32 12.5t-13 30.5h20q67 0 115 -46.5t48 -111.5q0 -138 -89 -222.5t-235 -84.5q-46 0 -90 9.5t-79 23t-72.5 37t-62 41.5t-55.5 48t-46 46t-41 44q-9 10 -13 14q-65 71 -100 71h-43v-252 q0 -36 9 -44t45 -8h35v-9h-255v9h35q36 0 44.5 8t8.5 44zM1467 10q83 0 133.5 58t50.5 153q0 103 -56 175.5t-135 72.5q-83 0 -134 -58t-51 -153q0 -103 56.5 -175.5t135.5 -72.5zM1464 -8q-124 0 -200 68t-76 180q0 102 81 174.5t195 72.5q123 0 198.5 -68t75.5 -179 q0 -103 -80.5 -175.5t-193.5 -72.5z" />
<glyph unicode="ikto" horiz-adv-x="2036" d="M134 800q20 0 32 -11.5t12 -32.5q0 -20 -11.5 -32.5t-32.5 -12.5q-20 0 -32.5 12t-12.5 33q0 20 12 32t33 12zM95 233v288q0 30 -30 30h-45v9h55q37 0 63.5 12.5t26.5 40.5v4h8v-85v-348q0 -79 46.5 -127.5t123.5 -48.5q49 0 83.5 31.5t34.5 76.5q0 40 -25 66t-67 29h-81 v9h25q36 0 44.5 8t8.5 44v459q0 30 -30 30h-47v9h57q37 0 63.5 12.5t26.5 40.5v4h8v-85v-420q54 0 65 14l158 179q18 20 18 38q0 27 -52 27h-9v9h226v-9h-17q-84 0 -145 -69l-160 -181v-4q49 -6 105 -40.5t104 -81.5q8 -8 32 -32.5t36 -35.5l36 -33t40 -33.5t40 -27.5 t44 -24t44 -14t47 -6q120 0 200 61.5t100 165.5q-19 -37 -56.5 -60t-82.5 -23q-80 0 -129 39t-49 103v268h-131v27h75q41 0 71.5 32.5t41.5 63.5t11 47v117h10v-216q0 -35 -13 -42v-2q66 0 272 34.5t298 34.5q189 0 314 -138l-6 -6q-80 88 -265 88q-98 0 -307 -20t-293 -20 v-294q0 -44 27.5 -71t72.5 -27q56 0 95.5 37t39.5 89q0 48 -35 81.5t-85 33.5q-19 0 -32 12.5t-13 30.5h20q67 0 115 -46.5t48 -111.5q0 -138 -89 -222.5t-235 -84.5q-46 0 -90 9.5t-79 23t-72.5 37t-62 41.5t-55.5 48t-46 46t-41 44q-9 10 -13 14q-65 71 -100 71h-43v-41 q0 -33 14 -84q12 -45 12 -72q0 -57 -44.5 -97t-107.5 -40q-100 0 -161.5 70t-61.5 184zM1732 10q83 0 133.5 58t50.5 153q0 103 -56 175.5t-135 72.5q-83 0 -134 -58t-51 -153q0 -103 56.5 -175.5t135.5 -72.5zM1729 -8q-124 0 -200 68t-76 180q0 102 81 174.5t195 72.5 q123 0 198.5 -68t75.5 -179q0 -103 -80.5 -175.5t-193.5 -72.5z" />
<glyph unicode="eta" horiz-adv-x="1703" d="M761 263v289h-131v27h75q41 0 71.5 32.5t41.5 63.5t11 47v117h10v-216q0 -35 -13 -42v-2q66 0 254.5 35t280.5 35q90 0 167.5 -29t151.5 -110l-6 -6q-41 45 -114 67t-159 22q-99 0 -288.5 -20.5t-273.5 -20.5v-315q0 -43 27.5 -70t72.5 -27q56 0 95.5 37t39.5 89 q0 48 -35 81.5t-85 33.5q-19 0 -32 12.5t-13 30.5h20q67 0 115 -46.5t48 -111.5q0 -91 -67.5 -169t-183.5 -123t-252 -45q-163 0 -287.5 45.5t-192.5 129.5t-68 193q0 124 89 212t215 88q120 0 192.5 -65.5t72.5 -172.5v-5q0 -12 -8.5 -20.5t-21.5 -8.5h-1l-274 3 q-31 0 -53 -20.5t-22 -49.5v-56q-18 0 -30.5 13t-12.5 31q0 43 34.5 73.5t83.5 30.5h214q8 0 8 9q0 99 -51 159.5t-135 60.5q-96 0 -155.5 -73t-59.5 -193q0 -159 131.5 -255.5t346.5 -96.5q164 0 292.5 63.5t170.5 161.5q-21 -29 -55 -46.5t-73 -17.5q-80 0 -129 39 t-49 102zM1529 338q0 64 -29 98t-84 34q-72 0 -114.5 -38.5t-45.5 -98.5l-3 -22h-18l11 196h10l-3 -53q-2 -24 -4 -32l7 -2q5 15 16 23q59 44 143 44q95 0 144.5 -41.5t49.5 -120.5v-254q0 -31 5.5 -41t27.5 -10q3 0 9.5 0.5t10.5 0.5l17 1l1 -9q-62 -6 -111 -22v8 q0 25 -9.5 82.5t-9.5 72.5h-10q-21 -85 -67 -123.5t-104 -38.5q-85 0 -136.5 37.5t-51.5 98.5q0 60 53.5 103t128.5 43q49 0 83.5 -30.5t34.5 -73.5q0 -19 -12.5 -32t-30.5 -13v47q0 35 -22 59.5t-53 24.5q-45 0 -76.5 -36.5t-31.5 -88.5q0 -50 34.5 -81t91.5 -31 q58 0 103 53.5t45 153.5v112z" />
<glyph unicode="ato" horiz-adv-x="1730" d="M810 238q0 -44 27.5 -71t72.5 -27q56 0 95.5 37t39.5 89q0 48 -35 81.5t-85 33.5q-19 0 -32 12.5t-13 30.5h20q67 0 115 -46.5t48 -111.5q0 -78 -44 -144t-119 -104.5t-164 -38.5q-115 0 -187 62t-76 163h-4l-7 -50q-11 -43 -36.5 -75.5t-57.5 -50.5t-63.5 -27t-60.5 -9 q-94 0 -151.5 43.5t-57.5 115.5q0 82 57 132.5t151 50.5q61 0 104.5 -33.5t43.5 -80.5q0 -19 -12.5 -32t-30.5 -13v47q0 39 -31 66.5t-74 27.5q-58 0 -93 -44.5t-35 -117.5q0 -61 39 -98t102 -37q81 0 138 60.5t57 146.5v202q0 68 -49 109.5t-129 41.5q-72 0 -112 -37.5 t-43 -98.5l-3 -62h-18l11 236h10l-3 -53q-2 -24 -4 -32l7 -2q5 15 16 23q59 44 138 44q116 0 186.5 -50t70.5 -132v-200q0 -93 60.5 -150t159.5 -57q102 0 183 51.5t109 132.5q-20 -32 -55 -51t-76 -19q-80 0 -129 39t-49 103v288h-131v27h75q41 0 71.5 32.5t41.5 63.5 t11 47v117h10v-216q0 -35 -13 -42v-2q66 0 272 34.5t298 34.5q189 0 314 -138l-6 -6q-80 88 -265 88q-98 0 -307 -20t-293 -20v-314zM1422 -8q-124 0 -200 68t-76 180q0 102 81 174.5t195 72.5q123 0 198.5 -68t75.5 -179q0 -103 -80.5 -175.5t-193.5 -72.5zM1425 10 q83 0 133.5 58t50.5 153q0 103 -56 175.5t-135 72.5q-83 0 -134 -58t-51 -153q0 -103 56.5 -175.5t135.5 -72.5z" />
<glyph unicode="ata" horiz-adv-x="1674" d="M732 264v288h-131v27h75q32 0 57.5 19t39 45t20.5 47.5t7 31.5v117h10v-216q0 -35 -13 -42v-2q66 0 254.5 35t280.5 35q90 0 167.5 -29t151.5 -110l-6 -6q-41 45 -114 67t-159 22q-99 0 -288.5 -20.5t-273.5 -20.5v-314q0 -44 27.5 -71t72.5 -27q56 0 95.5 37t39.5 89 q0 48 -35 81.5t-85 33.5q-19 0 -32 12.5t-13 30.5h20q67 0 115 -46.5t48 -111.5q0 -78 -44 -144t-119 -104.5t-164 -38.5q-115 0 -187 62t-76 163h-4l-7 -50q-11 -43 -36.5 -75.5t-57.5 -50.5t-63.5 -27t-60.5 -9q-94 0 -151.5 43.5t-57.5 115.5q0 82 57 132.5t151 50.5 q61 0 104.5 -33.5t43.5 -80.5q0 -19 -12.5 -32t-30.5 -13v47q0 39 -31 66.5t-74 27.5q-58 0 -93 -44.5t-35 -117.5q0 -61 39 -98t102 -37q81 0 138 60.5t57 146.5v202q0 68 -49 109.5t-129 41.5q-72 0 -112 -37.5t-43 -98.5l-3 -62h-18l11 236h10l-3 -53q-2 -24 -4 -32l7 -2 q5 15 16 23q59 44 138 44q116 0 186.5 -50t70.5 -132v-200q0 -93 60.5 -150t159.5 -57q102 0 183 51.5t109 132.5q-20 -32 -55 -51t-76 -19q-80 0 -129 39t-49 103zM1500 338q0 64 -29 98t-84 34q-72 0 -114.5 -38.5t-45.5 -98.5l-3 -22h-18l11 196h10l-3 -53q-2 -24 -4 -32 l7 -2q5 15 16 23q59 44 143 44q95 0 144.5 -41.5t49.5 -120.5v-254q0 -31 5.5 -41t27.5 -10q3 0 9.5 0.5t10.5 0.5l17 1l1 -9q-62 -6 -111 -22v8q0 25 -9.5 82.5t-9.5 72.5h-10q-21 -84 -67 -123t-104 -39q-85 0 -136.5 37.5t-51.5 98.5q0 60 53.5 103t128.5 43 q49 0 83.5 -30.5t34.5 -73.5q0 -19 -12.5 -32t-30.5 -13v47q0 35 -22 59.5t-53 24.5q-45 0 -76.5 -36.5t-31.5 -88.5q0 -50 34.5 -81t91.5 -31q58 0 103 53.5t45 153.5v112z" />
<glyph unicode="Et" horiz-adv-x="1017" d="M106 69v588q0 36 -8.5 44.5t-44.5 8.5h-35v9h399q28 0 37 -9h1l-3 46l9 1l18 -271h-18l-4 70q-4 79 -41.5 112t-112.5 33h-141v-1q22 -22 22 -52v-262h40q24 0 41 3.5t33.5 13.5t25 32.5t8.5 56.5v35h9v-321h-9v55q0 34 -8.5 56.5t-25 33t-33.5 14t-41 3.5h-40v-349v-1 h47q55 0 191.5 -18t211.5 -18q132 0 221 59.5t111 160.5q-19 -36 -56 -58t-81 -22q-80 0 -129 39t-49 103v288h-126v27h70q41 0 71.5 32.5t41.5 63.5t11 47v117h10v-217q0 -36 -13 -42v-1h262v-27h-249v-314q0 -44 27.5 -71t72.5 -27q56 0 95.5 37t39.5 89q0 48 -35 81.5 t-85 33.5q-19 0 -32 12.5t-13 30.5h20q67 0 115 -46.5t48 -111.5q0 -157 -99 -252.5t-260 -95.5q-58 0 -144 20.5t-168 41t-132 20.5h-161v9h35q35 0 44 11.5t9 48.5z" />
<glyph unicode="Eta" horiz-adv-x="1593" d="M1419 338q0 64 -29 98t-84 34q-72 0 -114.5 -38.5t-45.5 -98.5l-3 -22h-18l11 196h10l-3 -53q-2 -24 -4 -32l7 -2q5 15 16 23q59 44 143 44q95 0 144.5 -41.5t49.5 -120.5v-254q0 -31 5.5 -41t27.5 -10q3 0 9.5 0.5t10.5 0.5l17 1l1 -9q-62 -6 -111 -22v8q0 25 -9.5 82.5 t-9.5 72.5h-10q-21 -85 -67 -123.5t-104 -38.5q-85 0 -136.5 37.5t-51.5 98.5q0 60 53.5 103t128.5 43q49 0 83.5 -30.5t34.5 -73.5q0 -19 -12.5 -32t-30.5 -13v47q0 35 -22 59.5t-53 24.5q-45 0 -76.5 -36.5t-31.5 -88.5q0 -50 34.5 -81t91.5 -31q58 0 103 53.5t45 153.5 v112zM106 69v588q0 36 -8.5 44.5t-44.5 8.5h-35v9h399q28 0 37 -9h1l-3 46l9 1l18 -271h-18l-4 70q-4 79 -41.5 112t-112.5 33h-141v-1q22 -22 22 -52v-262h40q24 0 41 3.5t33.5 13.5t25 32.5t8.5 56.5v35h9v-321h-9v55q0 34 -8.5 56.5t-25 33t-33.5 14t-41 3.5h-40v-349v-1 h47q55 0 191.5 -18t211.5 -18q132 0 221 59.5t111 160.5q-19 -36 -56 -58t-81 -22q-80 0 -129 39t-49 103v288h-126v27h70q32 0 57.5 19t39 45t20.5 47.5t7 31.5v117h10v-216q0 -35 -13 -42v-2q58 0 154.5 19.5t200.5 38.5t180 19q90 0 167 -31.5t152 -114.5l-6 -6 q-41 45 -114 67t-159 22q-99 0 -288.5 -20.5t-273.5 -20.5v-314q0 -44 27.5 -71t72.5 -27q56 0 95.5 37t39.5 89q0 48 -35 81.5t-85 33.5q-19 0 -32 12.5t-13 30.5h20q67 0 115 -46.5t48 -111.5q0 -157 -99 -252.5t-260 -95.5q-58 0 -144 20.5t-168 41t-132 20.5h-161v9h35 q35 0 44 11.5t9 48.5z" />
<glyph unicode="wel" horiz-adv-x="1955" d="M687 -4l-56 -5l-147 492l-147 -488l-56 -4l-199 527q-15 39 -24.5 50.5t-33.5 11.5h-15v9h144v-14q0 -19 7 -43l168 -427q6 -15 6 -36h10q0 13 7 36l123 409l-1 4q-11 37 -22 49.5t-37 12.5h-63v9h224v-9h-55v-2q20 -7 31 -46l128 -427q6 -20 6 -36h14q0 18 10 42 l115 274q10 25 10 51q0 43 -26.5 73t-72.5 30h-17v18q51 0 118 18t122 39t124.5 39t124.5 18q165 0 293 -141l-6 -6q-83 88 -265 88q-96 0 -249 -31t-217 -36q41 -8 66 -38.5t25 -72.5q0 -26 -11 -52zM959 237q0 103 83.5 176.5t200.5 73.5q106 0 170.5 -49t64.5 -129v-5 q0 -12 -9 -20.5t-22 -8.5l-204 3q-27 0 -46 -17.5t-19 -42.5v-57q-18 0 -30.5 13.5t-12.5 31.5q0 39 31.5 66.5t76.5 27.5h146q8 0 8 9q0 72 -43.5 116t-114.5 44q-89 0 -143.5 -59.5t-54.5 -156.5q0 -132 117 -212t309 -80q157 0 279 64.5t161 163.5q-21 -31 -55.5 -49 t-74.5 -18q-80 0 -129 39t-49 103v467q0 30 -30 30h-47v9h57q37 0 63.5 12.5t26.5 40.5v4h8v-85v-504q0 -44 27.5 -71t72.5 -27q56 0 95.5 37t39.5 89q0 48 -35 81.5t-85 33.5q-19 0 -32 12.5t-13 30.5h20q67 0 115 -46.5t48 -111.5q0 -91 -64 -169t-174 -123t-240 -45 q-222 0 -357.5 84.5t-135.5 223.5z" />
<glyph unicode="wes" horiz-adv-x="2006" d="M687 -4l-56 -5l-147 492l-147 -488l-56 -4l-199 527q-15 39 -24.5 50.5t-33.5 11.5h-15v9h144v-14q0 -19 7 -43l168 -427q6 -15 6 -36h10q0 13 7 36l123 409l-1 4q-11 37 -22 49.5t-37 12.5h-63v9h224v-9h-55v-2q20 -7 31 -46l128 -427q6 -20 6 -36h14q0 18 10 42 l115 274q10 25 10 51q0 43 -26.5 73t-72.5 30h-17v18q51 0 118 18t122 39t124.5 39t124.5 18q165 0 293 -141l-6 -6q-83 88 -265 88q-96 0 -249 -31t-217 -36q41 -8 66 -38.5t25 -72.5q0 -26 -11 -52zM959 237q0 103 83.5 176.5t200.5 73.5q106 0 170.5 -49t64.5 -129v-5 q0 -12 -9 -20.5t-22 -8.5l-204 3q-27 0 -46 -17.5t-19 -42.5v-57q-18 0 -30.5 13.5t-12.5 31.5q0 39 31.5 66.5t76.5 27.5h146q8 0 8 9q0 72 -43.5 116t-114.5 44q-89 0 -143.5 -59.5t-54.5 -156.5q0 -133 133.5 -214.5t352.5 -81.5q167 0 269 52t102 137q0 25 -11.5 45 t-34.5 35t-45.5 25t-56 21.5t-53.5 19.5t-47.5 23t-42.5 30t-26.5 38.5t-11.5 51.5q0 73 54 117.5t143 44.5q74 0 133 -44q11 -8 16 -23l7 2q-2 8 -4 32l-3 53h10l11 -236l-18 -1l-2 42q-3 65 -41.5 111t-108.5 46q-61 0 -94 -31.5t-33 -90.5q0 -17 8 -31.5t19.5 -24.5 t32.5 -20.5t37.5 -17t44.5 -15.5q33 -12 56 -21.5t50.5 -25.5t44.5 -34.5t29 -45.5t12 -59q0 -101 -126 -163t-332 -62q-165 0 -291.5 37.5t-195.5 105.5t-69 157z" />
<glyph unicode="we&#x142;" horiz-adv-x="1989" d="M959 237q0 103 83.5 176.5t200.5 73.5q106 0 170.5 -49t64.5 -129v-5q0 -12 -9 -20.5t-22 -8.5l-204 3q-27 0 -46 -17.5t-19 -42.5v-57q-18 0 -30.5 13.5t-12.5 31.5q0 39 31.5 66.5t76.5 27.5h146q8 0 8 9q0 72 -43.5 116t-114.5 44q-89 0 -143.5 -59.5t-54.5 -156.5 q0 -131 117 -211.5t308 -80.5q164 0 292.5 63.5t170.5 161.5q-21 -29 -55 -46.5t-73 -17.5q-80 0 -129 39t-49 103v175l-74 -55l-17 21l91 68v258q0 30 -30 30h-47v9h57q37 0 63.5 12.5t26.5 40.5v4h8v-85v-211l186 139l16 -21l-202 -151v-260q0 -44 27.5 -71t72.5 -27 q56 0 95.5 37t39.5 89q0 48 -35 81.5t-85 33.5q-19 0 -32 12.5t-13 30.5h20q67 0 115 -46.5t48 -111.5q0 -91 -67.5 -169t-183.5 -123t-252 -45q-222 0 -357 84.5t-135 223.5zM687 -4l-56 -5l-147 492l-147 -488l-56 -4l-199 527q-15 39 -24.5 50.5t-33.5 11.5h-15v9h144 v-14q0 -19 7 -43l168 -427q6 -15 6 -36h10q0 13 7 36l123 409l-1 4q-11 37 -22 49.5t-37 12.5h-63v9h224v-9h-55v-2q20 -7 31 -46l128 -427q6 -20 6 -36h14q0 18 10 42l115 274q10 25 10 51q0 43 -26.5 73t-72.5 30h-17v18q51 0 118 18t122 39t124.5 39t124.5 18 q165 0 293 -141l-6 -6q-82 88 -265 88q-96 0 -249 -31t-217 -36q41 -8 66 -38.5t25 -72.5q0 -26 -11 -52z" />
<glyph unicode="yes" horiz-adv-x="1631" d="M584 237q0 103 83.5 176.5t200.5 73.5q106 0 170.5 -49t64.5 -129v-5q0 -12 -9 -20.5t-22 -8.5l-204 3q-27 0 -46 -17.5t-19 -42.5v-57q-18 0 -30.5 13.5t-12.5 31.5q0 39 31.5 66.5t76.5 27.5h146q8 0 8 9q0 72 -43.5 116t-114.5 44q-89 0 -143.5 -59.5t-54.5 -156.5 q0 -133 133.5 -214.5t352.5 -81.5q167 0 269 52t102 137q0 25 -11.5 45t-34.5 35t-45.5 25t-56 21.5t-53.5 19.5t-47.5 23t-42.5 30t-26.5 38.5t-11.5 51.5q0 73 54 117.5t143 44.5q74 0 133 -44q11 -8 16 -23l7 2q-2 8 -4 32l-3 53h10l11 -236l-18 -1l-2 42 q-3 65 -41.5 111t-108.5 46q-61 0 -94 -31.5t-33 -90.5q0 -17 8 -31.5t19.5 -24.5t32.5 -20.5t37.5 -17t44.5 -15.5q33 -12 56 -21.5t50.5 -25.5t44.5 -34.5t29 -45.5t12 -59q0 -101 -126 -163t-332 -62q-165 0 -291.5 37.5t-195.5 105.5t-69 157zM369 589q64 0 147.5 20.5 t168.5 41t152 20.5q160 0 288 -141l-6 -6q-82 88 -260 88q-94 0 -238 -16.5t-210 -18.5q38 -9 58.5 -37.5t20.5 -67.5q0 -28 -10 -56l-170 -471q-24 -60 -59.5 -91.5t-75.5 -31.5q-47 0 -80 34.5t-33 83.5t34 78.5t89 29.5h20q0 -19 -12.5 -31t-32.5 -12q-36 0 -58 -18 t-22 -47q0 -31 28.5 -53.5t69.5 -22.5q85 0 113 81l17 50q5 12 5 26q0 15 -7 30l-220 467q-18 38 -28.5 50t-31.5 12h-15v9h193v-9h-72v-2q14 -5 34 -47l173 -367q7 -16 7 -42h7l108 297q10 28 10 55q0 42 -23.5 69.5t-67.5 27.5h-11v18z" />
<glyph unicode="yel" horiz-adv-x="1580" d="M584 237q0 103 83.5 176.5t200.5 73.5q106 0 170.5 -49t64.5 -129v-5q0 -12 -9 -20.5t-22 -8.5l-204 3q-27 0 -46 -17.5t-19 -42.5v-57q-18 0 -30.5 13.5t-12.5 31.5q0 39 31.5 66.5t76.5 27.5h146q8 0 8 9q0 72 -43.5 116t-114.5 44q-89 0 -143.5 -59.5t-54.5 -156.5 q0 -132 117 -212t309 -80q157 0 279 64.5t161 163.5q-21 -31 -55.5 -49t-74.5 -18q-80 0 -129 39t-49 103v467q0 30 -30 30h-47v9h57q37 0 63.5 12.5t26.5 40.5v4h8v-85v-504q0 -44 27.5 -71t72.5 -27q56 0 95.5 37t39.5 89q0 48 -35 81.5t-85 33.5q-19 0 -32 12.5t-13 30.5 h20q67 0 115 -46.5t48 -111.5q0 -91 -64 -169t-174 -123t-240 -45q-222 0 -357.5 84.5t-135.5 223.5zM369 589q64 0 147.5 20.5t168.5 41t152 20.5q160 0 288 -141l-6 -6q-82 88 -260 88q-94 0 -238 -16.5t-210 -18.5q38 -9 58.5 -37.5t20.5 -67.5q0 -28 -10 -56l-170 -471 q-24 -60 -59.5 -91.5t-75.5 -31.5q-47 0 -80 34.5t-33 83.5t34 78.5t89 29.5h20q0 -19 -12.5 -31t-32.5 -12q-36 0 -58 -18t-22 -47q0 -31 28.5 -53.5t69.5 -22.5q85 0 113 81l17 50q5 12 5 26q0 15 -7 30l-220 467q-18 38 -28.5 50t-31.5 12h-15v9h193v-9h-72v-2 q14 -5 34 -47l173 -367q7 -16 7 -42h7l108 297q10 28 10 55q0 42 -23.5 69.5t-67.5 27.5h-11v18z" />
<glyph unicode="ves" horiz-adv-x="1670" d="M623 237q0 103 83.5 176.5t200.5 73.5q106 0 170.5 -49t64.5 -129v-5q0 -12 -9 -20.5t-22 -8.5l-204 3q-27 0 -46 -17.5t-19 -42.5v-57q-18 0 -30.5 13.5t-12.5 31.5q0 39 31.5 66.5t76.5 27.5h146q8 0 8 9q0 72 -43.5 116t-114.5 44q-89 0 -143.5 -59.5t-54.5 -156.5 q0 -133 133.5 -214.5t352.5 -81.5q167 0 269 52t102 137q0 25 -11.5 45t-34.5 35t-45.5 25t-56 21.5t-53.5 19.5t-47.5 23t-42.5 30t-26.5 38.5t-11.5 51.5q0 73 54 117.5t143 44.5q74 0 133 -44q11 -8 16 -23l7 2q-2 8 -4 32l-3 53h10l11 -236l-18 -1l-2 42 q-3 65 -41.5 111t-108.5 46q-61 0 -94 -31.5t-33 -90.5q0 -17 8 -31.5t19.5 -24.5t32.5 -20.5t37.5 -17t44.5 -15.5q33 -12 56 -21.5t50.5 -25.5t44.5 -34.5t29 -45.5t12 -59q0 -101 -126 -163t-332 -62q-165 0 -291.5 37.5t-195.5 105.5t-69 157zM408 589q64 0 147.5 20.5 t168.5 41t152 20.5q160 0 288 -141l-6 -6q-82 88 -260 88q-94 0 -238 -16.5t-210 -18.5q38 -9 59.5 -37.5t21.5 -66.5q0 -28 -12 -57l-170 -421l-54 -4l-212 527q-15 38 -25.5 50t-33.5 12h-15v9h198v-9h-77v-2q17 -6 31 -46l177 -427q8 -19 8 -36h13q0 16 10 40l129 310 q12 29 12 57q0 41 -24 68t-67 27h-11v18z" />
<glyph unicode="vel" horiz-adv-x="1619" d="M623 237q0 103 83.5 176.5t200.5 73.5q106 0 170.5 -49t64.5 -129v-5q0 -12 -9 -20.5t-22 -8.5l-204 3q-27 0 -46 -17.5t-19 -42.5v-57q-18 0 -30.5 13.5t-12.5 31.5q0 39 31.5 66.5t76.5 27.5h146q8 0 8 9q0 72 -43.5 116t-114.5 44q-89 0 -143.5 -59.5t-54.5 -156.5 q0 -132 117 -212t309 -80q157 0 279 64.5t161 163.5q-21 -31 -55.5 -49t-74.5 -18q-80 0 -129 39t-49 103v467q0 30 -30 30h-47v9h57q37 0 63.5 12.5t26.5 40.5v4h8v-85v-504q0 -44 27.5 -71t72.5 -27q56 0 95.5 37t39.5 89q0 48 -35 81.5t-85 33.5q-19 0 -32 12.5t-13 30.5 h20q67 0 115 -46.5t48 -111.5q0 -91 -64 -169t-174 -123t-240 -45q-222 0 -357.5 84.5t-135.5 223.5zM408 589q64 0 147.5 20.5t168.5 41t152 20.5q160 0 288 -141l-6 -6q-82 88 -260 88q-94 0 -238 -16.5t-210 -18.5q38 -9 59.5 -37.5t21.5 -66.5q0 -28 -12 -57l-170 -421 l-54 -4l-212 527q-15 38 -25.5 50t-33.5 12h-15v9h198v-9h-77v-2q17 -6 31 -46l177 -427q8 -19 8 -36h13q0 16 10 40l129 310q12 29 12 57q0 41 -24 68t-67 27h-11v18z" />
<glyph unicode="as" horiz-adv-x="1094" d="M451 428q0 68 -49 109.5t-129 41.5q-72 0 -112 -37.5t-43 -98.5l-3 -62h-18l11 236h10l-3 -53q-2 -24 -4 -32l7 -2q5 15 16 23q59 44 138 44q116 0 186.5 -50t70.5 -132v-200q0 -97 66 -156t174 -59q98 0 157.5 42.5t59.5 111.5q0 19 -8.5 34.5t-21 27t-33.5 22.5t-39 18 t-45 17q-34 11 -54 19t-47.5 22.5t-42.5 30t-26.5 39t-11.5 51.5q0 73 54 117.5t143 44.5q74 0 133 -44q11 -8 16 -23l7 2q-2 8 -4 32l-3 53h10l11 -236l-18 -1l-2 42q-3 65 -41.5 111t-108.5 46q-61 0 -94 -31.5t-33 -90.5q0 -17 8.5 -31.5t19.5 -24.5t32.5 -20.5t38 -17 t44.5 -16.5q33 -11 55 -20t50.5 -25t45 -33t28.5 -42.5t12 -56.5q0 -86 -81 -138.5t-214 -52.5q-121 0 -207 66t-86 159h-4l-7 -50q-11 -43 -36.5 -75.5t-57.5 -50.5t-63.5 -27t-60.5 -9q-94 0 -151.5 43.5t-57.5 115.5q0 82 57 132.5t151 50.5q61 0 104.5 -33.5t43.5 -80.5 q0 -19 -12.5 -32t-30.5 -13v47q0 39 -31 66.5t-74 27.5q-58 0 -93 -44.5t-35 -117.5q0 -61 39 -98t102 -37q81 0 138 60.5t57 146.5v202z" />
<glyph unicode="&#xe1;s" horiz-adv-x="1094" d="M258 657l-9 8l118 139q4 5 10 5q5 0 10 -4l16 -13l-24 -30zM451 428q0 68 -49 109.5t-129 41.5q-72 0 -112 -37.5t-43 -98.5l-3 -62h-18l11 236h10l-3 -53q-2 -24 -4 -32l7 -2q5 15 16 23q59 44 138 44q116 0 186.5 -50t70.5 -132v-200q0 -97 66 -156t174 -59 q98 0 157.5 42.5t59.5 111.5q0 19 -8.5 34.5t-21 27t-33.5 22.5t-39 18t-45 17q-34 11 -54 19t-47.5 22.5t-42.5 30t-26.5 39t-11.5 51.5q0 73 54 117.5t143 44.5q74 0 133 -44q11 -8 16 -23l7 2q-2 8 -4 32l-3 53h10l11 -236l-18 -1l-2 42q-3 65 -41.5 111t-108.5 46 q-61 0 -94 -31.5t-33 -90.5q0 -17 8.5 -31.5t19.5 -24.5t32.5 -20.5t38 -17t44.5 -16.5q33 -11 55 -20t50.5 -25t45 -33t28.5 -42.5t12 -56.5q0 -86 -81 -138.5t-214 -52.5q-121 0 -207 66t-86 159h-4l-7 -50q-11 -43 -36.5 -75.5t-57.5 -50.5t-63.5 -27t-60.5 -9 q-94 0 -151.5 43.5t-57.5 115.5q0 82 57 132.5t151 50.5q61 0 104.5 -33.5t43.5 -80.5q0 -19 -12.5 -32t-30.5 -13v47q0 39 -31 66.5t-74 27.5q-58 0 -93 -44.5t-35 -117.5q0 -61 39 -98t102 -37q81 0 138 60.5t57 146.5v202z" />
<glyph unicode="&#xe4;s" horiz-adv-x="1094" d="M202 782q20 0 32.5 -11.5t12.5 -32.5q0 -20 -12 -32t-33 -12q-20 0 -32 11.5t-12 32.5q0 20 11.5 32t32.5 12zM398 782q20 0 32 -11.5t12 -32.5q0 -20 -11.5 -32t-32.5 -12q-20 0 -32.5 11.5t-12.5 32.5q0 20 12 32t33 12zM451 428q0 68 -49 109.5t-129 41.5 q-72 0 -112 -37.5t-43 -98.5l-3 -62h-18l11 236h10l-3 -53q-2 -24 -4 -32l7 -2q5 15 16 23q59 44 138 44q116 0 186.5 -50t70.5 -132v-200q0 -97 66 -156t174 -59q98 0 157.5 42.5t59.5 111.5q0 19 -8.5 34.5t-21 27t-33.5 22.5t-39 18t-45 17q-34 11 -54 19t-47.5 22.5 t-42.5 30t-26.5 39t-11.5 51.5q0 73 54 117.5t143 44.5q74 0 133 -44q11 -8 16 -23l7 2q-2 8 -4 32l-3 53h10l11 -236l-18 -1l-2 42q-3 65 -41.5 111t-108.5 46q-61 0 -94 -31.5t-33 -90.5q0 -17 8.5 -31.5t19.5 -24.5t32.5 -20.5t38 -17t44.5 -16.5q33 -11 55 -20t50.5 -25 t45 -33t28.5 -42.5t12 -56.5q0 -86 -81 -138.5t-214 -52.5q-121 0 -207 66t-86 159h-4l-7 -50q-11 -43 -36.5 -75.5t-57.5 -50.5t-63.5 -27t-60.5 -9q-94 0 -151.5 43.5t-57.5 115.5q0 82 57 132.5t151 50.5q61 0 104.5 -33.5t43.5 -80.5q0 -19 -12.5 -32t-30.5 -13v47 q0 39 -31 66.5t-74 27.5q-58 0 -93 -44.5t-35 -117.5q0 -61 39 -98t102 -37q81 0 138 60.5t57 146.5v202z" />
<glyph unicode="&#x103;s" horiz-adv-x="1094" d="M162 798l18 9q60 -89 120 -89q63 0 124 89l14 -9q-23 -51 -60 -83.5t-78 -32.5q-76 0 -138 116zM451 428q0 68 -49 109.5t-129 41.5q-72 0 -112 -37.5t-43 -98.5l-3 -62h-18l11 236h10l-3 -53q-2 -24 -4 -32l7 -2q5 15 16 23q59 44 138 44q116 0 186.5 -50t70.5 -132 v-200q0 -97 66 -156t174 -59q98 0 157.5 42.5t59.5 111.5q0 19 -8.5 34.5t-21 27t-33.5 22.5t-39 18t-45 17q-34 11 -54 19t-47.5 22.5t-42.5 30t-26.5 39t-11.5 51.5q0 73 54 117.5t143 44.5q74 0 133 -44q11 -8 16 -23l7 2q-2 8 -4 32l-3 53h10l11 -236l-18 -1l-2 42 q-3 65 -41.5 111t-108.5 46q-61 0 -94 -31.5t-33 -90.5q0 -17 8.5 -31.5t19.5 -24.5t32.5 -20.5t38 -17t44.5 -16.5q33 -11 55 -20t50.5 -25t45 -33t28.5 -42.5t12 -56.5q0 -86 -81 -138.5t-214 -52.5q-121 0 -207 66t-86 159h-4l-7 -50q-11 -43 -36.5 -75.5t-57.5 -50.5 t-63.5 -27t-60.5 -9q-94 0 -151.5 43.5t-57.5 115.5q0 82 57 132.5t151 50.5q61 0 104.5 -33.5t43.5 -80.5q0 -19 -12.5 -32t-30.5 -13v47q0 39 -31 66.5t-74 27.5q-58 0 -93 -44.5t-35 -117.5q0 -61 39 -98t102 -37q81 0 138 60.5t57 146.5v202z" />
<glyph unicode="a&#x15b;" horiz-adv-x="1094" d="M451 428q0 68 -49 109.5t-129 41.5q-72 0 -112 -37.5t-43 -98.5l-3 -62h-18l11 236h10l-3 -53q-2 -24 -4 -32l7 -2q5 15 16 23q59 44 138 44q116 0 186.5 -50t70.5 -132v-200q0 -97 66 -156t174 -59q98 0 157.5 42.5t59.5 111.5q0 19 -8.5 34.5t-21 27t-33.5 22.5t-39 18 t-45 17q-34 11 -54 19t-47.5 22.5t-42.5 30t-26.5 39t-11.5 51.5q0 73 54 117.5t143 44.5q74 0 133 -44q11 -8 16 -23l7 2q-2 8 -4 32l-3 53h10l11 -236l-18 -1l-2 42q-3 65 -41.5 111t-108.5 46q-61 0 -94 -31.5t-33 -90.5q0 -17 8.5 -31.5t19.5 -24.5t32.5 -20.5t38 -17 t44.5 -16.5q33 -11 55 -20t50.5 -25t45 -33t28.5 -42.5t12 -56.5q0 -86 -81 -138.5t-214 -52.5q-121 0 -207 66t-86 159h-4l-7 -50q-11 -43 -36.5 -75.5t-57.5 -50.5t-63.5 -27t-60.5 -9q-94 0 -151.5 43.5t-57.5 115.5q0 82 57 132.5t151 50.5q61 0 104.5 -33.5t43.5 -80.5 q0 -19 -12.5 -32t-30.5 -13v47q0 39 -31 66.5t-74 27.5q-58 0 -93 -44.5t-35 -117.5q0 -61 39 -98t102 -37q81 0 138 60.5t57 146.5v202zM806 657l-9 8l118 139q4 5 10 5q5 0 10 -4l16 -13l-24 -30z" />
<glyph unicode="a&#x161;" horiz-adv-x="1094" d="M451 428q0 68 -49 109.5t-129 41.5q-72 0 -112 -37.5t-43 -98.5l-3 -62h-18l11 236h10l-3 -53q-2 -24 -4 -32l7 -2q5 15 16 23q59 44 138 44q116 0 186.5 -50t70.5 -132v-200q0 -97 66 -156t174 -59q98 0 157.5 42.5t59.5 111.5q0 19 -8.5 34.5t-21 27t-33.5 22.5t-39 18 t-45 17q-34 11 -54 19t-47.5 22.5t-42.5 30t-26.5 39t-11.5 51.5q0 73 54 117.5t143 44.5q74 0 133 -44q11 -8 16 -23l7 2q-2 8 -4 32l-3 53h10l11 -236l-18 -1l-2 42q-3 65 -41.5 111t-108.5 46q-61 0 -94 -31.5t-33 -90.5q0 -17 8.5 -31.5t19.5 -24.5t32.5 -20.5t38 -17 t44.5 -16.5q33 -11 55 -20t50.5 -25t45 -33t28.5 -42.5t12 -56.5q0 -86 -81 -138.5t-214 -52.5q-121 0 -207 66t-86 159h-4l-7 -50q-11 -43 -36.5 -75.5t-57.5 -50.5t-63.5 -27t-60.5 -9q-94 0 -151.5 43.5t-57.5 115.5q0 82 57 132.5t151 50.5q61 0 104.5 -33.5t43.5 -80.5 q0 -19 -12.5 -32t-30.5 -13v47q0 39 -31 66.5t-74 27.5q-58 0 -93 -44.5t-35 -117.5q0 -61 39 -98t102 -37q81 0 138 60.5t57 146.5v202zM867 686h-28l-102 100l18 20l49 -49q14 -14 25 -27.5t16.5 -22t5.5 -10.5h4q0 2 5.5 10t17 22t25.5 28l49 49l18 -20z" />
<glyph unicode="&#xe1;n" horiz-adv-x="1253" d="M258 657l-9 8l118 139q4 5 10 5q5 0 10 -4l16 -13l-24 -30zM451 428q0 68 -49 109.5t-129 41.5q-72 0 -112 -37.5t-43 -98.5l-3 -62h-18l11 236h10l-3 -53q-2 -24 -4 -32l7 -2q5 15 16 23q59 44 138 44q116 0 186.5 -50t70.5 -132v-241q0 -71 48.5 -121t116.5 -50 q54 0 88.5 32.5t34.5 80.5q0 40 -25 66t-67 29h-81v9h25q36 0 44.5 8t8.5 44v230q0 14 -9 23t-24 9h-4l-59 -5l-1 6l77 16q32 6 53 25t21 48v4h8v-131q0 -87 -2 -105h7q3 27 16 65q22 64 71.5 102t111.5 38q80 0 124 -41t44 -110v-384q0 -36 8.5 -44.5t44.5 -8.5h36v-9h-255 v9h97v2q-9 9 -9 26v392q0 76 -23.5 113.5t-74.5 37.5q-78 0 -129 -68t-51 -176v-64q0 -33 14 -84q12 -45 12 -72q0 -58 -40 -97.5t-102 -39.5q-88 0 -150 58t-62 140h-5l-5 -23q-11 -43 -36.5 -75.5t-57.5 -50.5t-63.5 -27t-60.5 -9q-94 0 -151.5 43.5t-57.5 115.5 q0 82 57 132.5t151 50.5q61 0 104.5 -33.5t43.5 -80.5q0 -19 -12.5 -32t-30.5 -13v47q0 39 -31 66.5t-74 27.5q-58 0 -93 -44.5t-35 -117.5q0 -61 39 -98t102 -37q81 0 138 60.5t57 146.5v202z" />
<glyph unicode="&#xe4;n" horiz-adv-x="1253" d="M202 782q20 0 32.5 -11.5t12.5 -32.5q0 -20 -12 -32t-33 -12q-20 0 -32 11.5t-12 32.5q0 20 11.5 32t32.5 12zM398 782q20 0 32 -11.5t12 -32.5q0 -20 -11.5 -32t-32.5 -12q-20 0 -32.5 11.5t-12.5 32.5q0 20 12 32t33 12zM451 428q0 68 -49 109.5t-129 41.5 q-72 0 -112 -37.5t-43 -98.5l-3 -62h-18l11 236h10l-3 -53q-2 -24 -4 -32l7 -2q5 15 16 23q59 44 138 44q116 0 186.5 -50t70.5 -132v-241q0 -71 48.5 -121t116.5 -50q54 0 88.5 32.5t34.5 80.5q0 40 -25 66t-67 29h-81v9h25q36 0 44.5 8t8.5 44v230q0 14 -9 23t-24 9h-4 l-59 -5l-1 6l77 16q32 6 53 25t21 48v4h8v-131q0 -87 -2 -105h7q3 27 16 65q22 64 71.5 102t111.5 38q80 0 124 -41t44 -110v-384q0 -36 8.5 -44.5t44.5 -8.5h36v-9h-255v9h97v2q-9 9 -9 26v392q0 76 -23.5 113.5t-74.5 37.5q-78 0 -129 -68t-51 -176v-64q0 -33 14 -84 q12 -45 12 -72q0 -58 -40 -97.5t-102 -39.5q-88 0 -150 58t-62 140h-5l-5 -23q-11 -43 -36.5 -75.5t-57.5 -50.5t-63.5 -27t-60.5 -9q-94 0 -151.5 43.5t-57.5 115.5q0 82 57 132.5t151 50.5q61 0 104.5 -33.5t43.5 -80.5q0 -19 -12.5 -32t-30.5 -13v47q0 39 -31 66.5 t-74 27.5q-58 0 -93 -44.5t-35 -117.5q0 -61 39 -98t102 -37q81 0 138 60.5t57 146.5v202z" />
<glyph unicode="&#x103;n" horiz-adv-x="1253" d="M451 428q0 68 -49 109.5t-129 41.5q-72 0 -112 -37.5t-43 -98.5l-3 -62h-18l11 236h10l-3 -53q-2 -24 -4 -32l7 -2q5 15 16 23q59 44 138 44q116 0 186.5 -50t70.5 -132v-241q0 -71 48.5 -121t116.5 -50q54 0 88.5 32.5t34.5 80.5q0 40 -25 66t-67 29h-81v9h25 q36 0 44.5 8t8.5 44v230q0 14 -9 23t-24 9h-4l-59 -5l-1 6l77 16q32 6 53 25t21 48v4h8v-131q0 -87 -2 -105h7q3 27 16 65q22 64 71.5 102t111.5 38q80 0 124 -41t44 -110v-384q0 -36 8.5 -44.5t44.5 -8.5h36v-9h-255v9h97v2q-9 9 -9 26v392q0 76 -23.5 113.5t-74.5 37.5 q-78 0 -129 -68t-51 -176v-64q0 -33 14 -84q12 -45 12 -72q0 -58 -40 -97.5t-102 -39.5q-88 0 -150 58t-62 140h-5l-5 -23q-11 -43 -36.5 -75.5t-57.5 -50.5t-63.5 -27t-60.5 -9q-94 0 -151.5 43.5t-57.5 115.5q0 82 57 132.5t151 50.5q61 0 104.5 -33.5t43.5 -80.5 q0 -19 -12.5 -32t-30.5 -13v47q0 39 -31 66.5t-74 27.5q-58 0 -93 -44.5t-35 -117.5q0 -61 39 -98t102 -37q81 0 138 60.5t57 146.5v202zM314 809l103 -100l-17 -20l-49 49q-14 14 -26 28t-17.5 22t-5.5 10h-4q0 -2 -5.5 -10.5t-17 -22t-25.5 -27.5l-49 -49l-17 20l102 100 h28z" />
<glyph unicode="a&#xf1;" horiz-adv-x="1253" d="M1069 761q-11 -40 -26.5 -55t-38.5 -15t-53.5 18.5t-58.5 36.5t-44 18q-22 0 -31 -33l-8 -31l-16 4l8 31q10 37 24.5 50.5t36.5 13.5t52.5 -18.5t58.5 -36.5t45 -18q25 0 35 39l8 30l16 -4zM451 428q0 68 -49 109.5t-129 41.5q-72 0 -112 -37.5t-43 -98.5l-3 -62h-18 l11 236h10l-3 -53q-2 -24 -4 -32l7 -2q5 15 16 23q59 44 138 44q116 0 186.5 -50t70.5 -132v-241q0 -71 48.5 -121t116.5 -50q54 0 88.5 32.5t34.5 80.5q0 40 -25 66t-67 29h-81v9h25q36 0 44.5 8t8.5 44v230q0 14 -9 23t-24 9h-4l-59 -5l-1 6l77 16q32 6 53 25t21 48v4h8 v-131q0 -87 -2 -105h7q3 27 16 65q22 64 71.5 102t111.5 38q80 0 124 -41t44 -110v-384q0 -36 8.5 -44.5t44.5 -8.5h36v-9h-255v9h97v2q-9 9 -9 26v392q0 76 -23.5 113.5t-74.5 37.5q-78 0 -129 -68t-51 -176v-64q0 -33 14 -84q12 -45 12 -72q0 -58 -40 -97.5t-102 -39.5 q-88 0 -150 58t-62 140h-5l-5 -23q-11 -43 -36.5 -75.5t-57.5 -50.5t-63.5 -27t-60.5 -9q-94 0 -151.5 43.5t-57.5 115.5q0 82 57 132.5t151 50.5q61 0 104.5 -33.5t43.5 -80.5q0 -19 -12.5 -32t-30.5 -13v47q0 39 -31 66.5t-74 27.5q-58 0 -93 -44.5t-35 -117.5 q0 -61 39 -98t102 -37q81 0 138 60.5t57 146.5v202z" />
<glyph unicode="a&#x144;" horiz-adv-x="1253" d="M889 657l-9 8l118 139q4 5 10 5q5 0 10 -4l16 -13l-24 -30zM451 428q0 68 -49 109.5t-129 41.5q-72 0 -112 -37.5t-43 -98.5l-3 -62h-18l11 236h10l-3 -53q-2 -24 -4 -32l7 -2q5 15 16 23q59 44 138 44q116 0 186.5 -50t70.5 -132v-241q0 -71 48.5 -121t116.5 -50 q54 0 88.5 32.5t34.5 80.5q0 40 -25 66t-67 29h-81v9h25q36 0 44.5 8t8.5 44v230q0 14 -9 23t-24 9h-4l-59 -5l-1 6l77 16q32 6 53 25t21 48v4h8v-131q0 -87 -2 -105h7q3 27 16 65q22 64 71.5 102t111.5 38q80 0 124 -41t44 -110v-384q0 -36 8.5 -44.5t44.5 -8.5h36v-9h-255 v9h97v2q-9 9 -9 26v392q0 76 -23.5 113.5t-74.5 37.5q-78 0 -129 -68t-51 -176v-64q0 -33 14 -84q12 -45 12 -72q0 -58 -40 -97.5t-102 -39.5q-88 0 -150 58t-62 140h-5l-5 -23q-11 -43 -36.5 -75.5t-57.5 -50.5t-63.5 -27t-60.5 -9q-94 0 -151.5 43.5t-57.5 115.5 q0 82 57 132.5t151 50.5q61 0 104.5 -33.5t43.5 -80.5q0 -19 -12.5 -32t-30.5 -13v47q0 39 -31 66.5t-74 27.5q-58 0 -93 -44.5t-35 -117.5q0 -61 39 -98t102 -37q81 0 138 60.5t57 146.5v202z" />
<glyph unicode="&#xfa;n" horiz-adv-x="1260" d="M833 116q0 -57 -44.5 -97t-107.5 -40q-89 0 -152 78.5t-63 189.5h-5l-4 -51q-15 -103 -69.5 -153.5t-129.5 -50.5q-76 0 -122.5 39.5t-46.5 111.5v378q0 30 -30 30h-47v9h57q37 0 64.5 12.5t27.5 40.5v4h8v-85v-380q0 -68 26.5 -105t71.5 -37q81 0 130 70t49 185v262 q0 36 -9 44.5t-45 8.5h-17v9l155 4v-8q-4 -24 -4 -53v-318q0 -87 48.5 -149t116.5 -62q55 0 94 33t39 80q0 40 -25 66t-67 29h-91v9h35q36 0 44.5 8.5t8.5 44.5v229q0 14 -9 23t-24 9h-4l-59 -5l-1 6l77 16q32 6 53 25t21 48v4h8v-131q0 -87 -2 -105h7q3 27 16 65 q22 64 71.5 102t111.5 38q80 0 124 -41t44 -110v-384q0 -36 8.5 -44.5t44.5 -8.5h36v-9h-255v9h97v2q-9 9 -9 26v392q0 151 -98 151q-78 0 -129 -68t-51 -176v-63q0 -36 9 -44.5t45 -8.5h35v-9h-125q29 -12 45.5 -37t16.5 -58zM253 657l-9 8l118 139q4 5 10 5q5 0 10 -4 l16 -13l-24 -30z" />
</font>
</defs>
</svg>
